<?xml version="1.0" encoding="utf-8"?>
<!-- Generator: Adobe Illustrator 15.0.2, SVG Export Plug-In  -->
<!DOCTYPE svg PUBLIC "-//W3C//DTD SVG 1.1//EN" "http://www.w3.org/Graphics/SVG/1.1/DTD/svg11.dtd" [
	<!ENTITY ns_flows "http://ns.adobe.com/Flows/1.0/">
]>
<svg version="1.1"
	 xmlns="http://www.w3.org/2000/svg" xmlns:xlink="http://www.w3.org/1999/xlink" xmlns:a="http://ns.adobe.com/AdobeSVGViewerExtensions/3.0/"
	 x="0px" y="0px" width="247px" height="347px" viewBox="-16.76 -19.87 247 347"
	 overflow="visible" enable-background="new -16.76 -19.87 247 347" xml:space="preserve">
<defs>
</defs>
<polyline fill="none" stroke="#FFFFFF" stroke-width="2" stroke-linecap="round" stroke-linejoin="round" stroke-miterlimit="10" points="
	76.223,175.505 76.223,159.979 136.723,159.979 136.723,146.841 "/>
<polyline fill="none" stroke="#FFFFFF" stroke-width="2" stroke-linecap="round" stroke-linejoin="round" stroke-miterlimit="10" points="
	197.223,175.505 197.223,159.979 136.723,159.979 136.723,146.841 "/>
<line fill="none" stroke="#894B9D" stroke-width="2" stroke-linecap="round" stroke-miterlimit="10" x1="134.573" y1="48.296" x2="134.573" y2="28.463"/>
<path fill="#894B9D" d="M150.573,16c0,8.836-7.164,16-16,16s-15.999-7.164-15.999-16s7.163-16,15.999-16S150.573,7.164,150.573,16"
	/>
<path fill="#FFFFFF" d="M136.73,9.241c0.875,0,1.712,0.171,2.513,0.514c0.797,0.342,1.484,0.802,2.062,1.378
	c0.576,0.576,1.035,1.264,1.377,2.063s0.514,1.637,0.514,2.512c0,0.817-0.148,1.601-0.445,2.352
	c-0.299,0.753-0.701,1.412-1.213,1.977s-1.121,1.034-1.83,1.407c-0.709,0.371-1.463,0.603-2.26,0.692v-1.448
	c0.805-0.117,1.535-0.407,2.191-0.874c0.656-0.465,1.174-1.059,1.553-1.779c0.379-0.721,0.566-1.497,0.566-2.327
	c0-0.681-0.133-1.333-0.398-1.954c-0.266-0.621-0.623-1.157-1.072-1.605c-0.449-0.45-0.984-0.807-1.605-1.073
	c-0.62-0.267-1.273-0.399-1.955-0.399c-0.621,0-1.219,0.111-1.793,0.334s-1.08,0.525-1.516,0.906
	c-0.436,0.382-0.801,0.839-1.094,1.37c-0.295,0.532-0.484,1.099-0.57,1.702h-1.494c-0.793,0-1.471,0.281-2.033,0.842
	c-0.561,0.562-0.842,1.239-0.842,2.033c0,0.433,0.086,0.835,0.256,1.207c0.17,0.37,0.395,0.675,0.672,0.913
	c0.275,0.236,0.584,0.422,0.924,0.554c0.338,0.134,0.68,0.2,1.023,0.2h2.875v1.437h-2.875c-0.781,0-1.504-0.192-2.164-0.578
	c-0.66-0.385-1.184-0.908-1.57-1.568c-0.383-0.662-0.576-1.382-0.576-2.165c-0.002-0.783,0.191-1.504,0.576-2.165
	c0.389-0.66,0.91-1.183,1.57-1.568c0.66-0.386,1.381-0.579,2.164-0.579h0.371c0.297-0.835,0.74-1.576,1.336-2.226
	c0.596-0.649,1.307-1.158,2.137-1.53C134.933,9.426,135.808,9.24,136.73,9.241L136.73,9.241z M135.292,14.99
	c0.199,0,0.369,0.07,0.512,0.213l2.154,2.156c0.139,0.138,0.209,0.306,0.209,0.506c0,0.205-0.068,0.376-0.205,0.513
	c-0.137,0.137-0.309,0.204-0.514,0.204c-0.203,0-0.373-0.068-0.511-0.207l-0.927-0.931v4.732c0,0.198-0.07,0.368-0.211,0.508
	s-0.309,0.211-0.508,0.211s-0.367-0.071-0.508-0.211s-0.211-0.31-0.211-0.508v-4.732l-0.928,0.931
	c-0.137,0.139-0.309,0.207-0.51,0.207c-0.199,0-0.367-0.069-0.508-0.21c-0.141-0.14-0.211-0.31-0.211-0.508
	c0-0.191,0.068-0.359,0.207-0.506l2.156-2.156c0.141-0.142,0.312-0.213,0.51-0.213L135.292,14.99z"/>
<rect x="130.072" y="65.621" fill="#FFFFFF" width="2" height="2"/>
<rect x="130.072" y="61.621" fill="#FFFFFF" width="2" height="2"/>
<rect x="130.072" y="57.621" fill="#FFFFFF" width="2" height="2"/>
<rect x="128.072" y="59.621" fill="#FFFFFF" width="2" height="2"/>
<path fill="#FFFFFF" d="M140.072,51.621h-18v28h24v-22L140.072,51.621z M144.072,77.621h-20v-24h6v2h2v-2h6l6,6V77.621z"/>
<rect x="128.072" y="55.621" fill="#FFFFFF" width="2" height="2"/>
<rect x="128.072" y="63.621" fill="#FFFFFF" width="2" height="2"/>
<path fill="#FFFFFF" d="M132.072,69.621h-2v-2h-2v2l-2,2v4h8v-4L132.072,69.621z M132.072,73.621h-4v-2h4V73.621z"/>
<line fill="none" stroke="#FFFFFF" stroke-width="2" stroke-linecap="round" stroke-linejoin="round" stroke-miterlimit="10" x1="134.573" y1="80.197" x2="134.573" y2="100.296"/>
<rect x="120.781" y="106.162" fill="none" stroke="#FFFFFF" stroke-width="2" stroke-linecap="round" stroke-linejoin="round" stroke-miterlimit="10" width="29.5" height="39.774"/>
<path fill="#FFFFFF" d="M128.098,128.522h-1.415v-1.767l-2.071-3.83h1.423l1.352,2.438l1.319-2.438h1.423l-2.03,3.79V128.522z"/>
<path fill="#FFFFFF" d="M131.49,127.491l-0.407,1.031h-1.464l2.415-5.597h1.463l2.359,5.597h-1.52l-0.4-1.031H131.49z
	 M132.722,124.34l-0.816,2.071h1.615L132.722,124.34z"/>
<path fill="#FFFFFF" d="M141.272,128.522l-0.008-3.638l-1.344,3.078h-0.928l-1.343-3.078v3.638h-1.271v-5.604h1.56l1.52,3.334
	l1.519-3.334h1.552v5.604H141.272z"/>
<path fill="#FFFFFF" d="M147.456,127.331v1.191h-3.798v-5.597h1.423v4.405H147.456z"/>
<rect x="61.5" y="182.079" fill="#ECF0F1" stroke="#FFFFFF" stroke-width="2" stroke-linecap="round" stroke-linejoin="round" stroke-miterlimit="10" width="29.5" height="39.775"/>
<path fill="#35495E" d="M65.716,200.779c0,0.505-0.154,0.742-0.588,0.841c0.435,0.104,0.588,0.343,0.588,0.848v0.847
	c0,0.33,0.133,0.456,0.617,0.456v0.896h-0.469c-0.911,0-1.226-0.26-1.226-0.98v-1.296c0-0.225-0.077-0.309-0.259-0.309h-0.273
	v-0.924h0.273c0.182,0,0.259-0.077,0.259-0.302v-1.303c0-0.722,0.315-0.974,1.226-0.974h0.469v0.89
	c-0.483,0-0.617,0.126-0.617,0.455V200.779z"/>
<path fill="#35495E" d="M69.776,202.194c0,1.044-0.651,1.646-1.695,1.646c-0.693,0-1.253-0.287-1.688-0.784l0.574-0.833
	c0.351,0.364,0.743,0.546,1.03,0.546c0.329,0,0.525-0.203,0.525-0.603v-2.283h-1.681v-1.008h2.935V202.194z"/>
<path fill="#35495E" d="M74.488,199.372l-0.469,0.974c-0.518-0.302-1.169-0.512-1.569-0.512c-0.322,0-0.539,0.119-0.539,0.357
	c0,0.848,2.591,0.364,2.591,2.136c0,0.98-0.869,1.499-1.961,1.499c-0.819,0-1.66-0.309-2.241-0.784l0.483-0.96
	c0.504,0.441,1.26,0.735,1.772,0.735c0.392,0,0.637-0.146,0.637-0.427c0-0.869-2.591-0.351-2.591-2.087
	c0-0.904,0.777-1.479,1.954-1.479C73.262,198.825,73.984,199.042,74.488,199.372z"/>
<path fill="#35495E" d="M80.158,201.326c0,1.429-1.134,2.514-2.654,2.514c-1.513,0-2.647-1.078-2.647-2.514
	c0-1.429,1.135-2.486,2.647-2.486C79.024,198.839,80.158,199.904,80.158,201.326z M76.131,201.333c0,0.826,0.637,1.464,1.387,1.464
	c0.756,0,1.359-0.638,1.359-1.464s-0.603-1.45-1.359-1.45S76.131,200.506,76.131,201.333z"/>
<path fill="#35495E" d="M84.238,203.784l-2.255-3.019v3.019h-1.169v-4.902h1.1l2.262,3.025v-3.025h1.163v4.902H84.238z"/>
<path fill="#35495E" d="M88.515,202.082h-0.266c-0.189,0-0.266,0.084-0.266,0.309v1.296c0,0.721-0.315,0.98-1.226,0.98h-0.462
	v-0.896c0.476,0,0.616-0.126,0.616-0.456v-0.847c0-0.505,0.147-0.743,0.588-0.841c-0.441-0.105-0.588-0.343-0.588-0.848v-0.854
	c0-0.329-0.14-0.455-0.616-0.455v-0.89h0.462c0.91,0,1.226,0.252,1.226,0.974v1.303c0,0.225,0.077,0.302,0.266,0.302h0.266V202.082z
	"/>
<path fill="#FFFFFF" d="M56.949,226.796c1.541,0,2.605,0.994,2.605,2.451c0,1.449-1.079,2.451-2.654,2.451h-2.059v-4.902H56.949z
	 M56.087,230.705h0.89c0.763,0,1.31-0.589,1.31-1.45c0-0.868-0.574-1.464-1.366-1.464h-0.833V230.705z"/>
<path fill="#FFFFFF" d="M63.544,229.234v2.465H62.36v-0.435c-0.245,0.322-0.645,0.49-1.156,0.49c-0.806,0-1.296-0.49-1.296-1.184
	c0-0.714,0.511-1.135,1.45-1.142h0.995v-0.056c0-0.371-0.245-0.596-0.735-0.596c-0.315,0-0.729,0.112-1.127,0.315l-0.343-0.799
	c0.588-0.272,1.121-0.427,1.751-0.427C62.935,227.868,63.537,228.379,63.544,229.234z M62.353,230.417v-0.337H61.59
	c-0.364,0-0.546,0.126-0.546,0.406c0,0.273,0.196,0.448,0.532,0.448C61.954,230.935,62.276,230.725,62.353,230.417z"/>
<path fill="#FFFFFF" d="M66.84,231.496c-0.273,0.161-0.644,0.259-1.008,0.259c-0.729,0-1.254-0.413-1.254-1.197v-1.667h-0.525
	v-0.791h0.525v-1.051h1.205v1.043h0.988v0.799h-0.988v1.478c0,0.295,0.126,0.421,0.351,0.413c0.126,0,0.287-0.049,0.469-0.126
	L66.84,231.496z"/>
<path fill="#FFFFFF" d="M70.789,229.234v2.465h-1.184v-0.435c-0.245,0.322-0.645,0.49-1.156,0.49c-0.806,0-1.296-0.49-1.296-1.184
	c0-0.714,0.511-1.135,1.45-1.142h0.995v-0.056c0-0.371-0.245-0.596-0.735-0.596c-0.315,0-0.729,0.112-1.127,0.315l-0.343-0.799
	c0.588-0.272,1.121-0.427,1.751-0.427C70.179,227.868,70.781,228.379,70.789,229.234z M69.598,230.417v-0.337h-0.763
	c-0.364,0-0.546,0.126-0.546,0.406c0,0.273,0.196,0.448,0.532,0.448C69.199,230.935,69.521,230.725,69.598,230.417z"/>
<path fill="#FFFFFF" d="M75.505,230.319h-0.035h-0.946v1.38h-1.247v-4.902h2.192c1.295,0,2.038,0.616,2.038,1.709
	c0,0.749-0.315,1.288-0.89,1.575l1.03,1.618h-1.415L75.505,230.319z M75.471,229.338c0.539,0,0.854-0.273,0.854-0.791
	c0-0.512-0.315-0.771-0.854-0.771h-0.946v1.562H75.471z"/>
<path fill="#FFFFFF" d="M81.897,230.137h-2.654c0.119,0.448,0.441,0.7,0.89,0.7c0.329,0,0.651-0.133,0.903-0.386l0.637,0.624
	c-0.385,0.42-0.952,0.665-1.646,0.665c-1.233,0-2.003-0.771-2.003-1.919c0-1.17,0.798-1.94,1.968-1.94
	C81.323,227.881,81.981,228.757,81.897,230.137z M80.734,229.486c0-0.463-0.294-0.764-0.728-0.764c-0.42,0-0.708,0.309-0.785,0.764
	H80.734z"/>
<path fill="#FFFFFF" d="M85.88,228.729l-0.869,0.525c-0.175-0.245-0.434-0.393-0.763-0.393c-0.469,0-0.792,0.386-0.792,0.953
	c0,0.581,0.322,0.959,0.792,0.959c0.343,0,0.609-0.14,0.771-0.427l0.882,0.519c-0.308,0.553-0.917,0.875-1.716,0.875
	c-1.163,0-1.947-0.771-1.947-1.919c0-1.163,0.792-1.94,1.961-1.94C84.948,227.881,85.551,228.19,85.88,228.729z"/>
<path fill="#FFFFFF" d="M90.192,229.808c0,1.162-0.827,1.933-2.059,1.933c-1.24,0-2.066-0.771-2.066-1.933
	c0-1.163,0.827-1.927,2.066-1.927C89.366,227.881,90.192,228.645,90.192,229.808z M87.286,229.822c0,0.588,0.343,0.98,0.848,0.98
	c0.497,0,0.84-0.393,0.84-0.98c0-0.581-0.343-0.98-0.84-0.98C87.629,228.841,87.286,229.241,87.286,229.822z"/>
<path fill="#FFFFFF" d="M92.053,228.561c0.259-0.441,0.687-0.687,1.226-0.693v1.093c-0.7-0.063-1.163,0.266-1.226,0.798v1.94h-1.211
	v-3.775h1.211V228.561z"/>
<path fill="#FFFFFF" d="M97.633,231.699h-1.211v-0.497c-0.266,0.35-0.651,0.546-1.135,0.546c-1.064,0-1.765-0.784-1.765-1.954
	c0-1.155,0.693-1.919,1.737-1.919c0.497,0,0.896,0.196,1.163,0.547v-1.92h1.211V231.699z M96.421,229.822
	c0-0.581-0.336-0.98-0.84-0.98c-0.504,0-0.841,0.399-0.848,0.98c0.007,0.581,0.343,0.987,0.848,0.987
	C96.085,230.809,96.421,230.403,96.421,229.822z"/>
<rect x="183.001" y="180.579" fill="#ECF0F1" stroke="#FFFFFF" stroke-width="2" stroke-linecap="round" stroke-linejoin="round" stroke-miterlimit="10" width="29.5" height="39.775"/>
<path fill="#35495E" d="M187.217,199.279c0,0.505-0.154,0.742-0.588,0.841c0.435,0.104,0.588,0.343,0.588,0.848v0.847
	c0,0.33,0.133,0.456,0.617,0.456v0.896h-0.469c-0.911,0-1.226-0.26-1.226-0.98v-1.296c0-0.225-0.077-0.309-0.259-0.309h-0.273
	v-0.924h0.273c0.182,0,0.259-0.077,0.259-0.302v-1.303c0-0.722,0.315-0.974,1.226-0.974h0.469v0.89
	c-0.483,0-0.617,0.126-0.617,0.455V199.279z"/>
<path fill="#35495E" d="M191.278,200.694c0,1.044-0.651,1.646-1.695,1.646c-0.693,0-1.253-0.287-1.688-0.784l0.574-0.833
	c0.351,0.364,0.743,0.546,1.03,0.546c0.329,0,0.525-0.203,0.525-0.603v-2.283h-1.681v-1.008h2.935V200.694z"/>
<path fill="#35495E" d="M195.989,197.872l-0.469,0.974c-0.518-0.302-1.169-0.512-1.569-0.512c-0.322,0-0.539,0.119-0.539,0.357
	c0,0.848,2.591,0.364,2.591,2.136c0,0.98-0.869,1.499-1.961,1.499c-0.819,0-1.66-0.309-2.241-0.784l0.483-0.96
	c0.504,0.441,1.26,0.735,1.772,0.735c0.392,0,0.637-0.146,0.637-0.427c0-0.869-2.591-0.351-2.591-2.087
	c0-0.904,0.777-1.479,1.954-1.479C194.764,197.325,195.485,197.542,195.989,197.872z"/>
<path fill="#35495E" d="M201.66,199.826c0,1.429-1.134,2.514-2.654,2.514c-1.513,0-2.647-1.078-2.647-2.514
	c0-1.429,1.135-2.486,2.647-2.486C200.525,197.339,201.66,198.404,201.66,199.826z M197.633,199.833
	c0,0.826,0.637,1.464,1.387,1.464c0.756,0,1.359-0.638,1.359-1.464s-0.603-1.45-1.359-1.45S197.633,199.006,197.633,199.833z"/>
<path fill="#35495E" d="M205.74,202.284l-2.255-3.019v3.019h-1.169v-4.902h1.1l2.262,3.025v-3.025h1.163v4.902H205.74z"/>
<path fill="#35495E" d="M210.016,200.582h-0.266c-0.189,0-0.266,0.084-0.266,0.309v1.296c0,0.721-0.315,0.98-1.226,0.98h-0.462
	v-0.896c0.476,0,0.616-0.126,0.616-0.456v-0.847c0-0.505,0.147-0.743,0.588-0.841c-0.441-0.105-0.588-0.343-0.588-0.848v-0.854
	c0-0.329-0.14-0.455-0.616-0.455v-0.89h0.462c0.91,0,1.226,0.252,1.226,0.974v1.303c0,0.225,0.077,0.302,0.266,0.302h0.266V200.582z
	"/>
<path fill="#FFFFFF" d="M178.45,225.296c1.541,0,2.605,0.994,2.605,2.451c0,1.449-1.079,2.451-2.654,2.451h-2.059v-4.902H178.45z
	 M177.588,229.205h0.89c0.763,0,1.31-0.589,1.31-1.45c0-0.868-0.574-1.464-1.366-1.464h-0.833V229.205z"/>
<path fill="#FFFFFF" d="M185.045,227.734v2.465h-1.184v-0.435c-0.245,0.322-0.645,0.49-1.156,0.49c-0.806,0-1.296-0.49-1.296-1.184
	c0-0.714,0.511-1.135,1.45-1.142h0.995v-0.056c0-0.371-0.245-0.596-0.735-0.596c-0.315,0-0.729,0.112-1.127,0.315l-0.343-0.799
	c0.588-0.272,1.121-0.427,1.751-0.427C184.436,226.368,185.038,226.879,185.045,227.734z M183.854,228.917v-0.337h-0.763
	c-0.364,0-0.546,0.126-0.546,0.406c0,0.273,0.196,0.448,0.532,0.448C183.455,229.435,183.777,229.225,183.854,228.917z"/>
<path fill="#FFFFFF" d="M188.341,229.996c-0.273,0.161-0.644,0.259-1.008,0.259c-0.729,0-1.254-0.413-1.254-1.197v-1.667h-0.525
	v-0.791h0.525v-1.051h1.205v1.043h0.988v0.799h-0.988v1.478c0,0.295,0.126,0.421,0.351,0.413c0.126,0,0.287-0.049,0.469-0.126
	L188.341,229.996z"/>
<path fill="#FFFFFF" d="M192.29,227.734v2.465h-1.184v-0.435c-0.245,0.322-0.645,0.49-1.156,0.49c-0.806,0-1.296-0.49-1.296-1.184
	c0-0.714,0.511-1.135,1.45-1.142h0.995v-0.056c0-0.371-0.245-0.596-0.735-0.596c-0.315,0-0.729,0.112-1.127,0.315l-0.343-0.799
	c0.588-0.272,1.121-0.427,1.751-0.427C191.68,226.368,192.282,226.879,192.29,227.734z M191.099,228.917v-0.337h-0.763
	c-0.364,0-0.546,0.126-0.546,0.406c0,0.273,0.196,0.448,0.532,0.448C190.7,229.435,191.021,229.225,191.099,228.917z"/>
<path fill="#FFFFFF" d="M197.006,228.819h-0.035h-0.946v1.38h-1.247v-4.902h2.192c1.295,0,2.038,0.616,2.038,1.709
	c0,0.749-0.315,1.288-0.89,1.575l1.03,1.618h-1.415L197.006,228.819z M196.972,227.838c0.539,0,0.854-0.273,0.854-0.791
	c0-0.512-0.315-0.771-0.854-0.771h-0.946v1.562H196.972z"/>
<path fill="#FFFFFF" d="M203.398,228.637h-2.654c0.119,0.448,0.441,0.7,0.89,0.7c0.329,0,0.651-0.133,0.903-0.386l0.637,0.624
	c-0.385,0.42-0.952,0.665-1.646,0.665c-1.233,0-2.003-0.771-2.003-1.919c0-1.17,0.798-1.94,1.968-1.94
	C202.824,226.381,203.482,227.257,203.398,228.637z M202.235,227.986c0-0.463-0.294-0.764-0.728-0.764
	c-0.42,0-0.708,0.309-0.785,0.764H202.235z"/>
<path fill="#FFFFFF" d="M207.381,227.229l-0.869,0.525c-0.175-0.245-0.434-0.393-0.763-0.393c-0.469,0-0.792,0.386-0.792,0.953
	c0,0.581,0.322,0.959,0.792,0.959c0.343,0,0.609-0.14,0.771-0.427l0.882,0.519c-0.308,0.553-0.917,0.875-1.716,0.875
	c-1.163,0-1.947-0.771-1.947-1.919c0-1.163,0.792-1.94,1.961-1.94C206.449,226.381,207.052,226.69,207.381,227.229z"/>
<path fill="#FFFFFF" d="M211.693,228.308c0,1.162-0.827,1.933-2.059,1.933c-1.24,0-2.066-0.771-2.066-1.933
	c0-1.163,0.827-1.927,2.066-1.927C210.867,226.381,211.693,227.145,211.693,228.308z M208.787,228.322
	c0,0.588,0.343,0.98,0.848,0.98c0.497,0,0.84-0.393,0.84-0.98c0-0.581-0.343-0.98-0.84-0.98
	C209.13,227.341,208.787,227.741,208.787,228.322z"/>
<path fill="#FFFFFF" d="M213.554,227.061c0.259-0.441,0.687-0.687,1.226-0.693v1.093c-0.7-0.063-1.163,0.266-1.226,0.798v1.94
	h-1.211v-3.775h1.211V227.061z"/>
<path fill="#FFFFFF" d="M219.134,230.199h-1.211v-0.497c-0.266,0.35-0.651,0.546-1.135,0.546c-1.064,0-1.765-0.784-1.765-1.954
	c0-1.155,0.693-1.919,1.737-1.919c0.497,0,0.896,0.196,1.163,0.547v-1.92h1.211V230.199z M217.922,228.322
	c0-0.581-0.336-0.98-0.84-0.98c-0.504,0-0.841,0.399-0.848,0.98c0.007,0.581,0.343,0.987,0.848,0.987
	C217.586,229.309,217.922,228.903,217.922,228.322z"/>
<polyline fill="none" stroke="#FFFFFF" stroke-width="2" stroke-linecap="round" stroke-linejoin="round" stroke-miterlimit="10" points="
	16.223,263.003 16.223,247.476 76.723,247.476 76.723,234.337 "/>
<polyline fill="none" stroke="#FFFFFF" stroke-width="2" stroke-linecap="round" stroke-linejoin="round" stroke-miterlimit="10" points="
	137.223,263.003 137.223,247.476 76.723,247.476 76.723,234.337 "/>
<line fill="none" stroke="#FFFFFF" stroke-width="2" stroke-linecap="round" stroke-linejoin="round" stroke-miterlimit="10" x1="76.722" y1="246.505" x2="76.722" y2="263.337"/>
<rect y="269.829" fill="#894B9D" width="29.5" height="39.775"/>
<path fill="#FFFFFF" d="M7.286,290.154H7.251H6.305v1.38H5.059v-4.902h2.192c1.295,0,2.038,0.616,2.038,1.709
	c0,0.749-0.315,1.288-0.89,1.575l1.03,1.618H8.014L7.286,290.154z M7.251,289.173c0.539,0,0.854-0.273,0.854-0.791
	c0-0.512-0.315-0.771-0.854-0.771H6.305v1.562H7.251z"/>
<path fill="#FFFFFF" d="M15.106,289.076c0,1.429-1.134,2.514-2.654,2.514c-1.513,0-2.647-1.078-2.647-2.514
	c0-1.429,1.135-2.486,2.647-2.486C13.972,286.589,15.106,287.654,15.106,289.076z M11.079,289.083c0,0.826,0.637,1.464,1.387,1.464
	c0.756,0,1.359-0.638,1.359-1.464s-0.603-1.45-1.359-1.45S11.079,288.256,11.079,289.083z"/>
<path fill="#FFFFFF" d="M20.65,289.076c0,1.429-1.134,2.514-2.654,2.514c-1.513,0-2.647-1.078-2.647-2.514
	c0-1.429,1.135-2.486,2.647-2.486C19.516,286.589,20.65,287.654,20.65,289.076z M16.623,289.083c0,0.826,0.637,1.464,1.387,1.464
	c0.756,0,1.359-0.638,1.359-1.464s-0.603-1.45-1.359-1.45S16.623,288.256,16.623,289.083z"/>
<path fill="#FFFFFF" d="M23.413,287.632v3.901h-1.247v-3.901h-1.464v-1.008h4.188v1.008H23.413z"/>
<rect x="61.5" y="270.829" fill="#894B9D" width="29.5" height="39.775"/>
<path fill="#FFFFFF" d="M65.455,287.594c1.074,0,1.691,0.527,1.691,1.463c0,0.983-0.618,1.553-1.691,1.553h-0.761v1.182h-1.067
	v-4.197H65.455z M64.693,289.771h0.708c0.468,0,0.738-0.234,0.738-0.678c0-0.438-0.27-0.66-0.738-0.66h-0.708V289.771z"/>
<path fill="#FFFFFF" d="M69.871,291.792h-1.062v-1.325l-1.553-2.872h1.067l1.013,1.828l0.99-1.828h1.067l-1.523,2.842V291.792z"/>
<path fill="#FFFFFF" d="M73.729,288.452v3.34h-1.067v-3.34h-1.253v-0.864h3.586v0.864H73.729z"/>
<path fill="#FFFFFF" d="M78.258,291.792v-1.631H76.52v1.631h-1.067v-4.197h1.067v1.727h1.739v-1.727h1.067v4.197H78.258z"/>
<path fill="#FFFFFF" d="M84.432,289.687c0,1.223-0.972,2.152-2.273,2.152c-1.295,0-2.267-0.924-2.267-2.152
	c0-1.224,0.971-2.129,2.267-2.129C83.46,287.558,84.432,288.469,84.432,289.687z M80.983,289.693c0,0.707,0.546,1.253,1.188,1.253
	c0.647,0,1.163-0.546,1.163-1.253c0-0.708-0.516-1.241-1.163-1.241C81.523,288.452,80.983,288.985,80.983,289.693z"/>
<path fill="#FFFFFF" d="M87.93,291.792L86,289.207v2.585h-1.001v-4.197h0.941l1.937,2.59v-2.59h0.995v4.197H87.93z"/>
<rect x="121.25" y="271.079" fill="#894B9D" width="29.5" height="39.775"/>
<path fill="#FFFFFF" d="M134.942,288.515l-0.618,0.731c-0.276-0.335-0.684-0.545-1.055-0.545c-0.666,0-1.169,0.527-1.169,1.217
	c0,0.702,0.504,1.235,1.169,1.235c0.354,0,0.761-0.191,1.055-0.491l0.624,0.659c-0.45,0.462-1.116,0.768-1.733,0.768
	c-1.265,0-2.207-0.93-2.207-2.158c0-1.212,0.965-2.123,2.243-2.123C133.875,287.808,134.522,288.083,134.942,288.515z"/>
<path fill="#FFFFFF" d="M136.869,290.411v1.007h-0.654v-1.007h-1.001v-0.654h1.001v-1.007h0.654v1.007h1.007v0.654H136.869z"/>
<path fill="#FFFFFF" d="M139.929,290.411v1.007h-0.654v-1.007h-1.001v-0.654h1.001v-1.007h0.654v1.007h1.007v0.654H139.929z"/>
<rect x="182.757" y="271.329" fill="#894B9D" width="29.5" height="39.775"/>
<path fill="#FFFFFF" d="M190.045,291.654h-0.035h-0.946v1.38h-1.247v-4.902h2.192c1.295,0,2.038,0.616,2.038,1.709
	c0,0.749-0.315,1.288-0.89,1.575l1.03,1.618h-1.415L190.045,291.654z M190.011,290.673c0.539,0,0.854-0.273,0.854-0.791
	c0-0.512-0.315-0.771-0.854-0.771h-0.946v1.562H190.011z"/>
<path fill="#FFFFFF" d="M197.866,290.576c0,1.429-1.134,2.514-2.654,2.514c-1.513,0-2.647-1.078-2.647-2.514
	c0-1.429,1.135-2.486,2.647-2.486C196.731,288.089,197.866,289.154,197.866,290.576z M193.839,290.583
	c0,0.826,0.637,1.464,1.387,1.464c0.756,0,1.359-0.638,1.359-1.464s-0.603-1.45-1.359-1.45S193.839,289.756,193.839,290.583z"/>
<path fill="#FFFFFF" d="M203.41,290.576c0,1.429-1.134,2.514-2.654,2.514c-1.513,0-2.647-1.078-2.647-2.514
	c0-1.429,1.135-2.486,2.647-2.486C202.275,288.089,203.41,289.154,203.41,290.576z M199.383,290.583
	c0,0.826,0.637,1.464,1.387,1.464c0.756,0,1.359-0.638,1.359-1.464s-0.603-1.45-1.359-1.45S199.383,289.756,199.383,290.583z"/>
<path fill="#FFFFFF" d="M206.173,289.132v3.901h-1.247v-3.901h-1.464v-1.008h4.188v1.008H206.173z"/>
<line fill="none" stroke="#FFFFFF" stroke-width="2" stroke-linecap="round" stroke-linejoin="round" stroke-miterlimit="10" x1="197.972" y1="234.337" x2="197.972" y2="267.255"/>
</svg>
