<?xml version="1.0" encoding="utf-8"?>
<!-- Generator: Adobe Illustrator 15.0.2, SVG Export Plug-In  -->
<!DOCTYPE svg PUBLIC "-//W3C//DTD SVG 1.1//EN" "http://www.w3.org/Graphics/SVG/1.1/DTD/svg11.dtd" [
	<!ENTITY ns_flows "http://ns.adobe.com/Flows/1.0/">
]>
<svg version="1.1"
	 xmlns="http://www.w3.org/2000/svg" xmlns:xlink="http://www.w3.org/1999/xlink" xmlns:a="http://ns.adobe.com/AdobeSVGViewerExtensions/3.0/"
	 x="0px" y="0px" width="245px" height="187px" viewBox="-6.4 -7.9 245 187"
	 overflow="visible" enable-background="new -6.4 -7.9 245 187" xml:space="preserve">
<defs>
</defs>
<rect x="93.1" y="139.9" fill="#ECF0F1" width="47.8" height="34"/>
<path fill="#35495E" d="M234,134.3c0,6.4-5.2,11.5-11.5,11.5H11.5c-6.4,0-11.5-5.2-11.5-11.5V11.5C0,5.2,5.2,0,11.5,0h210.9
	c6.4,0,11.5,5.2,11.5,11.5V134.3z"/>
<polygon opacity="5.000000e-02" fill="#FFFFFF" points="10.4,9.8 10.4,100.9 199.9,9.8 "/>
<path fill="#ECF0F1" d="M0,123.2v16.2c0,6.4,5.2,11.5,11.5,11.5h210.9c6.4,0,11.5-5.2,11.5-11.5v-16.2H0z"/>
<polyline fill="none" stroke="#FFFFFF" stroke-width="2" stroke-linecap="round" stroke-linejoin="round" stroke-miterlimit="10" points="
	120.7,114.8 24.2,114.8 24.2,22.8 "/>
<rect x="28.5" y="29" fill="#FFFFFF" width="2.1" height="2.1"/>
<rect x="29.3" y="26.7" fill="#FFFFFF" width="0.5" height="6.8"/>
<rect x="33.2" y="33.5" fill="#FFFFFF" width="2.1" height="2.1"/>
<rect x="34" y="31.2" fill="#FFFFFF" width="0.5" height="6.8"/>
<rect x="37.7" y="40.3" fill="#FFFFFF" width="2.1" height="2.1"/>
<rect x="38.5" y="38" fill="#FFFFFF" width="0.5" height="6.8"/>
<rect x="42.5" y="44.8" fill="#FFFFFF" width="2.1" height="2.1"/>
<rect x="43.2" y="42.5" fill="#FFFFFF" width="0.5" height="6.8"/>
<rect x="48.2" y="50.6" fill="#FFFFFF" width="2.1" height="2.1"/>
<rect x="49" y="48.3" fill="#FFFFFF" width="0.5" height="6.8"/>
<rect x="53" y="55" fill="#FFFFFF" width="2.1" height="2.1"/>
<rect x="53.8" y="52.8" fill="#FFFFFF" width="0.5" height="6.8"/>
<rect x="56.1" y="87.5" fill="#FFFFFF" width="2.1" height="2.1"/>
<rect x="56.8" y="85.2" fill="#FFFFFF" width="0.5" height="6.8"/>
<rect x="62.2" y="66.4" fill="#FFFFFF" width="2.1" height="2.1"/>
<rect x="63" y="64.1" fill="#FFFFFF" width="0.5" height="6.8"/>
<rect x="66.1" y="70.4" fill="#FFFFFF" width="2.1" height="2.1"/>
<rect x="66.8" y="68.1" fill="#FFFFFF" width="0.5" height="6.8"/>
<rect x="70.8" y="74.9" fill="#FFFFFF" width="2.1" height="2.1"/>
<rect x="71.6" y="72.6" fill="#FFFFFF" width="0.5" height="6.8"/>
<rect x="75.3" y="81.7" fill="#FFFFFF" width="2.1" height="2.1"/>
<rect x="76.1" y="79.4" fill="#FFFFFF" width="0.5" height="6.8"/>
<rect x="80" y="86.2" fill="#FFFFFF" width="2.1" height="2.1"/>
<rect x="80.8" y="83.9" fill="#FFFFFF" width="0.5" height="6.8"/>
<rect x="85.8" y="90.7" fill="#FFFFFF" width="2.1" height="2.1"/>
<rect x="86.6" y="88.4" fill="#FFFFFF" width="0.5" height="6.8"/>
<rect x="90.5" y="93" fill="#FFFFFF" width="2.1" height="2.1"/>
<rect x="91.3" y="90.8" fill="#FFFFFF" width="0.5" height="6.8"/>
<rect x="95" y="96.2" fill="#FFFFFF" width="2.1" height="2.1"/>
<rect x="95.8" y="93.9" fill="#FFFFFF" width="0.5" height="6.8"/>
<rect x="100" y="98.3" fill="#FFFFFF" width="2.1" height="2.1"/>
<rect x="100.8" y="96" fill="#FFFFFF" width="0.5" height="6.8"/>
<rect x="105.5" y="100.2" fill="#FFFFFF" width="2.1" height="2.1"/>
<rect x="106.3" y="97.9" fill="#FFFFFF" width="0.5" height="6.8"/>
<rect x="110.6" y="102.3" fill="#FFFFFF" width="2.1" height="2.1"/>
<rect x="111.3" y="100" fill="#FFFFFF" width="0.5" height="6.8"/>
<rect x="163.6" y="34.4" fill="#894B9D" width="52.3" height="75.8"/>
<path fill="#ECF0F1" d="M212.5,94.6c0,1-0.8,1.8-1.8,1.8h-42.5c-1,0-1.8-0.8-1.8-1.8v-4.9c0-1,0.8-1.8,1.8-1.8h42.5
	c1,0,1.8,0.8,1.8,1.8V94.6z"/>
<path fill="#26B99A" d="M189.7,29.8h-24.4c-1.1,0-2,0.9-2,2v5.5h26.4V29.8z"/>
<path fill="#E64C3C" d="M189.6,29.8H214c1.1,0,2,0.9,2,2v5.5h-26.4V29.8z"/>
<path fill="#955BA5" d="M212.4,104.2c0,0.9-0.7,1.6-1.6,1.6h-14.6c-0.9,0-1.6-0.7-1.6-1.6V101c0-0.9,0.7-1.6,1.6-1.6h14.6
	c0.9,0,1.6,0.7,1.6,1.6V104.2z"/>
<path fill="#FFFFFF" d="M194,31.9c-0.3,0-0.5,0.1-0.8,0.2c-0.2,0.1-0.5,0.2-0.6,0.4s-0.3,0.4-0.4,0.6c-0.1,0.2-0.2,0.5-0.2,0.8
	s0.1,0.5,0.2,0.8c0.1,0.2,0.2,0.5,0.4,0.6s0.4,0.3,0.6,0.4c0.2,0.1,0.5,0.2,0.8,0.2s0.5-0.1,0.8-0.2c0.2-0.1,0.5-0.2,0.6-0.4
	s0.3-0.4,0.4-0.6c0.1-0.2,0.2-0.5,0.2-0.8s-0.1-0.5-0.2-0.8c-0.1-0.2-0.2-0.5-0.4-0.6s-0.4-0.3-0.6-0.4
	C194.5,31.9,194.2,31.9,194,31.9z M194.6,33c0.1,0,0.1,0,0.2,0.1c0,0,0.1,0.1,0.1,0.2c0,0.1,0,0.1-0.1,0.2l-0.5,0.5l0.5,0.5
	c0,0,0.1,0.1,0.1,0.2c0,0.1,0,0.1-0.1,0.2c0,0-0.1,0.1-0.2,0.1s-0.1,0-0.2-0.1l-0.5-0.5l-0.5,0.5c0,0-0.1,0.1-0.2,0.1
	c-0.1,0-0.1,0-0.2-0.1c0,0-0.1-0.1-0.1-0.2c0-0.1,0-0.1,0.1-0.2l0.5-0.5l-0.5-0.5c0,0-0.1-0.1-0.1-0.2c0-0.1,0-0.1,0.1-0.2
	s0.1-0.1,0.2-0.1s0.1,0,0.2,0.1l0.5,0.5l0.5-0.5C194.5,33,194.5,33,194.6,33L194.6,33z"/>
<path fill="#FFFFFF" d="M167.9,31.3c-0.3,0-0.6,0.1-0.9,0.2c-0.3,0.1-0.5,0.3-0.7,0.5c-0.2,0.2-0.4,0.4-0.5,0.7
	c-0.1,0.3-0.2,0.6-0.2,0.9s0.1,0.6,0.2,0.9s0.3,0.5,0.5,0.7c0.2,0.2,0.4,0.4,0.7,0.5c0.3,0.1,0.6,0.2,0.9,0.2s0.6-0.1,0.9-0.2
	c0.3-0.1,0.5-0.3,0.7-0.5c0.2-0.2,0.4-0.4,0.5-0.7s0.2-0.6,0.2-0.9s-0.1-0.6-0.2-0.9c-0.1-0.3-0.3-0.5-0.5-0.7
	c-0.2-0.2-0.4-0.4-0.7-0.5C168.5,31.4,168.3,31.3,167.9,31.3z M168.8,32.8c0.1,0,0.1,0,0.2,0.1c0,0,0.1,0.1,0.1,0.2
	c0,0.1,0,0.1-0.1,0.2l-1.1,1.1c0,0-0.1,0.1-0.2,0.1c-0.1,0-0.1,0-0.2-0.1l-0.5-0.5c0,0-0.1-0.1-0.1-0.2c0-0.1,0-0.1,0.1-0.2
	c0,0,0.1-0.1,0.2-0.1c0.1,0,0.1,0,0.2,0.1l0.4,0.4l0.9-0.9C168.7,32.9,168.7,32.8,168.8,32.8L168.8,32.8z"/>
<line fill="none" stroke="#FFFFFF" stroke-width="2" stroke-miterlimit="10" x1="171.7" y1="33.6" x2="187.1" y2="33.6"/>
<line fill="none" stroke="#FFFFFF" stroke-width="2" stroke-miterlimit="10" x1="197.7" y1="33.7" x2="213.1" y2="33.7"/>
<line fill="none" stroke="#FFFFFF" stroke-miterlimit="10" x1="175.5" y1="46.4" x2="211.5" y2="46.4"/>
<line fill="none" stroke="#FFFFFF" stroke-miterlimit="10" x1="175.5" y1="48.7" x2="193" y2="48.7"/>
<path fill="#FFFFFF" d="M170.1,44.7c0.3,0,0.5,0.1,0.7,0.2c0.2,0.1,0.4,0.3,0.5,0.5c0.1,0.2,0.2,0.5,0.2,0.7v0.7
	c0,0.2,0,0.4-0.1,0.6c-0.1,0.2-0.2,0.3-0.3,0.5c0.4,0.1,0.7,0.1,1,0.3c0.3,0.1,0.5,0.2,0.7,0.4c0.2,0.2,0.2,0.3,0.2,0.5v0.5
	c0,0.2-0.1,0.4-0.2,0.5s-0.3,0.2-0.5,0.2h-4.3c-0.2,0-0.4-0.1-0.5-0.2s-0.2-0.3-0.2-0.5V49c0-0.2,0.1-0.3,0.2-0.5
	c0.2-0.2,0.4-0.3,0.7-0.4s0.6-0.2,1-0.3c-0.1-0.1-0.2-0.3-0.3-0.5c-0.1-0.2-0.1-0.4-0.1-0.6v-0.7c0-0.3,0.1-0.5,0.2-0.7
	s0.3-0.4,0.5-0.5C169.6,44.7,169.8,44.7,170.1,44.7z M170.1,48.3c-0.3,0-0.7,0-1,0.1c-0.3,0.1-0.6,0.1-0.8,0.2
	c-0.1,0-0.2,0.1-0.3,0.1c-0.1,0-0.1,0.1-0.2,0.1c0,0-0.1,0.1-0.1,0.1c0,0,0,0,0,0.1v0.5c0,0.1,0,0.1,0.1,0.2c0,0,0.1,0.1,0.2,0.1
	h4.3c0.1,0,0.1,0,0.2-0.1c0,0,0.1-0.1,0.1-0.2V49c0,0,0,0,0-0.1c0,0-0.1-0.1-0.1-0.1s-0.1-0.1-0.2-0.1c-0.1,0-0.2-0.1-0.3-0.1
	c-0.2-0.1-0.5-0.2-0.8-0.2S170.4,48.3,170.1,48.3L170.1,48.3z M170.1,45.1c-0.3,0-0.5,0.1-0.7,0.3c-0.2,0.2-0.3,0.4-0.3,0.7v0.7
	c0,0.3,0.1,0.5,0.3,0.7c0.2,0.2,0.4,0.3,0.7,0.3c0.3,0,0.5-0.1,0.7-0.3c0.2-0.2,0.3-0.4,0.3-0.7v-0.7c0-0.3-0.1-0.5-0.3-0.7
	C170.6,45.2,170.4,45.1,170.1,45.1z"/>
<rect x="194.7" y="101.1" fill="none" width="17.7" height="3.8"/>
<text transform="matrix(1 0 0 1 198.4551 104.064)" fill="#FFFFFF" font-family="'Montserrat-Regular'" font-size="4">Send </text>
<rect x="93.1" y="150.6" fill="#BDC3C7" width="47.8" height="5.3"/>
</svg>
