<?xml version="1.0" encoding="utf-8"?>
<!-- Generator: Adobe Illustrator 15.0.2, SVG Export Plug-In  -->
<!DOCTYPE svg PUBLIC "-//W3C//DTD SVG 1.1//EN" "http://www.w3.org/Graphics/SVG/1.1/DTD/svg11.dtd" [
	<!ENTITY ns_flows "http://ns.adobe.com/Flows/1.0/">
]>
<svg version="1.1"
	 xmlns="http://www.w3.org/2000/svg" xmlns:xlink="http://www.w3.org/1999/xlink" xmlns:a="http://ns.adobe.com/AdobeSVGViewerExtensions/3.0/"
	 x="0px" y="0px" width="255px" height="187px" viewBox="-10.936 -9.089 255 187"
	 overflow="visible" enable-background="new -10.936 -9.089 255 187" xml:space="preserve">
<defs>
</defs>
<rect x="93.578" y="140.427" fill="none" stroke="#FFFFFF" stroke-miterlimit="10" width="47.836" height="34.002"/>
<path fill="none" stroke="#FFFFFF" stroke-miterlimit="10" d="M234.492,134.785c0,6.365-5.16,11.526-11.526,11.526H12.027
	c-6.368,0-11.527-5.161-11.527-11.526V12.025C0.5,5.66,5.659,0.5,12.027,0.5h210.938c6.366,0,11.526,5.16,11.526,11.525V134.785z"/>
<polygon opacity="0.05" fill="#FFFFFF" points="10.875,10.299 10.875,101.357 200.388,10.299 "/>
<path fill="#FFFFFF" d="M0.5,123.741v16.241c0,6.367,5.159,11.527,11.527,11.527h210.938c6.366,0,11.526-5.16,11.526-11.527v-16.241
	H0.5z"/>
<rect x="93.578" y="151.608" fill="#FFFFFF" width="47.836" height="5.438"/>
<path fill="#FFFFFF" d="M172.399,48.025c1.625,0,3.179,0.318,4.661,0.953c1.481,0.635,2.758,1.488,3.827,2.557
	c1.07,1.07,1.923,2.346,2.558,3.828s0.952,3.037,0.953,4.66c0,1.516-0.276,2.971-0.828,4.365c-0.552,1.396-1.302,2.619-2.25,3.668
	s-2.08,1.918-3.396,2.609c-1.315,0.689-2.713,1.119-4.192,1.285v-2.688c1.493-0.217,2.849-0.756,4.067-1.621
	c1.219-0.863,2.179-1.965,2.88-3.301c0.702-1.338,1.053-2.777,1.053-4.318c0-1.264-0.247-2.473-0.74-3.625s-1.156-2.146-1.99-2.979
	c-0.833-0.834-1.826-1.498-2.979-1.99c-1.153-0.494-2.361-0.74-3.625-0.74c-1.153,0-2.263,0.207-3.328,0.619
	c-1.066,0.414-2.004,0.975-2.813,1.682c-0.809,0.709-1.486,1.557-2.03,2.543c-0.545,0.986-0.897,2.039-1.058,3.156h-2.771
	c-1.473,0-2.729,0.521-3.771,1.562c-1.042,1.043-1.562,2.299-1.562,3.771c0,0.805,0.157,1.551,0.474,2.24
	c0.316,0.688,0.731,1.252,1.245,1.693c0.514,0.439,1.085,0.783,1.714,1.029c0.629,0.248,1.263,0.371,1.901,0.371h5.333v2.666h-5.333
	c-1.451,0-2.79-0.357-4.017-1.072c-1.226-0.715-2.196-1.686-2.911-2.91c-0.714-1.227-1.072-2.564-1.072-4.018
	c-0.001-1.451,0.356-2.789,1.072-4.016c0.717-1.225,1.687-2.195,2.911-2.91s2.563-1.074,4.017-1.074h0.688
	c0.549-1.549,1.375-2.924,2.479-4.129c1.104-1.205,2.425-2.15,3.964-2.84c1.538-0.688,3.162-1.031,4.87-1.031L172.399,48.025z
	 M169.732,58.691c0.368,0,0.684,0.131,0.947,0.396l4,4c0.257,0.256,0.386,0.568,0.386,0.938c0,0.381-0.127,0.699-0.38,0.953
	c-0.254,0.254-0.571,0.379-0.953,0.379c-0.376,0-0.691-0.127-0.948-0.385l-1.719-1.729v8.781c0,0.367-0.131,0.682-0.392,0.943
	c-0.261,0.26-0.574,0.391-0.942,0.391s-0.683-0.131-0.943-0.391c-0.261-0.262-0.391-0.576-0.391-0.943v-8.781l-1.72,1.729
	c-0.256,0.258-0.572,0.385-0.947,0.385c-0.368,0-0.683-0.129-0.943-0.391c-0.261-0.26-0.391-0.574-0.391-0.943
	c0-0.354,0.128-0.666,0.385-0.938l4-4c0.264-0.264,0.58-0.396,0.948-0.396L169.732,58.691z"/>
<path fill="#FFFFFF" d="M42.102,34.282c1.087,0,2.124,0.211,3.11,0.633c0.987,0.423,1.837,0.991,2.551,1.704
	c0.714,0.715,1.282,1.565,1.705,2.552c0.422,0.986,0.633,2.022,0.633,3.11c0,1.086-0.211,2.124-0.633,3.11
	c-0.423,0.987-0.991,1.837-1.705,2.55c-0.714,0.715-1.564,1.283-2.551,1.705c-0.986,0.423-2.023,0.634-3.11,0.634
	s-2.124-0.211-3.11-0.634c-0.987-0.422-1.837-0.99-2.551-1.705c-0.714-0.713-1.282-1.563-1.705-2.55
	c-0.422-0.986-0.633-2.024-0.633-3.11c0-1.088,0.211-2.124,0.633-3.11c0.423-0.987,0.991-1.837,1.705-2.552
	c0.714-0.713,1.564-1.281,2.551-1.704C39.978,34.493,41.014,34.282,42.102,34.282z M42.102,35.736c-0.886,0-1.734,0.174-2.542,0.52
	c-0.809,0.348-1.505,0.812-2.088,1.396c-0.584,0.583-1.049,1.278-1.396,2.087c-0.346,0.81-0.519,1.657-0.519,2.543
	c-0.001,0.886,0.173,1.733,0.519,2.542c0.347,0.808,0.812,1.505,1.396,2.088c0.583,0.583,1.278,1.048,2.088,1.394
	c0.808,0.347,1.656,0.52,2.542,0.52s1.733-0.173,2.542-0.52c0.81-0.346,1.505-0.811,2.088-1.394c0.584-0.583,1.048-1.28,1.396-2.088
	c0.346-0.809,0.52-1.656,0.519-2.542c0-0.886-0.174-1.733-0.519-2.543c-0.346-0.809-0.812-1.504-1.396-2.087
	c-0.583-0.583-1.279-1.048-2.088-1.396C43.836,35.91,42.988,35.736,42.102,35.736z M44.551,40.094c0.2,0,0.372,0.071,0.514,0.213
	c0.142,0.143,0.213,0.314,0.213,0.515c0,0.202-0.073,0.373-0.216,0.518l-3.085,3.085c-0.14,0.139-0.31,0.209-0.511,0.209
	c-0.205,0-0.377-0.07-0.517-0.209l-1.545-1.541c-0.14-0.14-0.21-0.312-0.21-0.517c0-0.202,0.071-0.373,0.213-0.515
	c0.143-0.143,0.314-0.213,0.515-0.213s0.373,0.071,0.517,0.216l1.029,1.028l2.567-2.574C44.178,40.165,44.35,40.094,44.551,40.094
	L44.551,40.094z"/>
<path fill="#FFFFFF" d="M42.102,56.3c1.087,0,2.124,0.211,3.11,0.633c0.987,0.423,1.837,0.991,2.551,1.704
	c0.714,0.715,1.282,1.565,1.705,2.552c0.422,0.986,0.633,2.022,0.633,3.11c0,1.086-0.211,2.124-0.633,3.11
	c-0.423,0.987-0.991,1.837-1.705,2.55c-0.714,0.715-1.564,1.283-2.551,1.705c-0.986,0.423-2.023,0.634-3.11,0.634
	s-2.124-0.211-3.11-0.634c-0.987-0.422-1.837-0.99-2.551-1.705c-0.714-0.713-1.282-1.563-1.705-2.55
	c-0.422-0.986-0.633-2.024-0.633-3.11c0-1.088,0.211-2.124,0.633-3.11c0.423-0.987,0.991-1.837,1.705-2.552
	c0.714-0.713,1.564-1.281,2.551-1.704C39.978,56.511,41.014,56.3,42.102,56.3z M42.102,57.754c-0.886,0-1.734,0.174-2.542,0.52
	c-0.809,0.348-1.505,0.812-2.088,1.396c-0.584,0.583-1.049,1.278-1.396,2.087c-0.346,0.81-0.519,1.657-0.519,2.543
	c-0.001,0.886,0.173,1.733,0.519,2.542c0.347,0.808,0.812,1.505,1.396,2.088c0.583,0.583,1.278,1.048,2.088,1.394
	c0.808,0.347,1.656,0.52,2.542,0.52s1.733-0.173,2.542-0.52c0.81-0.346,1.505-0.811,2.088-1.394c0.584-0.583,1.048-1.28,1.396-2.088
	c0.346-0.809,0.52-1.656,0.519-2.542c0-0.886-0.174-1.733-0.519-2.543c-0.346-0.809-0.812-1.504-1.396-2.087
	c-0.583-0.583-1.279-1.048-2.088-1.396C43.836,57.928,42.988,57.754,42.102,57.754z M44.551,62.112c0.2,0,0.372,0.071,0.514,0.213
	c0.142,0.143,0.213,0.314,0.213,0.515c0,0.202-0.073,0.373-0.216,0.518l-3.085,3.085c-0.14,0.139-0.31,0.209-0.511,0.209
	c-0.205,0-0.377-0.07-0.517-0.209l-1.545-1.541c-0.14-0.14-0.21-0.312-0.21-0.517c0-0.202,0.071-0.373,0.213-0.515
	c0.143-0.143,0.314-0.213,0.515-0.213s0.373,0.071,0.517,0.216l1.029,1.028l2.567-2.574C44.178,62.183,44.35,62.112,44.551,62.112
	L44.551,62.112z"/>
<path fill="#FFFFFF" d="M42.102,78.318c1.087,0,2.124,0.211,3.11,0.633c0.987,0.423,1.837,0.991,2.551,1.704
	c0.714,0.715,1.282,1.565,1.705,2.552c0.422,0.986,0.633,2.022,0.633,3.11c0,1.086-0.211,2.124-0.633,3.11
	c-0.423,0.987-0.991,1.837-1.705,2.55c-0.714,0.715-1.564,1.283-2.551,1.705c-0.986,0.423-2.023,0.634-3.11,0.634
	s-2.124-0.211-3.11-0.634c-0.987-0.422-1.837-0.99-2.551-1.705c-0.714-0.713-1.282-1.563-1.705-2.55
	c-0.422-0.986-0.633-2.024-0.633-3.11c0-1.088,0.211-2.124,0.633-3.11c0.423-0.987,0.991-1.837,1.705-2.552
	c0.714-0.713,1.564-1.281,2.551-1.704C39.978,78.529,41.014,78.318,42.102,78.318z M42.102,79.772c-0.886,0-1.734,0.174-2.542,0.52
	c-0.809,0.348-1.505,0.812-2.088,1.396c-0.584,0.583-1.049,1.278-1.396,2.087c-0.346,0.81-0.519,1.657-0.519,2.543
	c-0.001,0.886,0.173,1.733,0.519,2.542c0.347,0.808,0.812,1.505,1.396,2.088c0.583,0.583,1.278,1.048,2.088,1.394
	c0.808,0.347,1.656,0.52,2.542,0.52s1.733-0.173,2.542-0.52c0.81-0.346,1.505-0.811,2.088-1.394c0.584-0.583,1.048-1.28,1.396-2.088
	c0.346-0.809,0.52-1.656,0.519-2.542c0-0.886-0.174-1.733-0.519-2.543c-0.346-0.809-0.812-1.504-1.396-2.087
	c-0.583-0.583-1.279-1.048-2.088-1.396C43.836,79.946,42.988,79.772,42.102,79.772z M44.551,84.13c0.2,0,0.372,0.071,0.514,0.213
	c0.142,0.143,0.213,0.314,0.213,0.515c0,0.202-0.073,0.373-0.216,0.518l-3.085,3.085c-0.14,0.139-0.31,0.209-0.511,0.209
	c-0.205,0-0.377-0.07-0.517-0.209l-1.545-1.541c-0.14-0.14-0.21-0.312-0.21-0.517c0-0.202,0.071-0.373,0.213-0.515
	c0.143-0.143,0.314-0.213,0.515-0.213s0.373,0.071,0.517,0.216l1.029,1.028l2.567-2.574C44.178,84.201,44.35,84.13,44.551,84.13
	L44.551,84.13z"/>
<line fill="none" stroke="#FFFFFF" stroke-width="5" stroke-miterlimit="10" x1="56.62" y1="42.244" x2="104.953" y2="42.244"/>
<line fill="none" stroke="#FFFFFF" stroke-width="5" stroke-miterlimit="10" x1="56.62" y1="64.578" x2="104.953" y2="64.578"/>
<line fill="none" stroke="#FFFFFF" stroke-width="5" stroke-miterlimit="10" x1="56.62" y1="87.578" x2="104.953" y2="87.578"/>
</svg>
