<?xml version="1.0" encoding="iso-8859-1"?>
<!-- Generator: Adobe Illustrator 19.1.0, SVG Export Plug-In . SVG Version: 6.00 Build 0)  -->
<svg version="1.1" id="Layer_1" xmlns="http://www.w3.org/2000/svg" xmlns:xlink="http://www.w3.org/1999/xlink" x="0px" y="0px"
	 viewBox="-411 288.28 19 19" style="enable-background:new -411 288.28 19 19;" xml:space="preserve">
<path style="fill:#955BA5;" d="M-402.814,303.771c-0.116,0-0.232-0.033-0.332-0.1c-0.167-0.111-0.268-0.299-0.268-0.499v-5.06
	l-4.53-5.337c-0.151-0.176-0.185-0.426-0.087-0.638c0.098-0.212,0.311-0.348,0.544-0.348h11.973c0.233,0,0.446,0.136,0.544,0.348
	c0.098,0.212,0.064,0.462-0.087,0.639l-4.531,5.336v3.954c0,0.24-0.145,0.458-0.366,0.552l-2.627,1.106
	C-402.655,303.756-402.734,303.771-402.814,303.771z M-406.191,292.987l3.835,4.518c0.092,0.108,0.143,0.246,0.143,0.388v4.377
	l1.428-0.602v-3.775c0-0.142,0.051-0.279,0.143-0.388l3.835-4.518H-406.191z"/>
</svg>
