<?xml version="1.0" encoding="iso-8859-1"?>
<!-- Generator: Adobe Illustrator 19.1.0, SVG Export Plug-In . SVG Version: 6.00 Build 0)  -->
<svg version="1.1" id="Layer_1" xmlns="http://www.w3.org/2000/svg" xmlns:xlink="http://www.w3.org/1999/xlink" x="0px" y="0px"
	 viewBox="-412 289.28 16 17" style="enable-background:new -412 289.28 16 17;" xml:space="preserve">
<path style="fill:#945BA4;" d="M-398.08,302.249l-3-3c0.488-0.756,0.776-1.654,0.776-2.619c0-2.673-2.174-4.846-4.846-4.846
	s-4.846,2.173-4.846,4.845s2.174,4.846,4.846,4.846c0.965,0,1.863-0.287,2.619-0.775l3,3c0.1,0.101,0.264,0.101,0.363,0l1.088-1.088
	C-397.978,302.513-397.978,302.349-398.08,302.249 M-408.457,296.629c0-1.823,1.484-3.306,3.307-3.306
	c1.824,0,3.307,1.483,3.307,3.306c0,1.824-1.482,3.307-3.307,3.307C-406.973,299.936-408.457,298.453-408.457,296.629"/>
</svg>
