<?xml version="1.0" encoding="iso-8859-1"?>
<!-- Generator: Adobe Illustrator 19.1.0, SVG Export Plug-In . SVG Version: 6.00 Build 0)  -->
<svg version="1.1" xmlns="http://www.w3.org/2000/svg" xmlns:xlink="http://www.w3.org/1999/xlink" x="0px" y="0px"
	 viewBox="0 0 65.291 57.749" style="enable-background:new 0 0 65.291 57.749;" xml:space="preserve">
<g id="Layer_1">
	<g>
		<g>
			<g>
				<path style="fill:white;" d="M37.873,24.535c2.824,0,5.122,2.302,5.122,5.127c0,2.826-2.298,5.126-5.122,5.126
					c-2.825,0-5.126-2.299-5.126-5.126C32.748,26.837,35.048,24.535,37.873,24.535z M37.873,32.981c1.827,0,3.315-1.488,3.315-3.319
					c0-1.828-1.488-3.318-3.315-3.318c-1.831,0-3.317,1.489-3.317,3.318C34.556,31.492,36.043,32.981,37.873,32.981z"/>
			</g>
			<path style="fill:#894b9d;" d="M37.873,53.496c13.16,0,23.832-10.669,23.832-23.835c0-13.164-10.671-23.834-23.832-23.834
				c-13.162,0-23.836,10.669-23.836,23.834C14.038,42.827,24.711,53.496,37.873,53.496z M37.873,9.661
				c11.047,0,20.002,8.951,20.002,20c0,11.047-8.954,20.006-20.002,20.006c-11.051,0-20.005-8.959-20.005-20.006
				C17.868,18.613,26.822,9.661,37.873,9.661z"/>
			<g>
				<path style="fill:#894b9d;" d="M54.019,12.847v1.332c-8.534,0-15.481,6.945-15.481,15.482h-1.333
					C37.205,20.392,44.748,12.847,54.019,12.847z"/>
			</g>
			<g>
				<path style="fill:#894b9d;" d="M37.269,28.559h1.333c0,1.126,7.505,3.322,21.267,3.322v1.336
					C52.051,33.217,37.269,32.244,37.269,28.559z"/>
			</g>
			<g>
				<path style="fill:white;" d="M37.205,29.662h1.333c0,14.748,12,26.753,26.753,26.753v1.334
					C49.804,57.749,37.205,45.149,37.205,29.662z"/>
			</g>
			<g>
				<path style="fill:#894b9d;" d="M37.205,29.662h1.333c0,8.996-7.314,16.31-16.31,16.31V44.64
					C30.485,44.64,37.205,37.918,37.205,29.662z"/>
			</g>
			<g>
				<path style="fill:#894b9d;" d="M0,22.33c19.152,0,38.538,2.519,38.538,7.331h-1.333c0-2.503-14.155-5.997-37.205-5.997V22.33z"
					/>
			</g>
			<g>
				<path style="fill:white;" d="M11.254,0c14.39,0,26.094,11.703,26.094,26.091h-1.335c0-13.651-11.105-24.757-24.759-24.757V0z"
					/>
			</g>
		</g>
	</g>
</g>
<g id="Upload-1">
</g>
<g id="Upload-2" style="display:none;">
</g>
</svg>
