<?xml version="1.0" encoding="iso-8859-1"?>
<!-- Generator: Adobe Illustrator 19.1.0, SVG Export Plug-In . SVG Version: 6.00 Build 0)  -->
<svg version="1.1" xmlns="http://www.w3.org/2000/svg" xmlns:xlink="http://www.w3.org/1999/xlink" x="0px" y="0px"
	 viewBox="0 0 60 60" style="enable-background:new 0 0 60 60;" xml:space="preserve">
<g id="Layer_1">
	<g>
		<g>
			<path style="fill:#894B9D;" d="M39.234,43.635H28.075l-7.89-7.891V24.585l7.89-7.89h11.159l7.891,7.89v11.159L39.234,43.635z
				 M28.634,42.287h10.042l7.102-7.102V25.144l-7.102-7.101H28.634l-7.101,7.101v10.042L28.634,42.287z"/>
		</g>
		<g>
			<path style="fill:#2C3E50;" d="M41.249,48.498H26.06L15.322,37.759V22.57L26.06,11.832h15.188L51.988,22.57v15.188L41.249,48.498
				z M27.58,44.832h12.149l8.593-8.593V24.09l-8.593-8.592H27.58l-8.592,8.592v12.149L27.58,44.832z"/>
		</g>
		<g>
			<path style="fill:#894B9D;" d="M45.964,18.029v0.994c-6.374,0-11.563,5.188-11.563,11.564h-0.996
				C33.406,23.665,39.04,18.029,45.964,18.029z"/>
		</g>
		<g>
			<path style="fill:#894B9D;" d="M33.453,29.764h0.996c0,0.841,5.606,2.482,15.885,2.482v0.997
				C44.495,33.244,33.453,32.517,33.453,29.764z"/>
		</g>
		<g>
			<path style="fill:#2C3E50;" d="M33.406,30.588h0.996c0,11.016,8.963,19.982,19.982,19.982v0.997
				C42.817,51.568,33.406,42.157,33.406,30.588z"/>
		</g>
		<g>
			<path style="fill:#894B9D;" d="M33.406,30.588h0.996c0,6.719-5.463,12.183-12.183,12.183v-0.994
				C28.387,41.776,33.406,36.756,33.406,30.588z"/>
		</g>
		<g>
			<path style="fill:#894B9D;" d="M5.616,25.113c14.305,0,28.785,1.882,28.785,5.475h-0.996c0-1.87-10.573-4.479-27.79-4.479V25.113
				z"/>
		</g>
		<g>
			<path style="fill:#2C3E50;" d="M14.022,8.432c10.748,0,19.491,8.741,19.491,19.489h-0.997c0-10.197-8.295-18.492-18.493-18.492
				V8.432z"/>
		</g>
		<g>
			<path style="fill:#2C3E50;" d="M33.657,26.336c2.109,0,3.826,1.718,3.826,3.829s-1.717,3.829-3.826,3.829
				c-2.11,0-3.828-1.718-3.828-3.829S31.546,26.336,33.657,26.336z M33.657,32.644c1.364,0,2.476-1.112,2.476-2.479
				c0-1.366-1.112-2.479-2.476-2.479c-1.367,0-2.478,1.113-2.478,2.479C31.179,31.532,32.289,32.644,33.657,32.644z"/>
		</g>
	</g>
</g>
<g id="Upload-1">
</g>
<g id="Upload-2" style="display:none;">
</g>
</svg>
