<?xml version="1.0" encoding="iso-8859-1"?>
<!-- Generator: Adobe Illustrator 19.1.0, SVG Export Plug-In . SVG Version: 6.00 Build 0)  -->
<svg version="1.1" xmlns="http://www.w3.org/2000/svg" xmlns:xlink="http://www.w3.org/1999/xlink" x="0px" y="0px"
	 viewBox="0 0 60 60" style="enable-background:new 0 0 60 60;" xml:space="preserve">
<g id="Layer_1">
	<g>
		<g>
			<path style="fill:#BDC3C7;" d="M35.564,48.606H23.251l-9.964-7.238L9.482,29.655l3.805-11.712l9.964-7.238h12.313l9.964,7.238
				l3.805,11.712l-3.805,11.713L35.564,48.606z M25.524,41.606h7.767l6.282-4.564l2.4-7.387l-2.4-7.386l-6.282-4.564h-7.767
				l-6.282,4.564l-2.4,7.386l2.4,7.387L25.524,41.606z"/>
		</g>
		<g>
			<path style="fill:#894B9D;" d="M30.148,47.805l-0.703-0.703c4.507-4.507,4.507-11.845-0.001-16.353l0.704-0.704
				C35.043,34.94,35.044,42.909,30.148,47.805z"/>
		</g>
		<g>
			<path style="fill:#894B9D;" d="M30.697,30.661l-0.704,0.704c-0.595-0.595-5.719,2.209-12.987,9.477L16.3,40.137
				C20.429,36.008,28.75,28.714,30.697,30.661z"/>
		</g>
		<g>
			<path style="fill:#2C3E50;" d="M30.148,30.045l-0.704,0.704c-7.789-7.789-20.468-7.792-28.259,0l-0.705-0.705
				C8.659,21.864,21.968,21.864,30.148,30.045z"/>
		</g>
		<g>
			<path style="fill:#894B9D;" d="M30.148,30.045l-0.704,0.704c-4.751-4.751-4.751-12.478,0-17.229l0.703,0.703
				C25.786,18.584,25.787,25.684,30.148,30.045z"/>
		</g>
		<g>
			<path style="fill:#894B9D;" d="M53.67,14.266C43.555,24.381,31.985,33.29,29.444,30.749l0.704-0.704
				c1.322,1.322,10.644-4.309,22.818-16.483L53.67,14.266z"/>
		</g>
		<g>
			<path style="fill:#2C3E50;" d="M59.521,32.005c-7.6,7.6-19.962,7.601-27.563,0.001l0.705-0.705
				c7.21,7.21,18.941,7.21,26.152-0.001L59.521,32.005z"/>
		</g>
		<g>
			<path style="fill:#2C3E50;" d="M32.308,32.763c-1.491,1.491-3.92,1.49-5.412-0.002c-1.492-1.492-1.493-3.921-0.002-5.412
				c1.492-1.492,3.922-1.492,5.414,0C33.8,28.841,33.8,31.271,32.308,32.763z M27.848,28.303c-0.965,0.965-0.965,2.537,0.002,3.504
				c0.966,0.966,2.539,0.967,3.504,0.002c0.967-0.967,0.965-2.539-0.001-3.505C30.386,27.337,28.815,27.336,27.848,28.303z"/>
		</g>
		<g>
			<path style="fill:#2C3E50;" d="M35.852,49.295H23.349l-10.114-7.35L9.371,30.055l3.864-11.891l10.114-7.35h12.503l10.116,7.35
				l3.863,11.891l-3.863,11.891L35.852,49.295z M24.441,45.938h10.321l8.351-6.066l3.189-9.816l-3.189-9.816l-8.351-6.066H24.441
				l-8.351,6.066l-3.19,9.816l3.19,9.816L24.441,45.938z"/>
		</g>
	</g>
</g>
<g id="Upload-1">
</g>
<g id="Upload-2" style="display:none;">
</g>
</svg>
