<?xml version="1.0" encoding="iso-8859-1"?>
<!-- Generator: Adobe Illustrator 19.1.0, SVG Export Plug-In . SVG Version: 6.00 Build 0)  -->
<svg version="1.1" xmlns="http://www.w3.org/2000/svg" xmlns:xlink="http://www.w3.org/1999/xlink" x="0px" y="0px"
	 viewBox="0 0 60 60" style="enable-background:new 0 0 60 60;" xml:space="preserve">
<g id="Layer_1">
	<g>
		<g>
			<path style="fill:#2C3E50;" d="M39.145,34.105H22.779v-9.43h16.365V34.105z M23.779,33.105h14.365v-7.43H23.779V33.105z"/>
		</g>
		<g>
			<path style="fill:#2C3E50;" d="M48.38,48.38H11.62V11.62h36.76V48.38z M13.62,46.38h32.76V13.62H13.62V46.38z"/>
		</g>
		<g>
			
				<rect x="36.462" y="19.283" transform="matrix(0.5311 0.8473 -0.8473 0.5311 39.674 -18.9551)" style="fill:#2C3E50;" width="1" height="14.166"/>
		</g>
		<g>
			<path style="fill:#894B9D;" d="M41.712,41.896c-6.203,0-11.25-5.278-11.25-11.766h1c0,5.937,4.598,10.766,10.25,10.766V41.896z"
				/>
		</g>
		<g>
			<path style="fill:#35495E;" d="M18.712,41.896v-1c6.653,0,12.065-5.126,12.065-11.427h1
				C31.777,36.321,25.916,41.896,18.712,41.896z"/>
		</g>
		<g>
			<path style="fill:#894B9D;" d="M31.462,30.694h-1c0-6.05,2.306-10.788,5.25-10.788v1C33.408,20.906,31.462,25.389,31.462,30.694z
				"/>
		</g>
		<g>
			<path style="fill:#894B9D;" d="M18.712,33.302v-1c5.052,0,11.713-2.051,12.072-2.889l0.993,0.044
				C31.777,31.482,22.903,33.302,18.712,33.302z"/>
		</g>
		<g>
			<path style="fill:#35495E;" d="M31.462,30.26h-1c0-6.14-5.271-11.135-11.75-11.135v-1C25.742,18.125,31.462,23.568,31.462,30.26z
				"/>
		</g>
	</g>
</g>
<g id="Upload-1">
</g>
<g id="Upload-2" style="display:none;">
</g>
</svg>
