<?xml version="1.0" encoding="utf-8"?>
<!-- Generator: Adobe Illustrator 15.0.2, SVG Export Plug-In  -->
<!DOCTYPE svg PUBLIC "-//W3C//DTD SVG 1.1//EN" "http://www.w3.org/Graphics/SVG/1.1/DTD/svg11.dtd" [
	<!ENTITY ns_flows "http://ns.adobe.com/Flows/1.0/">
]>
<svg version="1.1"
	 xmlns="http://www.w3.org/2000/svg" xmlns:xlink="http://www.w3.org/1999/xlink" xmlns:a="http://ns.adobe.com/AdobeSVGViewerExtensions/3.0/"
	 x="0px" y="0px" width="37px" height="33px" viewBox="-3.074 -2.109 37 33"
	 overflow="visible" enable-background="new -3.074 -2.109 37 33" xml:space="preserve">
<defs>
</defs>
<path fill="#BDC3C7" d="M26.512,6.306v0.653c-4.188,0-7.598,3.409-7.598,7.599H18.26C18.26,10.009,21.962,6.306,26.512,6.306z"/>
<path fill="#BDC3C7" d="M18.291,14.017h0.654c0,0.553,3.684,1.631,10.438,1.631v0.655C25.546,16.303,18.291,15.825,18.291,14.017z"
	/>
<path fill="#BDC3C7" d="M18.26,14.558h0.654c0,7.238,5.89,13.13,13.13,13.13v0.655C24.443,28.343,18.26,22.159,18.26,14.558z"/>
<path fill="#BDC3C7" d="M18.26,14.558h0.654c0,4.415-3.59,8.005-8.005,8.005v-0.653C14.962,21.909,18.26,18.61,18.26,14.558z"/>
<path fill="#BDC3C7" d="M0,10.96c9.399,0,18.914,1.236,18.914,3.598H18.26c0-1.229-6.947-2.943-18.26-2.943V10.96z"/>
<path fill="#BDC3C7" d="M5.523,0C12.586,0,18.33,5.743,18.33,12.806h-0.655c0-6.7-5.45-12.15-12.151-12.15V0z"/>
<path fill="#BDC3C7" d="M18.546,12.084c1.386,0,2.514,1.129,2.514,2.516s-1.128,2.516-2.514,2.516c-1.387,0-2.516-1.129-2.516-2.516
	S17.16,12.084,18.546,12.084z M18.546,16.229c0.896,0,1.627-0.73,1.627-1.629c0-0.897-0.73-1.629-1.627-1.629
	c-0.898,0-1.628,0.731-1.628,1.629C16.918,15.498,17.648,16.229,18.546,16.229z"/>
<path fill="#E64C3C" d="M18.31,26.215c6.459,0,11.696-5.236,11.696-11.697S24.769,2.82,18.31,2.82
	c-6.46,0-11.698,5.236-11.698,11.697S11.85,26.215,18.31,26.215z M18.31,4.701c5.422,0,9.816,4.394,9.816,9.816
	c0,5.422-4.395,9.818-9.816,9.818c-5.424,0-9.818-4.396-9.818-9.818C8.492,9.095,12.886,4.701,18.31,4.701z"/>
<rect x="17.593" y="4.542" transform="matrix(0.7071 0.7071 -0.7071 0.7071 16.0935 -8.7368)" fill="#E64C3C" width="2" height="21.033"/>
</svg>
