<?xml version="1.0" encoding="utf-8"?>
<!-- Generator: Adobe Illustrator 15.0.2, SVG Export Plug-In  -->
<!DOCTYPE svg PUBLIC "-//W3C//DTD SVG 1.1//EN" "http://www.w3.org/Graphics/SVG/1.1/DTD/svg11.dtd" [
	<!ENTITY ns_flows "http://ns.adobe.com/Flows/1.0/">
]>
<svg version="1.1"
	 xmlns="http://www.w3.org/2000/svg" xmlns:xlink="http://www.w3.org/1999/xlink" xmlns:a="http://ns.adobe.com/AdobeSVGViewerExtensions/3.0/"
	 x="0px" y="0px" width="131px" height="40px" viewBox="-5.962 -5.403 131 40"
	 overflow="visible" enable-background="new -5.962 -5.403 131 40" xml:space="preserve">
<defs>
</defs>
<path fill="#894B9D" d="M47.681,21.105v-5.51h-7.048v5.51h-2.241V7.808h2.241v5.774h7.048V7.808h2.242v13.298H47.681z"/>
<path fill="#894B9D" d="M55.662,9.821v3.59h6.497v2.014h-6.497v3.667h7.485v2.014H53.42V7.808h9.498v2.014H55.662z"/>
<path fill="#894B9D" d="M71.184,7.808c3.344,0,5.263,1.652,5.263,4.54c0,3.001-1.919,4.749-5.263,4.749h-3.059v4.009h-2.241V7.808
	H71.184z M68.125,15.083h2.964c2.052,0,3.21-0.874,3.21-2.679c0-1.747-1.158-2.583-3.21-2.583h-2.964V15.083z"/>
<path fill="#2C3E50" d="M84.313,7.808c3.876,0,6.839,2.868,6.839,6.648s-2.982,6.649-6.896,6.649h-5.319V7.808H84.313z
	 M80.457,19.661h3.876c2.963,0,5.281-2.223,5.281-5.186c0-2.983-2.355-5.206-5.339-5.206h-3.818V19.661z"/>
<path fill="#2C3E50" d="M99.931,19.566c-0.798,1.083-2.07,1.615-3.666,1.615c-2.071,0-3.4-1.33-3.4-3.059
	c0-1.748,1.387-2.85,3.742-2.869h3.286v-0.589c0-1.463-0.911-2.337-2.679-2.337c-1.102,0-2.127,0.418-3.172,1.141l-0.627-1.083
	c1.292-0.855,2.374-1.349,4.084-1.349c2.47,0,3.838,1.311,3.856,3.457l0.02,6.611h-1.444V19.566z M99.913,17.647v-1.196h-3.116
	c-1.671,0-2.545,0.513-2.545,1.614c0,1.103,0.893,1.824,2.299,1.824C98.241,19.89,99.533,19.034,99.913,17.647z"/>
<path fill="#2C3E50" d="M109.849,20.421c-0.702,0.476-1.463,0.741-2.261,0.761c-1.463,0-2.545-0.874-2.545-2.85v-5.719h-1.444
	v-1.196h1.444V8.776h1.463v2.641l3.172-0.02v1.216h-3.172v5.452c0,1.216,0.475,1.672,1.329,1.672c0.513,0,1.045-0.171,1.596-0.513
	L109.849,20.421z"/>
<path fill="#2C3E50" d="M118.304,19.566c-0.798,1.083-2.07,1.615-3.666,1.615c-2.071,0-3.4-1.33-3.4-3.059
	c0-1.748,1.387-2.85,3.742-2.869h3.286v-0.589c0-1.463-0.911-2.337-2.679-2.337c-1.102,0-2.127,0.418-3.172,1.141l-0.627-1.083
	c1.292-0.855,2.374-1.349,4.084-1.349c2.47,0,3.838,1.311,3.856,3.457l0.02,6.611h-1.444V19.566z M118.286,17.647v-1.196h-3.116
	c-1.671,0-2.545,0.513-2.545,1.614c0,1.103,0.893,1.824,2.299,1.824C116.614,19.89,117.906,19.034,118.286,17.647z"/>
<path fill="#894B9D" d="M18.546,26.297c6.459,0,11.696-5.236,11.696-11.697S25.005,2.902,18.546,2.902
	c-6.46,0-11.698,5.236-11.698,11.697S12.086,26.297,18.546,26.297z M18.546,4.783c5.422,0,9.816,4.394,9.816,9.816
	c0,5.422-4.395,9.818-9.816,9.818c-5.424,0-9.818-4.396-9.818-9.818C8.728,9.177,13.123,4.783,18.546,4.783z"/>
<path fill="#894B9D" d="M26.512,6.306v0.653c-4.188,0-7.598,3.409-7.598,7.599H18.26C18.26,10.009,21.962,6.306,26.512,6.306z"/>
<path fill="#894B9D" d="M18.291,14.017h0.654c0,0.553,3.684,1.631,10.438,1.631v0.655C25.546,16.303,18.291,15.825,18.291,14.017z"
	/>
<path fill="#2C3E50" d="M18.26,14.558h0.654c0,7.238,5.89,13.13,13.13,13.13v0.655C24.443,28.343,18.26,22.159,18.26,14.558z"/>
<path fill="#894B9D" d="M18.26,14.558h0.654c0,4.415-3.59,8.005-8.005,8.005v-0.653C14.962,21.909,18.26,18.61,18.26,14.558z"/>
<path fill="#894B9D" d="M0,10.96c9.399,0,18.914,1.236,18.914,3.598H18.26c0-1.229-6.947-2.943-18.26-2.943V10.96z"/>
<path fill="#2C3E50" d="M5.523,0C12.586,0,18.33,5.743,18.33,12.806h-0.655c0-6.7-5.45-12.15-12.151-12.15V0z"/>
<path fill="#2C3E50" d="M18.546,12.084c1.386,0,2.514,1.129,2.514,2.516s-1.128,2.516-2.514,2.516c-1.387,0-2.516-1.129-2.516-2.516
	S17.16,12.084,18.546,12.084z M18.546,16.229c0.896,0,1.627-0.73,1.627-1.629c0-0.897-0.73-1.629-1.627-1.629
	c-0.898,0-1.628,0.731-1.628,1.629C16.918,15.498,17.648,16.229,18.546,16.229z"/>
</svg>
