<?xml version="1.0" encoding="utf-8"?>
<!-- Generator: Adobe Illustrator 15.0.2, SVG Export Plug-In  -->
<!DOCTYPE svg PUBLIC "-//W3C//DTD SVG 1.1//EN" "http://www.w3.org/Graphics/SVG/1.1/DTD/svg11.dtd" [
	<!ENTITY ns_flows "http://ns.adobe.com/Flows/1.0/">
]>
<svg version="1.1"
	 xmlns="http://www.w3.org/2000/svg" xmlns:xlink="http://www.w3.org/1999/xlink" xmlns:a="http://ns.adobe.com/AdobeSVGViewerExtensions/3.0/"
	 x="0px" y="0px" width="20px" height="20px" viewBox="-2 -2 20 20" overflow="visible" enable-background="new -2 -2 20 20"
	 xml:space="preserve">
<defs>
</defs>
<path fill="#894B9D" d="M15.999,8c0,4.418-3.582,8-8,8c-4.418,0-8-3.582-8-8s3.582-8,8-8C12.417,0,15.999,3.582,15.999,8"/>
<path fill="#FFFFFF" d="M9.078,4.586c0.438,0,0.856,0.085,1.257,0.257c0.398,0.171,0.742,0.401,1.031,0.689
	c0.288,0.288,0.518,0.632,0.688,1.031s0.257,0.818,0.257,1.256c0,0.409-0.074,0.801-0.223,1.176
	c-0.149,0.377-0.351,0.706-0.606,0.989c-0.256,0.282-0.561,0.517-0.915,0.704c-0.354,0.186-0.731,0.301-1.13,0.346V10.31
	c0.402-0.059,0.768-0.204,1.096-0.437c0.328-0.233,0.587-0.53,0.776-0.89c0.189-0.36,0.283-0.749,0.283-1.164
	c0-0.34-0.066-0.667-0.199-0.977c-0.133-0.311-0.312-0.579-0.536-0.803c-0.225-0.225-0.492-0.403-0.803-0.537
	S9.417,5.305,9.077,5.305c-0.311,0-0.609,0.055-0.896,0.167C7.893,5.583,7.64,5.734,7.422,5.924c-0.218,0.191-0.4,0.42-0.547,0.685
	C6.728,6.875,6.633,7.159,6.59,7.46H5.843c-0.396,0-0.735,0.141-1.017,0.421c-0.28,0.281-0.421,0.62-0.421,1.017
	c0,0.216,0.043,0.417,0.128,0.604C4.619,9.687,4.731,9.839,4.87,9.958c0.138,0.118,0.292,0.211,0.462,0.277
	c0.169,0.067,0.34,0.1,0.512,0.1h1.438v0.718H5.843c-0.391,0-0.752-0.096-1.082-0.289c-0.33-0.192-0.592-0.454-0.785-0.784
	C3.785,9.649,3.688,9.29,3.688,8.898C3.687,8.506,3.784,8.146,3.976,7.815c0.194-0.33,0.455-0.592,0.785-0.784
	c0.33-0.193,0.69-0.289,1.082-0.289h0.186c0.148-0.417,0.37-0.788,0.668-1.113C6.995,5.305,7.35,5.05,7.765,4.864
	C8.179,4.679,8.617,4.586,9.078,4.586L9.078,4.586z M8.359,7.461c0.1,0,0.185,0.035,0.256,0.106l1.077,1.078
	c0.069,0.069,0.104,0.153,0.104,0.253c0,0.103-0.034,0.188-0.103,0.256S9.54,9.257,9.437,9.257c-0.102,0-0.187-0.034-0.256-0.104
	L8.718,8.688v2.366c0,0.099-0.035,0.184-0.105,0.254c-0.07,0.07-0.154,0.105-0.254,0.105s-0.184-0.035-0.254-0.105
	C8.035,11.238,8,11.153,8,11.054V8.688L7.536,9.153C7.467,9.223,7.381,9.257,7.281,9.257c-0.1,0-0.184-0.035-0.254-0.105
	c-0.07-0.07-0.105-0.155-0.105-0.254c0-0.096,0.034-0.18,0.104-0.253l1.078-1.078C8.173,7.496,8.259,7.46,8.359,7.461L8.359,7.461z"
	/>
</svg>
