<?xml version="1.0" encoding="utf-8"?>
<!-- Generator: Adobe Illustrator 15.0.2, SVG Export Plug-In  -->
<!DOCTYPE svg PUBLIC "-//W3C//DTD SVG 1.1//EN" "http://www.w3.org/Graphics/SVG/1.1/DTD/svg11.dtd" [
	<!ENTITY ns_flows "http://ns.adobe.com/Flows/1.0/">
]>
<svg version="1.1"
	 xmlns="http://www.w3.org/2000/svg" xmlns:xlink="http://www.w3.org/1999/xlink" xmlns:a="http://ns.adobe.com/AdobeSVGViewerExtensions/3.0/"
	 x="0px" y="0px" width="200px" height="200px" viewBox="-14.965 -15.917 200 200"
	 overflow="visible" enable-background="new -14.965 -15.917 200 200" xml:space="preserve">
<defs>
</defs>
<path fill="#FFFFFF" d="M35.578,69.726c-0.85,0.645-3.805,2.484-8.252,2.484c-8.049,0-13.531-5.071-13.531-12.804
	c0-7.688,5.814-12.804,13.719-12.804c3.076,0,6.598,0.947,8.562,1.791c-0.412,0.91-0.748,2.11-0.893,2.861l-0.213,0.071
	c-1.521-1.683-3.965-3.141-7.582-3.141c-4.59,0-9.873,3.716-9.873,11.128c0,7.217,5.383,11.053,10.195,11.053
	c4.324,0,6.395-2.018,8.252-3.587l0.143,0.143L35.578,69.726z"/>
<path fill="#FFFFFF" d="M55.512,70.441c0-0.542,0.047-1.101,0.084-1.372c-2.439,0.224-9.141,0.427-11.754,0.465
	c-0.045-0.653-0.102-8.392-0.035-9.588c1.043,0,6.566,0.072,9.033,0.322c-0.07-0.358-0.107-0.888-0.107-1.246
	c0-0.358,0.037-0.999,0.107-1.356c-2.109,0.179-4.812,0.358-9.033,0.358c0-0.895,0.07-7.417,0.107-8.956
	c4.648,0,8.857,0.289,11.213,0.465c-0.037-0.244-0.084-0.746-0.084-1.233c0-0.487,0.031-0.884,0.084-1.221
	c-1.238,0.083-5.242,0.179-7.387,0.179c-2.146,0-5.459-0.072-7.604-0.179c0.143,3.04,0.285,6.151,0.285,9.227v6.151
	c0,3.076-0.143,6.188-0.285,9.299c2.182-0.107,5.529-0.179,7.711-0.179c0.102,0,0.209,0,0.316,0c0.748,0.002,1.695,0.014,2.67,0.03
	c1.691,0.031,3.477,0.083,4.762,0.148v0l0,0C55.543,71.382,55.512,70.984,55.512,70.441z"/>
<path fill="#FFFFFF" d="M63.521,59.65v2.843c0,3.076,0.143,6.187,0.285,9.263c-0.607-0.107-1.707-0.119-1.934-0.119
	c-0.225,0-1.324,0.011-1.932,0.119c0.143-3.076,0.285-6.188,0.285-9.263v-6.152c0-3.075-0.143-6.187-0.285-9.263
	c1.357,0.107,3.078,0.179,4.438,0.179s2.719-0.179,4.078-0.179c4.041,0,7.744,1.194,7.744,5.694c0,4.763-4.746,6.474-7.463,6.832
	c1.752,2.181,8.031,9.827,10.105,12.152c-0.717-0.107-1.914-0.119-2.242-0.119c-0.326,0-1.561,0.011-2.24,0.119
	c-1.414-2.155-5.941-8.941-9.02-12.107C65.25,59.65,63.521,59.65,63.521,59.65z M65.918,58.341c2.953-0.061,6.83-0.999,6.83-5.079
	c0-3.556-3.111-4.686-5.543-4.686c-1.645,0-2.719,0.107-3.469,0.179c-0.107,2.611-0.215,5.011-0.215,7.586c0,0,0,1.708,0,1.967
	C63.877,58.357,65.553,58.349,65.918,58.341z"/>
<path fill="#FFFFFF" d="M103.932,47.067c-0.418,0.073-0.934,0.131-1.568,0.131c-0.625,0-1.16-0.066-1.523-0.131
	c0.156,2.93,0.426,8.352,0.426,11.907c0,2.675,0,5.011-0.037,6.333c-1.299-1.384-16.223-16.828-17.74-18.475l-1.17-0.012
	c0.053,2.275,0.119,4.745,0.119,9.251c0,5.768-0.082,11.904-0.375,15.686c0.418-0.073,0.934-0.131,1.566-0.131
	c0.625,0,1.162,0.066,1.525,0.131c-0.158-2.93-0.428-8.352-0.428-11.906c0-2.675,0.002-5.428,0.037-6.751
	c1.301,1.384,16.311,17.038,17.74,18.98l1.172,0.012c-0.053-2.275-0.119-4.832-0.119-9.338
	C103.557,56.985,103.639,50.848,103.932,47.067z"/>
<path fill="#FFFFFF" d="M38.832,111.497c-7.027-11.122-9.027-21.856-9.309-30.074c-1.082,0-2.164,0-3.248,0
	c0.271,8.963,2.445,18.363,7.311,27.574C34.732,109.923,37.426,111.1,38.832,111.497z"/>
<path fill="#FFFFFF" d="M170.076,0.626c0,0-80.818-0.641-106.588-0.626c-4.033,0.002-6.74,0.286-7.615,0.343
	C24.043,2.404,0.105,30.315,0,60.753c-0.031,8.849,2.328,18.822,6.152,32.282c5.055,17.785,10.977,38.185,10.977,38.185h3.23
	L8.424,90.959l0.09-0.06c8.768,16.935,28.979,30.541,51.912,30.541c12.375,0,23.854-3.465,32.896-9.845l0.078,0.074l-53.092,56.495
	h4.146c0,0,37.279-39.663,49.961-53.13c9.719-10.318,14.766-16.967,16.879-20.416c2.424-3.958,10.121-15.365,9.832-32.166
	l0.105-0.009l23.264,105.719h3.34c0,0-19.52-86.531-23.309-104.629c-3.727-17.809-8.131-28.854-12.883-35.154
	c-1.633-0.91-4.178-1.945-5.379-2.225c6.896,8.703,12.049,21.649,12.049,34.604c0,31.712-25.799,57.512-57.512,57.512
	S3.291,92.472,3.291,60.759c0-31.712,25.893-57.512,57.529-57.512c14.062,0,27.098,5.157,37.117,13.652
	c1.936,0.266,4.531,0.871,6.082,1.431l0.012-0.032C96.832,11.118,87.842,5.782,77.842,2.977c0-0.078,0-0.083,0-0.083l92.236,0.575
	L170.076,0.626z"/>
<path fill="#FFFFFF" d="M46.898,121.729c-2.057-0.304-4.625-1.032-6.17-1.694c6.924,7.88,16.449,14.185,25.803,17.722l2.453-2.604
	C58.84,131.725,51.467,126.219,46.898,121.729"/>
<path fill="#FFFFFF" d="M131.51,117.125c-10.266,12.567-26.205,21.03-44.518,21.02c-3.932-0.003-7.744-0.442-10.926-1.089
	l-2.627,2.79c5.027,1.16,9.48,1.598,13.74,1.598c18.836,0,34.949-8.79,45.205-20.361L131.51,117.125"/>
<path fill="#FFFFFF" d="M152.902,15.049l-5.539,57.199h-0.105c-0.785-10.796-6.168-23.693-12.814-31.844
	c-11.539-14.15-28.471-22.694-47.488-22.694c-18.135,0-34.293,8.047-45.408,20.66l2.547,2.018
	C54.594,28.512,69.639,20.9,86.953,20.9c21.08,0,38.252,10.804,47.857,25.491c8.57,13.105,11.414,29.899,9.426,42.204
	c-0.67,4.155-2.178,12.238-7.715,21.392l0.969,4.258c6.793-10.527,10.238-19.896,12.928-43.848
	c2.062-18.375,5.605-55.351,5.605-55.351L152.902,15.049z"/>
</svg>
