<?xml version="1.0" encoding="utf-8"?>
<!-- Generator: Adobe Illustrator 19.1.0, SVG Export Plug-In . SVG Version: 6.00 Build 0)  -->
<svg version="1.1" id="Layer_1" xmlns="http://www.w3.org/2000/svg" xmlns:xlink="http://www.w3.org/1999/xlink" x="0px" y="0px"
	 viewBox="-206 198.3 428 200" style="enable-background:new -206 198.3 428 200;" xml:space="preserve">
<style type="text/css">
	.st0{fill:#955BA5;}
	.st1{fill:#FFFFFF;}
</style>
<path id="path158_1_" class="st0" d="M66.3,338.8c0-0.3,0-0.1,0-0.4c0-5.6-0.4-10.9-0.8-14.5c-5.3,0-10.4,0.6-14.1,1.4
	c-1.5,0.3-2,1.4-2.2,2.3c-0.4,2.2-0.9,6.3-0.9,10.7c0,0.5,0,0.4,0,0.9c0.9-0.9,9.3-9,9.3-9L66.3,338.8"/>
<path id="path160_1_" class="st0" d="M65.8,341.3c-0.3,0-0.5,0.2-0.5,0.5c0,0.3-0.1,0.6-0.1,0.6h0c0,0,0,0,0,0
	c-4.5,0-10.2-0.1-16.8-1l9.2-8.9l8.7,8.7L65.8,341.3"/>
<path id="path162_1_" class="st0" d="M70.6,342.4c1.1,0,10.4-0.1,16.6-1c0.4-3.4,0.1-10-0.7-13.9c-0.2-0.9-0.7-1.9-2.2-2.3
	c-3.8-0.9-8.8-1.4-14.1-1.4c-0.5,3.8-0.9,9.1-0.9,15.1l0,2.3v0l0.6,0.1c0.3,0,0.5,0.3,0.5,0.5C70.6,342.1,70.6,342.5,70.6,342.4
	L70.6,342.4"/>
<path id="path164_1_" class="st0" d="M66.3,346.8l-0.6-0.1c-0.3,0-0.5-0.3-0.5-0.5c0-0.3-0.1-0.6-0.1-0.6l0,0c0,0,0,0,0,0
	c-4.5,0-9.6,0-16.1,0.9c0.9,5.1,6.7,16.6,16.1,21.5c0.5-3.8,1.2-13.1,1.2-19.1L66.3,346.8L66.3,346.8L66.3,346.8L66.3,346.8"/>
<path id="path166_1_" class="st0" d="M70.6,345.6C70.6,345.6,70.5,345.6,70.6,345.6c4.5,0,9.6,0,16.2,0.9
	c-0.9,5.1-6.7,16.6-16.1,21.5c-0.5-3.8-1.2-13.1-1.2-19.1l0-2.2l0,0l0.5-0.1c0.3,0,0.5-0.3,0.5-0.5
	C70.5,345.9,70.6,345.6,70.6,345.6L70.6,345.6"/>
<path id="path168_1_" class="st1" d="M56.8,335.8c0.3,0,0.7-0.3,0.7-0.3l0-0.1c-0.1,0-0.3,0.2-0.5,0.2c-0.2,0-0.2-0.2-0.2-0.3
	c-0.1,0.1-0.2,0.2-0.2,0.3C56.5,335.7,56.6,335.8,56.8,335.8L56.8,335.8z M57.9,335c-0.1,0-0.1,0.1-0.2,0.1c0,0,0-0.1,0-0.2
	c0,0,0.3,0,0.3,0C57.9,334.9,57.9,334.9,57.9,335z M59.4,337.2c0.1-0.2,0.4-0.1,0.4-0.4c0-0.3-0.4-0.4-0.5-0.7c0,0,0,0,0,0.1
	c0,0.3,0.2,0.4,0.2,0.6c0,0.1-0.1,0.3-0.2,0.4c0,0,0.1-0.1,0.1-0.2c0-0.1,0-0.1-0.2-0.1c-0.1,0-0.2,0.2-0.4,0.2
	c0.1,0.1,0.3,0,0.3,0.2c0,0.2-0.3,0.4-0.3,0.7c0,0.5,0.4,0.7,0.4,1c0,0.2-0.1,0.3-0.3,0.3c-0.2,0-0.3-0.1-0.3-0.3
	c0-0.1,0-0.3-0.2-0.5c-0.1-0.2-0.3-0.5-0.3-0.9c0-0.3,0-0.4,0.1-0.5c0,0,0.1,0.1,0.2,0.1c0-0.2,0-0.4,0.1-0.5c0,0.1,0.1,0.1,0.2,0.1
	c0-0.1,0.1-0.3,0-0.5c0.1,0,0.2,0.1,0.3,0.1c-0.1-0.1-0.1-0.5-0.4-0.7c0.1,0,0.2,0,0.3,0c-0.1-0.2-0.2-0.3-0.3-0.3
	c0.1,0,0.2-0.2,0.2-0.3c0,0-0.2,0.1-0.3,0c0.1,0,0.2-0.2,0.2-0.3c0,0-0.2,0.1-0.3,0.1c0-0.1,0-0.3-0.1-0.3c0.1,0.1-0.1,0.3-0.3,0.3
	c-0.1,0-0.2,0-0.2,0c-0.1,0-0.1,0-0.2,0.1c0,0.1-0.1,0.1-0.2,0.1c-0.1,0-0.2,0-0.2,0.1c-0.1,0-0.1,0.1-0.1,0.2c0,0,0,0,0,0
	c0,0.1,0,0.1,0,0.1c0,0,0,0.1,0,0.1c0-0.1,0-0.1,0.1-0.1c0.1,0,0.1,0,0.1,0c0.1,0,0.1,0,0.2,0.1c0,0.2-0.1,0.3-0.1,0.3
	c0,0-0.1,0-0.1,0c0,0-0.1,0-0.1,0.1c0,0.1,0,0.1,0,0.2c0.2-0.1,0.4-0.2,0.5-0.2c-0.1,0.2-0.1,0.4-0.4,0.4c-0.1,0-0.1,0-0.2,0
	c0.1,0.1,0,0.1,0.1,0.2c-0.1,0-0.2,0-0.3,0c0.1,0.1,0.1,0.2,0.1,0.2c-0.1,0-0.2-0.1-0.4-0.1c-0.1,0-0.3-0.1-0.4-0.1
	c-0.3-0.2-0.1-0.3-0.1-0.4c0-0.1-0.1-0.1-0.1-0.2c-0.1-0.1-0.1-0.1-0.3-0.1c0.1,0,0.1,0,0.1,0.1c0,0,0,0.1,0,0.2c0,0,0,0,0,0
	c0,0-0.1-0.1-0.2,0c0,0-0.1,0-0.2,0.1c0.1,0,0.1,0,0.2,0c0,0.1,0.1,0.1,0.2,0.2c0,0,0,0,0,0c0,0-0.1,0-0.1,0.1c0,0-0.2,0.1-0.2,0.2
	c0.1-0.1,0.1-0.1,0.2-0.1c0,0.1,0.1,0.1,0.2,0.1c0,0,0.1,0,0.1,0c0.2,0,0.2,0.1,0.2,0.1c0,0.1,0,0.2-0.1,0.2c0.2,0,0.3,0,0.4,0
	c-0.1,0.1,0,0.2-0.1,0.3c0.2,0,0.4-0.2,0.6-0.2c0.1,0,0.1,0,0.2,0c0,0.3-0.5,0.6-0.9,0.6c-0.2,0-0.3,0-0.3-0.1
	c0-0.1-0.1-0.2-0.2-0.1c-0.1,0-0.2,0-0.3,0.1c0.1,0,0.1-0.1,0.2,0c0,0.1,0,0.1,0.1,0.2c0,0,0,0,0,0c-0.1,0-0.2,0-0.2,0.1
	c-0.1,0-0.1,0.1-0.1,0.2c0.1-0.1,0.1-0.1,0.2-0.1c0,0.1,0.1,0.1,0.2,0l0,0c0,0-0.1,0.1,0,0.2c0,0-0.1,0.1,0,0.3
	c0-0.1,0.1-0.2,0.1-0.2c0.1,0,0.2-0.1,0.2-0.1c0-0.1,0.1-0.1,0.2-0.1c0.2,0,0.2,0.1,0.3,0.3c0-0.1,0.1-0.3,0.2-0.3
	c0.1,0,0.1,0,0.1,0.1c0.1-0.1,0.2-0.3,0.3-0.3c0,0.1,0.1,0.2,0.2,0.3c0.2,0.1,0.4,0.1,0.6,0.4c0,0,0,0.1-0.2,0.1
	c-0.1,0-0.2-0.2-0.7-0.2c-0.2,0-0.4,0.2-0.4,0.4c0,0.1,0.2,0.4,0.2,0.5c0,0.1-0.1,0.2-0.2,0.2c-0.2,0-0.3,0-0.4-0.2
	c0,0-0.1-0.1-0.1-0.1c0,0-0.1,0-0.1,0.1c-0.1,0-0.2,0-0.2,0.2c0,0,0.1-0.1,0.2,0c0,0.1,0.1,0.1,0.1,0.1c0,0,0,0,0,0c0,0,0,0,0,0
	c-0.1,0-0.2,0-0.2,0.1c0,0-0.1,0.1-0.1,0.2c0-0.1,0.1-0.1,0.1-0.1c0.1,0.1,0.2,0.1,0.3,0c0,0,0,0,0,0c-0.1,0-0.1,0.1,0,0.2
	c0,0-0.1,0.1,0,0.2c0-0.1,0.1-0.1,0.1-0.2c0,0,0,0,0.1,0c0.1,0,0.1-0.1,0.2-0.1c0.2-0.2,0.4,0,0.4,0.1c0.1-0.1,0.1-0.1,0.1-0.2
	c0.1-0.1,0.2,0,0.3,0c0-0.1,0-0.1-0.1-0.2c0-0.1-0.1-0.1-0.1-0.2c0-0.1,0.1-0.2,0.2-0.2c0.2,0,0.2,0.1,0.3,0.1c0.1,0,0,0,0.1,0
	c-0.1,0.1-0.2,0.2-0.2,0.5c0,0.1,0.2,0.4,0.3,0.5c0.1,0.1,0.1,0.2,0,0.3c0,0,0,0,0,0.1c0,0-0.1,0.1-0.2,0.1c-0.1,0-0.2,0-0.3-0.1
	c-0.1-0.1-0.2-0.1-0.3,0.1c-0.1,0-0.1,0.1-0.1,0.2c0,0,0.1-0.1,0.2-0.1c0,0,0.1,0.1,0.1,0.1c0,0,0,0,0,0c-0.1,0-0.1,0.1-0.1,0.2
	c0,0-0.1,0.1-0.1,0.3c0-0.1,0.1-0.1,0.1-0.2c0.1,0,0.2,0,0.2,0l0,0c0,0.1,0,0.1,0,0.2c0,0.1,0,0.2,0.1,0.2c0-0.1,0-0.1,0.1-0.2
	c0.1,0,0.2-0.1,0.2-0.2c0,0,0.2-0.2,0.2-0.2c0.1,0,0.1,0.1,0.2,0.1c0.1-0.1,0-0.2,0.1-0.2c0,0,0.1-0.1,0.3,0c0-0.1,0-0.2-0.2-0.3
	c0.1-0.1,0.2-0.1,0.3-0.1c-0.1-0.1-0.3-0.2-0.3-0.2c-0.1-0.1-0.1-0.2-0.1-0.2c0-0.3,0.5-0.3,0.5-0.7c0.1,0.1,0.2,0.1,0.3,0.1
	c0.2,0,0.4-0.2,0.4-0.5c0-0.1,0-0.1,0-0.2c0,0,0.1-0.1,0.1-0.3c0-0.1,0-0.2-0.1-0.3c0,0,0,0.1,0,0.1c0,0-0.1,0.1-0.1,0.2
	c0,0.1,0,0.1,0,0.2c0-0.1,0-0.1-0.1-0.1c-0.1-0.2,0.1-0.2,0.1-0.4c0-0.1,0-0.1-0.1-0.3c0,0.1,0,0.1,0,0.1c0,0-0.1,0.2-0.1,0.3
	c-0.2-0.5,0.1-0.8,0.3-0.8c0.1,0,0.1,0,0.1,0.1c0,0.1-0.1,0.2,0,0.3c0,0,0-0.1,0.1-0.1c0.1-0.1,0.3-0.2,0.3-0.3
	C59.8,337.2,59.6,337.1,59.4,337.2"/>
<path id="path170_1_" class="st1" d="M61,326.7c0.3,0,0.7-0.3,0.7-0.3l0-0.1c-0.1,0-0.4,0.2-0.5,0.2c-0.2,0-0.2-0.2-0.2-0.4
	c-0.1,0.2-0.2,0.2-0.2,0.4C60.8,326.6,60.9,326.7,61,326.7L61,326.7z M62.2,325.8c-0.1,0-0.2,0.1-0.2,0.1c0,0,0-0.1,0-0.2
	c0,0,0.3,0,0.4,0C62.3,325.8,62.3,325.8,62.2,325.8L62.2,325.8z M63.9,328.2c0.2-0.2,0.4-0.2,0.4-0.5c0-0.3-0.5-0.4-0.5-0.7
	c0,0,0,0,0,0.1c-0.1,0.3,0.2,0.5,0.2,0.6c0,0.1-0.1,0.3-0.2,0.4c0,0,0.1-0.2,0.1-0.2c0-0.1,0-0.1-0.2-0.2c-0.2,0-0.3,0.2-0.4,0.2
	c0.1,0.1,0.3,0,0.3,0.2c0,0.2-0.3,0.4-0.3,0.8c0,0.5,0.4,0.7,0.4,1.1c0,0.2-0.1,0.3-0.3,0.3c-0.2,0-0.3-0.1-0.3-0.3
	c0-0.1-0.1-0.3-0.2-0.5c-0.1-0.2-0.3-0.6-0.3-1c0-0.3,0-0.4,0.1-0.5c0,0,0.1,0.1,0.2,0.1c0-0.2,0-0.4,0.1-0.5c0,0.1,0.1,0.1,0.2,0.2
	c0-0.1,0.1-0.3,0-0.6c0.1,0,0.2,0.1,0.3,0.1c-0.1-0.1-0.2-0.5-0.4-0.8c0.1,0,0.2,0,0.3,0c-0.1-0.2-0.2-0.3-0.4-0.4
	c0.1,0,0.2-0.2,0.2-0.3c-0.1,0-0.2,0.1-0.3,0c0.1,0,0.2-0.2,0.2-0.3c0,0-0.2,0.1-0.3,0.1c0-0.1,0-0.3-0.1-0.3
	c0.1,0.2-0.1,0.3-0.3,0.3c-0.1,0-0.2,0-0.2,0c-0.1,0-0.1,0-0.2,0.1c0,0.1-0.1,0.1-0.2,0.2c-0.1,0-0.2,0-0.2,0.1
	c-0.1,0-0.1,0.1-0.1,0.2c0,0,0,0,0,0c0,0.1,0,0.1,0,0.1c0,0,0,0.1,0,0.1c0-0.1,0-0.1,0.1-0.1c0.1,0,0.1,0,0.1,0c0.1,0,0.1,0,0.2,0.1
	c0.1,0.2-0.1,0.3-0.1,0.3c0,0-0.1,0-0.1,0c0,0-0.1,0-0.1,0.1c0,0.1,0,0.1,0,0.2c0.2-0.1,0.4-0.2,0.5-0.2c-0.1,0.2-0.1,0.4-0.4,0.4
	c-0.1,0-0.2,0-0.2,0c0.1,0.1,0.1,0.1,0.1,0.2c-0.1,0-0.2-0.1-0.3-0.1c0.1,0.1,0.1,0.2,0.1,0.3c-0.1,0-0.2-0.1-0.4-0.1
	c-0.1,0-0.3-0.1-0.4-0.1c-0.3-0.2-0.2-0.3-0.2-0.4c0-0.1-0.1-0.1-0.2-0.2c-0.1-0.1-0.1-0.1-0.3-0.1c0.1,0,0.1,0,0.1,0.1
	c0,0,0,0.1,0,0.2c0,0,0,0,0,0c0,0-0.1-0.1-0.2,0c0,0-0.1,0-0.3,0.1c0.1,0,0.2,0,0.2,0c0,0.1,0.1,0.2,0.2,0.2c0,0,0,0,0,0
	c0,0-0.1,0-0.1,0.1c0,0-0.2,0.1-0.2,0.2c0.1-0.1,0.1-0.1,0.2-0.1c0,0.1,0.2,0.1,0.2,0.1c0,0,0.1,0,0.1,0c0.2,0,0.2,0.1,0.2,0.2
	c0,0-0.1,0.2-0.1,0.2c0.2,0,0.3-0.1,0.4,0c-0.1,0.1,0,0.2-0.1,0.3c0.2,0,0.5-0.3,0.7-0.3c0.1,0,0.1,0,0.2,0c0,0.3-0.6,0.6-1,0.6
	c-0.2,0-0.3,0-0.4-0.1c0-0.1-0.1-0.2-0.2-0.1c-0.1,0-0.2,0-0.3,0.1c0.1,0,0.1-0.1,0.2,0c0,0.1,0,0.1,0.1,0.2c0,0,0,0,0,0
	c-0.1,0-0.2,0-0.2,0.1c-0.1,0-0.1,0.1-0.2,0.2c0.1-0.1,0.1-0.1,0.2-0.1c0,0.1,0.1,0.1,0.2,0l0,0c0,0-0.1,0.1,0,0.2
	c0,0-0.1,0.1,0,0.3c0-0.1,0.1-0.2,0.1-0.2c0.1,0,0.2-0.1,0.2-0.1c0-0.1,0.1-0.1,0.2-0.1c0.2,0,0.2,0.1,0.3,0.3
	c0.1-0.1,0.1-0.3,0.2-0.3c0.1,0,0.1,0,0.1,0.1c0.1-0.1,0.2-0.3,0.3-0.3c0,0.1,0.1,0.3,0.2,0.3c0.2,0.2,0.4,0.1,0.6,0.4
	c0,0,0,0.1-0.2,0.1c-0.1,0-0.2-0.2-0.7-0.2c-0.2,0-0.4,0.3-0.4,0.4c0,0.1,0.2,0.4,0.2,0.5c0,0.1-0.1,0.2-0.2,0.2
	c-0.2,0-0.4,0-0.4-0.2c0-0.1-0.1-0.1-0.1-0.1c0,0-0.1,0-0.2,0.1c-0.1,0-0.2,0-0.2,0.2c0,0,0.1-0.1,0.2,0c0,0.1,0.1,0.1,0.1,0.2
	c0,0,0,0,0,0c0,0,0,0,0,0c-0.1,0-0.2,0-0.2,0.1c-0.1,0-0.1,0.2-0.1,0.3c0.1-0.1,0.1-0.1,0.1-0.2c0.1,0.1,0.2,0.1,0.3,0c0,0,0,0,0,0
	c-0.1,0-0.1,0.1-0.1,0.2c0,0-0.1,0.1,0,0.2c0-0.1,0.1-0.1,0.1-0.2c0,0,0,0,0.1,0c0.1,0,0.2-0.1,0.2-0.1c0.2-0.2,0.4,0,0.4,0.1
	c0.1-0.1,0.1-0.1,0.2-0.2c0.1-0.1,0.3-0.1,0.4,0c0-0.1,0-0.2-0.1-0.3c0-0.1-0.1-0.1-0.1-0.2c0-0.1,0.1-0.2,0.2-0.2
	c0.2,0,0.2,0.1,0.4,0.1c0.1,0,0.1,0,0.1,0c-0.1,0.1-0.2,0.3-0.2,0.5c0,0.2,0.2,0.4,0.3,0.5c0.1,0.1,0.1,0.2,0,0.3c0,0,0,0,0,0.1
	c0,0-0.1,0.1-0.2,0.1c-0.1,0-0.2-0.1-0.3-0.1c-0.1-0.1-0.2-0.1-0.3,0.1c-0.1,0-0.2,0.1-0.2,0.2c0,0,0.1-0.1,0.2-0.1
	c0,0,0.1,0.1,0.1,0.1c0,0,0,0,0,0c-0.1,0-0.1,0.1-0.1,0.2c0,0-0.1,0.1-0.1,0.3c0-0.1,0.1-0.2,0.1-0.2c0.1,0.1,0.2,0,0.2,0l0,0
	c0,0.1,0,0.1,0,0.2c0,0.1,0,0.2,0.1,0.2c0-0.1,0-0.1,0.1-0.2c0.1,0,0.2-0.1,0.2-0.2c0,0,0.2-0.2,0.3-0.2c0.1,0,0.1,0.1,0.2,0.1
	c0.1-0.1,0-0.2,0.1-0.2c0-0.1,0.1-0.1,0.3,0c0-0.1,0-0.3-0.2-0.4c0.1-0.1,0.2-0.1,0.3-0.1c-0.1-0.1-0.3-0.2-0.4-0.2
	c-0.1-0.1-0.1-0.2-0.1-0.2c0-0.3,0.5-0.3,0.5-0.7c0.1,0.1,0.2,0.1,0.4,0.1c0.2,0,0.4-0.2,0.5-0.5c0-0.1,0-0.1,0.1-0.2
	c0,0,0.1-0.1,0.1-0.3c0-0.1,0-0.2-0.1-0.3c0,0.1,0,0.1,0,0.1c0,0-0.1,0.1-0.1,0.2c0,0.1,0,0.1,0,0.2c0-0.1,0-0.1-0.1-0.1
	c-0.1-0.2,0.1-0.2,0.1-0.4c0-0.1,0-0.2-0.1-0.3c0,0.1,0,0.1-0.1,0.2c0,0-0.1,0.2-0.1,0.3c-0.2-0.5,0.1-0.8,0.3-0.8
	c0.1,0,0.2,0,0.2,0.1c0,0.1-0.1,0.2,0,0.3c0,0,0-0.1,0.1-0.1c0.1-0.1,0.3-0.2,0.3-0.3C64.2,328.2,64,328.1,63.9,328.2"/>
<path id="path172_1_" class="st1" d="M52.5,327.2c0.3,0,0.7-0.3,0.7-0.3l0-0.1c-0.1,0-0.3,0.2-0.5,0.2c-0.2,0-0.2-0.2-0.2-0.3
	c-0.1,0.1-0.2,0.2-0.2,0.4C52.3,327.1,52.3,327.2,52.5,327.2z M53.6,326.4c-0.1,0-0.1,0.1-0.2,0.1c0,0,0-0.1,0-0.2c0,0,0.3,0,0.3,0
	C53.7,326.4,53.7,326.4,53.6,326.4L53.6,326.4z M55.2,328.7c0.1-0.2,0.4-0.1,0.4-0.4c0-0.3-0.4-0.4-0.5-0.7c0,0,0,0,0,0.1
	c-0.1,0.3,0.1,0.4,0.1,0.6c0,0.1-0.1,0.3-0.2,0.4c0,0,0.1-0.1,0.1-0.2c0-0.1,0-0.1-0.2-0.1c-0.2,0-0.3,0.2-0.4,0.2
	c0.1,0.1,0.3,0,0.3,0.2c0,0.2-0.3,0.4-0.3,0.7c0,0.5,0.4,0.7,0.4,1c0,0.2-0.1,0.3-0.3,0.3c-0.2,0-0.3-0.1-0.3-0.3
	c0-0.1,0-0.3-0.2-0.5c-0.1-0.2-0.3-0.6-0.3-1c0-0.3,0.1-0.4,0.1-0.5c0,0,0.1,0.1,0.2,0.1c0-0.2,0-0.4,0.1-0.5c0,0.1,0.1,0.1,0.2,0.1
	c0-0.1,0.1-0.3,0-0.5c0.1,0,0.2,0.1,0.3,0.1c-0.1-0.1-0.1-0.5-0.4-0.7c0.1,0,0.2,0,0.3,0c-0.1-0.2-0.2-0.3-0.3-0.3
	c0.1,0,0.2-0.2,0.2-0.3c0,0-0.2,0.1-0.3,0c0.1,0,0.2-0.2,0.2-0.3c0,0-0.2,0.1-0.3,0.1c0-0.1,0-0.3-0.1-0.3c0.1,0.1-0.1,0.3-0.3,0.3
	c-0.1,0-0.2,0-0.2,0c-0.1,0-0.1,0-0.2,0.1c0,0.1-0.1,0.1-0.2,0.1c-0.1,0-0.2,0-0.2,0.1c-0.1,0-0.1,0.1-0.1,0.2c0,0,0,0,0,0
	c0,0.1,0,0.1,0,0.1c0,0,0,0.1,0,0.1c0-0.1,0-0.1,0.1-0.1c0.1,0,0.1,0,0.1,0c0.1,0,0.1,0,0.2,0.1c0,0.2-0.1,0.3-0.1,0.3
	c0,0-0.1,0-0.1,0c0,0-0.1,0-0.1,0.1c0,0.1,0,0.1,0,0.2c0.2-0.1,0.4-0.2,0.5-0.2c-0.1,0.2-0.1,0.4-0.4,0.4c-0.1,0-0.2,0-0.2,0
	c0.1,0.1,0.1,0.1,0.1,0.2c-0.1,0-0.2-0.1-0.3,0c0.1,0.1,0.1,0.2,0.1,0.3c-0.1,0-0.2-0.1-0.4-0.1c-0.1,0-0.3-0.1-0.4-0.1
	c-0.3-0.2-0.1-0.3-0.2-0.4c0-0.1-0.1-0.1-0.2-0.2c-0.1-0.1-0.1-0.1-0.3-0.1c0.1,0,0.1,0,0.1,0.1c0,0,0,0.1,0,0.2c0,0,0,0,0,0
	c0,0-0.1-0.1-0.2,0c0,0-0.1,0-0.2,0.1c0.1,0,0.1,0,0.2,0c0,0.1,0.1,0.2,0.2,0.2c0,0,0,0,0,0c0,0-0.1,0-0.1,0.1c0,0-0.2,0.1-0.2,0.2
	c0.1-0.1,0.1-0.1,0.2-0.1c0,0.1,0.1,0.1,0.2,0.1c0,0,0.1,0,0.1,0c0.2,0,0.2,0.1,0.2,0.2c0,0,0,0.2-0.1,0.2c0.2,0,0.3,0,0.4,0
	c-0.1,0.1,0,0.2-0.1,0.3c0.2,0,0.4-0.2,0.6-0.2c0.1,0,0.1,0,0.2,0c0,0.3-0.5,0.6-0.9,0.6c-0.2,0-0.3,0-0.4-0.1
	c0-0.1-0.1-0.2-0.2-0.1c-0.1,0-0.2,0-0.3,0.1c0.1,0,0.1-0.1,0.2,0c0,0.1,0,0.1,0.1,0.2c0,0,0,0,0,0c-0.1,0-0.2,0-0.2,0.1
	c-0.1,0-0.1,0.1-0.1,0.2c0.1-0.1,0.1-0.1,0.2-0.1c0,0.1,0.1,0.1,0.2,0l0,0c0,0-0.1,0.1,0,0.2c0,0-0.1,0.1,0,0.3
	c0-0.1,0.1-0.2,0.1-0.2c0.1,0,0.2-0.1,0.2-0.1c0-0.1,0.1-0.1,0.2-0.1c0.2,0,0.2,0.1,0.3,0.3c0.1-0.1,0.1-0.3,0.2-0.3
	c0.1,0,0.1,0,0.1,0.1c0.1-0.1,0.2-0.3,0.3-0.3c0,0.1,0.1,0.2,0.2,0.3c0.2,0.2,0.4,0.1,0.6,0.4c0,0,0,0.1-0.2,0.1
	c-0.1,0-0.2-0.2-0.7-0.2c-0.2,0-0.4,0.2-0.4,0.4c0,0.1,0.2,0.4,0.2,0.5c0,0.1-0.1,0.2-0.2,0.2c-0.2,0-0.3,0-0.4-0.2
	c0,0-0.1-0.1-0.1-0.1c0,0-0.1,0-0.1,0.1c-0.1,0-0.2,0-0.2,0.2c0,0,0.1-0.1,0.2,0c0,0.1,0.1,0.1,0.1,0.2c0,0,0,0,0,0c0,0,0,0,0,0
	c-0.1,0-0.2,0-0.2,0.1c0,0-0.1,0.1-0.1,0.3c0-0.1,0.1-0.1,0.1-0.1c0.1,0.1,0.2,0.1,0.3,0c0,0,0,0,0,0c-0.1,0-0.1,0.1-0.1,0.2
	c0,0-0.1,0.1,0,0.2c0-0.1,0.1-0.1,0.1-0.2c0,0,0,0,0.1,0c0.1,0,0.1-0.1,0.2-0.1c0.2-0.2,0.4,0,0.4,0.1c0.1-0.1,0.1-0.1,0.1-0.2
	c0.1-0.1,0.2-0.1,0.3,0c0-0.1,0-0.1-0.1-0.2c0-0.1-0.1-0.1-0.1-0.2c0-0.1,0.1-0.2,0.2-0.2c0.2,0,0.2,0.1,0.3,0.1c0.1,0,0.1,0,0.1,0
	c-0.1,0.1-0.2,0.3-0.2,0.5c0,0.2,0.2,0.4,0.3,0.5c0.1,0.1,0.1,0.2,0,0.3c0,0,0,0,0,0.1c0,0-0.1,0.1-0.2,0.1c-0.1,0-0.2,0-0.3-0.1
	c-0.1-0.1-0.2-0.1-0.3,0.1c-0.1,0-0.1,0.1-0.1,0.2c0,0,0.1-0.1,0.2-0.1c0,0,0.1,0.1,0.1,0.1c0,0,0,0,0,0c-0.1,0-0.1,0.1-0.1,0.2
	c0,0-0.1,0.1-0.1,0.3c0-0.1,0.1-0.1,0.1-0.2c0.1,0.1,0.2,0,0.2,0l0,0c0,0.1,0,0.1,0,0.2c0,0.1,0,0.2,0.1,0.2c0-0.1,0-0.1,0.1-0.2
	c0.1,0,0.2-0.1,0.2-0.2c0,0,0.2-0.2,0.2-0.2c0.1,0,0.1,0.1,0.2,0.1c0.1-0.1,0-0.2,0.1-0.2c0-0.1,0.1-0.1,0.3,0c0-0.1,0-0.2-0.2-0.3
	c0.1-0.1,0.2-0.1,0.3-0.1c-0.1-0.1-0.3-0.2-0.3-0.2c-0.1-0.1-0.1-0.2-0.1-0.2c0-0.3,0.5-0.3,0.5-0.7c0.1,0.1,0.2,0.1,0.3,0.1
	c0.2,0,0.4-0.2,0.5-0.5c0-0.1,0-0.1,0.1-0.2c0,0,0.1-0.1,0.1-0.3c0-0.1,0-0.2-0.1-0.3c0,0,0,0.1,0,0.1c0,0-0.1,0.1-0.1,0.2
	c0,0.1,0,0.1,0,0.2c0-0.1,0-0.1-0.1-0.1c-0.1-0.2,0.1-0.2,0.1-0.4c0-0.1,0-0.2-0.1-0.3c0,0.1,0,0.1-0.1,0.2c0,0-0.1,0.1-0.1,0.3
	c-0.2-0.5,0.1-0.8,0.3-0.8c0.1,0,0.1,0,0.1,0.1c0,0.1-0.1,0.2,0,0.3c0,0,0-0.1,0.1-0.1c0-0.1,0.3-0.2,0.3-0.3
	C55.5,328.7,55.4,328.6,55.2,328.7"/>
<path id="path174_1_" class="st1" d="M102.6,369.2c0.6,0,1.4,0,2.1-0.1v0.5c0,0-0.1,0-0.3,0c-1.4,0-1.4,0.9-1.4,2.1v5.7
	c0,0.6,0,1.2-0.1,1.6c-0.6,2.8-2.7,3.5-4.9,3.5c-2.9,0-4.7-1.5-5.2-3.5c-0.1-0.3-0.1-1-0.1-1.8v-5.8c0-1.3-0.3-1.7-1.9-1.8v-0.4
	c0.9,0.1,1.9,0.1,2.9,0.1c1,0,2,0,2.9-0.1v0.4c-0.1,0-0.2,0-0.3,0c-1.4,0-1.6,0.7-1.6,1.8v6.1c0,0.7,0,1.3,0.2,1.8
	c0.5,1.6,1.6,2.5,3.5,2.5c2.2,0,3.6-0.9,4-2.9c0.1-0.4,0.1-0.9,0.1-1.5v-5.7c0-1.6-0.1-2.1-1.7-2.1v-0.5
	C101.2,369.2,101.8,369.2,102.6,369.2"/>
<path id="path176_1_" class="st1" d="M111.1,373.4c1.7,0,2.8,0.9,2.8,2.5c0,0.1,0,0.2,0,0.5v4c0,0.1,0,0.2,0,0.3c0,0.8,0.4,1,1.4,1
	v0.4c-0.9-0.1-1.6-0.1-2.2-0.1c-0.6,0-1.3,0-2.2,0.1v-0.4c1,0,1.4-0.3,1.4-1c0,0,0-0.1,0-0.3v-4.4c0-1.4-0.6-2.1-1.8-2.1
	c-1.3,0-2.4,1.2-2.4,2.8v3.7c0,0.1,0,0.2,0,0.3c0,0.8,0.4,1,1.4,1v0.4c-0.9-0.1-1.6-0.1-2.2-0.1c-0.6,0-1.3,0-2.2,0.1v-0.4
	c1,0,1.4-0.3,1.4-1c0,0,0-0.1,0-0.3v-4.7c0-1.1-0.2-1.5-1.2-1.5c-0.1,0-0.1,0-0.2,0v-0.4c0.8,0,1.6-0.3,2.7-0.7
	c0.1,0.3,0.3,0.8,0.3,2C108.1,374.9,109,373.4,111.1,373.4"/>
<path id="path178_1_" class="st1" d="M119.6,380.5c0,0.1,0,0.2,0,0.3c0,0.7,0.4,1,1.3,1v0.4c-0.7-0.1-1.5-0.1-2.2-0.1
	c-0.7,0-1.4,0-2.1,0.1v-0.4c0.9,0,1.3-0.3,1.3-1c0,0,0-0.1,0-0.3v-4.4c0-0.2,0-0.3,0-0.5c0-1-0.1-1.3-1.1-1.3c-0.1,0-0.1,0-0.2,0
	v-0.4c0.9-0.1,1.8-0.3,2.9-0.7L119.6,380.5L119.6,380.5z M119.6,369.3c0,0.5-0.4,1-1,1c-0.6,0-1-0.4-1-1c0-0.6,0.4-1,1-1
	C119.1,368.3,119.6,368.7,119.6,369.3"/>
<path id="path180_1_" class="st1" d="M123.4,373.7c0.6,0,1.5,0,2.1-0.1v0.4c-0.7,0-1,0.1-1,0.5c0,0.2,0.1,0.7,0.4,1.5l1.8,4.2
	l0.9-2.2c0.7-1.7,1.1-2.8,1.1-3.3c0-0.4-0.3-0.7-1-0.7v-0.4c0.5,0,1.1,0.1,1.5,0.1c0.4,0,1.1,0,1.6-0.1v0.4c0,0-0.1,0-0.1,0
	c-1,0-1.3,0.7-1.9,2.1l-2.5,6.2h-0.4l-3.1-7.4c-0.3-0.6-0.5-0.9-1.5-0.9v-0.4C121.9,373.6,122.7,373.7,123.4,373.7"/>
<path id="path182_1_" class="st1" d="M133,376.8c0,0.4-0.1,0.7-0.1,1c0,2.3,1.3,3.9,3.1,3.9c1,0,1.7-0.4,2.5-1.3l0.3,0.4
	c-0.8,1.1-1.9,1.7-3.4,1.7c-2.7,0-4.4-1.9-4.4-4.4c0-2.5,1.8-4.7,4.5-4.7c2.1,0,3.6,1.4,3.6,3.3c0,0.1,0,0.1,0,0.2L133,376.8
	L133,376.8z M137.4,375.8c0-1.3-0.8-2-1.9-2c-1.2,0-2.2,0.9-2.4,2.5h4.2C137.4,376,137.4,375.8,137.4,375.8"/>
<path id="path184_1_" class="st1" d="M146,373.5c1,0,1.6,0.4,1.6,1c0,0.5-0.3,0.8-0.7,0.8c-0.9,0-0.4-1.1-1.5-1.1c-1.1,0-2,1-2,2.6
	v3.7c0,0.1,0,0.2,0,0.3c0,0.8,0.4,1,1.4,1v0.4c-0.9-0.1-1.6-0.1-2.3-0.1c-0.6,0-1.3,0-2.2,0.1v-0.4c1,0,1.4-0.3,1.4-1
	c0,0,0-0.1,0-0.3V376c0-1.3-0.3-1.7-1.4-1.7c-0.1,0-0.1,0-0.2,0v-0.4c0.9-0.1,1.8-0.3,2.8-0.7c0.2,0.6,0.3,1.8,0.3,2.1
	C143.7,374.4,144.7,373.5,146,373.5"/>
<path id="path186_1_" class="st1" d="M154.1,374.5l0,1.3h-0.4c-0.2-1.1-1-2-2.4-2c-0.9,0-1.5,0.5-1.5,1.2c0,1,0.7,1.1,1.9,1.7
	c0.6,0.3,1.1,0.5,1.5,0.8c0.8,0.5,1.3,1.1,1.3,2.1c0,1.7-1.2,2.8-3.2,2.8c-0.9,0-1.7-0.3-2.3-0.8l-0.3,0.5h-0.3c0-0.7,0-1.1,0-1.3
	c0-0.3,0-0.8,0-1.4h0.3c0.3,1.5,1.2,2.4,2.6,2.4c1.2,0,1.9-0.8,1.9-1.6c0-1-0.7-1.3-2.1-1.9c-1.6-0.8-2.6-1.3-2.6-2.7
	c0-1.3,1.3-2.3,2.7-2.3c1,0,1.5,0.2,2.1,0.5l0.4-0.5h0.3L154.1,374.5"/>
<path id="path188_1_" class="st1" d="M159.3,380.5c0,0.1,0,0.2,0,0.3c0,0.7,0.4,1,1.3,1v0.4c-0.7-0.1-1.4-0.1-2.1-0.1
	c-0.7,0-1.4,0-2.1,0.1v-0.4c0.9,0,1.3-0.3,1.3-1c0,0,0-0.1,0-0.3v-4.4c0-0.2,0-0.3,0-0.5c0-1-0.1-1.3-1.1-1.3c-0.1,0-0.1,0-0.2,0
	v-0.4c0.9-0.1,1.8-0.3,2.9-0.7L159.3,380.5L159.3,380.5z M159.3,369.3c0,0.5-0.4,1-1,1c-0.6,0-1-0.4-1-1c0-0.6,0.4-1,1-1
	C158.9,368.3,159.3,368.7,159.3,369.3"/>
<path id="path190_1_" class="st1" d="M164.6,371.5v2.1h2.2v0.6h-2.1v5.8c0,1.2,0.3,1.7,1.2,1.7c0.5,0,1-0.3,1.4-0.9l0.3,0.3
	c-0.5,0.8-1.3,1.2-2.2,1.2c-1.6,0-2.3-0.8-2.3-2.4v-5.7h-0.9v-0.3c0.9-0.5,1.6-1.3,2.2-2.4L164.6,371.5"/>
<path id="path192_1_" class="st1" d="M169.4,373.7c0.3,0,1.1,0,2.2-0.1v0.4c-0.8,0-1.1,0.1-1.1,0.6c0,0.1,0.1,0.3,0.1,0.5l1.9,5
	l1.8-4.5c0.1-0.3,0.2-0.7,0.2-1c0-0.5-0.3-0.7-1-0.7v-0.4c0.6,0,1,0.1,1.4,0.1c0.4,0,1,0,1.5-0.1v0.4c0,0,0,0-0.1,0
	c-0.9,0-1,0.4-1.4,1.4l-2.5,6c-1.8,4.3-2.5,6.2-3.4,6.2c-0.3,0-0.6-0.2-0.6-0.6c0-0.6,0.7-0.8,1.1-1.1c0.5-0.3,0.9-1.2,1.7-3
	l0.4-0.8l-2.8-6.7c-0.4-0.8-0.4-1.4-1.4-1.4v-0.4C168.3,373.6,168.9,373.7,169.4,373.7"/>
<path id="path194_1_" class="st1" d="M89.9,363.6c2.5-0.1,2.9-0.7,2.9-2.7v-13.4c0-2.1-0.4-2.7-2.9-2.7v-0.7c1.1,0,2.2,0.1,3.1,0.1
	c2.3,0,3.7-0.1,5.7-0.1c4.3,0,7.2,1.1,9.1,3.2c1.4,1.6,2.2,3.8,2.2,6.7c0,3.3-1,5.8-2.8,7.6c-1.8,1.9-4.5,2.9-8.3,2.9
	c-1.8,0-3.8-0.1-5.7-0.1c-1.1,0-2.2,0-3.3,0.1L89.9,363.6L89.9,363.6z M95.9,359.5c0,2.8,0.6,4.1,3.6,4.1c4.9,0,6.8-3.7,6.8-9.7
	c0-7-2.6-9.3-8-9.3c-1.8,0-2.4,0-2.4,1.7V359.5"/>
<path id="path196_1_" class="st1" d="M113.9,351c0.6,0,1.4,0,2.4-0.1v9.5c0,0,0,0,0,0.1c0,2,1,3.1,2.8,3.1c2,0,3.8-1.8,3.8-4.3v-5.7
	c0-0.3,0-0.5,0-0.5c0-0.9-0.6-1.4-1.9-1.4c-0.1,0-0.1,0-0.2,0V351c0.9,0,1.8,0.1,2.5,0.1c0.6,0,1.4,0,2.3-0.1v9.9c0,0,0,0,0,0.1
	c0,1.6,0.2,2.7,1.7,2.7c0.1,0,0.2,0,0.3,0v0.6c-1.5-0.1-2.6-0.1-4.5,0l-0.1-2.4c-1.2,1.9-2.8,2.7-4.9,2.7c-3.5,0-4.5-1.7-4.5-4.7
	v-6.3c0-0.3,0-0.5,0-0.5c0-0.9-0.6-1.4-1.9-1.4c-0.1,0-0.2,0-0.2,0V351C112.4,351,113.2,351,113.9,351"/>
<path id="path198_1_" class="st1" d="M137.9,350.9c1.5,0,2.4,0.8,2.4,1.7c0,0.8-0.5,1.1-1,1.1c-1.5,0-0.8-1.8-2.4-1.8
	c-1.5,0-3,1.4-3,4.1v5.7c0,0.2,0,0.4,0,0.4c0,1.2,0.6,1.5,2.2,1.6v0.6c-1.4-0.1-2.5-0.1-3.5-0.1c-0.9,0-2.1,0-3.5,0.1v-0.6
	c1.5,0,2.2-0.4,2.2-1.5c0,0,0-0.2,0-0.5v-6.9c0-2-0.5-2.7-2.1-2.7c-0.1,0-0.2,0-0.3,0v-0.6c1.4-0.2,2.8-0.4,4.3-0.9
	c0.4,0.9,0.5,2.6,0.5,3.2C134.1,352.5,135.6,350.9,137.9,350.9"/>
<path id="path200_1_" class="st1" d="M144.7,353.4c0.9-1.7,2.8-2.7,4.9-2.7c2.8,0,4.5,1.5,4.5,4c0,0.1,0,0.4,0,0.8v6.3
	c0,0.2,0,0.4,0,0.4c0,1.2,0.6,1.5,2.2,1.6v0.6c-1.4-0.1-2.5-0.1-3.5-0.1c-0.9,0-2.1,0-3.5,0.1v-0.6c1.5,0,2.2-0.4,2.2-1.5
	c0,0,0-0.2,0-0.5v-6.8c0-2.1-0.9-3.2-2.8-3.2c-2.1,0-3.8,1.8-3.8,4.3v5.7c0,0.2,0,0.4,0,0.4c0,1.2,0.6,1.5,2.2,1.6v0.6
	c-1.4-0.1-2.5-0.1-3.5-0.1c-0.9,0-2.1,0-3.5,0.1v-0.6c1.5,0,2.2-0.4,2.2-1.5c0,0,0-0.2,0-0.5v-15.9c0-1.3-0.6-1.8-2.2-1.8v-0.5
	c0.9-0.1,2.5-0.3,4.8-0.9V353.4"/>
<path id="path202_1_" class="st1" d="M165.5,362.6c-0.7,0.7-1.7,1.9-4.5,1.9c-2.3,0-3.8-1.2-3.8-3c0-2,1.6-3.2,4.9-4.5l1.6-0.6
	c1.4-0.5,1.8-0.5,1.8-1.6v-0.7c0-1.9-0.7-2.9-3-2.9c-2.3,0-2.4,1-2.5,1.9c-0.1,0.5-0.2,1.2-1.2,1.2c-0.6,0-1-0.5-1-1.1
	c0-1.3,1.7-2.5,5-2.5c3.5,0,5.2,1.1,5.2,3.5v7.7c0,1.2,0.4,1.7,1,1.7c0.4,0,0.8-0.2,1.1-0.6l0.4,0.4c-0.6,1-1.5,1.3-2.7,1.3
	C166.5,364.6,165.7,363.8,165.5,362.6z M160,361c0,1.4,0.8,2.5,2.1,2.5c2,0,3.4-1.3,3.4-2.8v-4.3C161.8,357.8,160,359.1,160,361"/>
<path id="path204_1_" class="st1" d="M189.3,350.7c3,0,4.4,1.6,4.4,4.4v6.6c0,0.2,0,0.3,0,0.4c0,1.2,0.6,1.5,2.2,1.6v0.6
	c-1.4-0.1-2.5-0.1-3.5-0.1c-0.9,0-2.1,0-3.5,0.1v-0.6c1.5,0,2.1-0.4,2.1-1.5c0,0,0-0.2,0-0.5v-7.1c0-1.9-0.9-3-2.6-3
	c-2.1,0-3.6,1.5-3.6,4.2v5.8c0,0.2,0,0.4,0,0.4c0,1.2,0.6,1.5,2.1,1.6v0.6c-1.3-0.1-2.4-0.1-3.4-0.1c-1.1,0-2.2,0.1-3.4,0.1v-0.6
	c1.4-0.1,2-0.4,2-1.5c0,0,0-0.2,0-0.5v-7.1c0-1.9-0.9-3-2.6-3c-2.1,0-3.6,1.7-3.6,4.4v5.7c0,0.2,0,0.4,0,0.4c0,1.2,0.6,1.5,2.2,1.6
	v0.6c-1.4-0.1-2.5-0.1-3.5-0.1c-0.9,0-2,0-3.4,0.1v-0.6c1.5,0,2-0.4,2-1.5c0,0,0-0.2,0-0.5v-7.2c0-1.7-0.3-2.3-1.9-2.3
	c-0.1,0-0.2,0-0.3,0v-0.6c1.2,0,2.6-0.4,4.3-1.1c0.2,0.9,0.4,1.9,0.4,2.8c0,0.1,0,0.3,0,0.3c0.8-1.7,2.7-2.8,4.8-2.8c3,0,4,2,4,2.8
	C185,352.3,186.6,350.7,189.3,350.7"/>
<g>
	<path class="st1" d="M-70.8,270.2c-4.2,3.2-10.4,3.1-14.3,0c-1.7-1.4-2.9-3.2-3.4-5.4c-0.3-1.4-1.4-2.2-2.5-2.8
		c-2.8-1.5-6.7-0.9-8.9,1.4c-0.3,0.3-0.6,0.7-0.7,1.1c-0.9,2.4-2.4,4.4-4.7,5.7c-1.5,0.9-3.2,1.4-5,1.6c-3,0.2-5.7-0.4-8-2.2
		c-1.5-1.2-3-2.5-3.3-4.5c-0.6-3.3-4-4.7-6.6-4.6c-2,0.1-3.8,0.6-5.1,2.2c-0.6,0.8-1.1,1.8-1.4,2.8c-1,3.6-4.8,6.4-8.5,7
		c-3.2,0.5-6.1-0.2-8.8-2c-1.9-1.3-3.1-3.1-3.7-5.4c-0.1-0.6,0-0.8,0.7-0.9c1.1-0.1,2.3-0.3,3.4-0.4c0.5,3.4,5.1,5.2,8.3,4.3
		c2.5-0.7,4.1-2.1,4.8-4.6c1.1-3.9,3.9-6.1,7.6-7c2.9-0.7,5.9-0.4,8.6,1.1c2.3,1.3,4,3.1,4.7,5.7c0.6,2.4,2.2,3.4,4.3,4
		c2.5,0.7,4.8,0.3,6.8-1.4c0.6-0.5,1.1-1.2,1.4-1.9c1.8-4.3,5.7-7,10.4-7c3.5,0,6.5,1.1,8.8,3.7c0.8,0.9,1.5,2.2,1.8,3.4
		c0.7,2.5,2.4,3.5,4.6,4.1c2.4,0.6,4.5,0,6.5-1.4c0.5-0.4,0.9-0.9,1.2-1.5c0.4-0.9,0.8-1.8,0.8-2.9c0-3,0.6-5.9,1.6-8.7
		c1.4-4.3,3.6-8.1,6.4-11.7c3.4-4.4,7.4-8,11.8-11.2c4.5-3.3,9.3-6,14.3-8.2c6.5-2.8,13.1-5.1,20.1-6.4c3.5-0.7,7.1-1.3,10.6-1.8
		c2.5-0.4,5-0.5,7.5-0.6c2-0.1,4-0.2,5.9-0.2c2.8,0,5.7-0.2,8.5,0c4,0.3,8.1,0.7,12.1,1.3c4.1,0.6,8.3,1.5,12.3,2.5
		c6.4,1.6,12.6,3.8,18.4,6.9c3.7,2,7.3,4.1,10.8,6.5c2.4,1.6,4.4,3.6,6.6,5.4c2.7,2.3,5,5,7,8c2.6,3.8,4.6,7.9,5.6,12.4
		c0.1,0.6,0.3,1.2,0.4,1.8c1.1-0.4,2-0.9,3.1-1.3c4.2-1.5,9.7-0.3,12.5,3.4c0.9,1.2,1.4,2.5,1.8,4c0.2,0.7,0.6,1.4,1.2,1.8
		c2.8,2.1,6.5,2.1,9.3,0.1c0.6-0.4,1.2-1.1,1.4-1.8c1.5-3.6,4.1-6,7.8-7c4.8-1.2,10.8,0.7,12.9,5.6c0.2,0.5,0.4,0.9,0.4,1.4
		c0.2,1.6,1.3,2.5,2.6,3.1c2.8,1.4,5.6,1.1,8.2-0.7c1.2-0.9,1.6-2.2,2-3.6c1.3-4.6,6.3-7.1,10.1-7c3,0,5.7,0.9,8,2.8
		c1.5,1.3,2.4,3,2.8,4.9c0.1,0.5,0.1,0.8-0.6,0.8c-1.2,0-2.3,0.2-3.5,0.3c-0.5-2.5-2.2-3.8-4.5-4.3c-2.6-0.6-5.9-0.1-7.6,2.4
		c-0.4,0.6-0.7,1.3-0.9,2.1c-0.8,4-5.1,6.9-8.8,7.3c-2.7,0.3-5.3-0.1-7.6-1.5c-2.1-1.2-4-2.9-4.4-5.4c-0.4-2.5-2-3.6-4.1-4.1
		c-2.6-0.7-5.1-0.4-7.2,1.6c-0.4,0.4-0.7,0.9-0.9,1.4c-1,2.3-2.4,4.3-4.6,5.6c-1.5,0.9-3.1,1.3-4.8,1.6c-3,0.4-5.7-0.3-8.1-2
		c-2-1.3-3.3-3.2-3.7-5.6c-0.2-0.9-0.6-1.5-1.3-2.1c-2.7-2.5-8.4-2-10.3,0.9c-0.5,0.8-0.8,1.7-0.8,2.6c-0.2,3.8-1.1,7.3-2.5,10.8
		c-2,4.7-4.8,8.8-8.3,12.6c-4.4,4.7-9.4,8.5-14.9,11.7c-4.9,2.9-10,5.3-15.4,7c-4.7,1.5-9.4,2.8-14.1,3.9c-3.3,0.8-6.8,1.2-10.2,1.6
		c-3.8,0.4-7.6,0.6-11.4,0.8c-1.8,0.1-3.6,0.3-5.4,0.2c-2.9-0.1-5.8-0.3-8.6-0.6c-2.4-0.2-4.8-0.4-7.2-0.8c-7-1-13.9-2.6-20.6-4.9
		c-5.4-1.9-10.7-4.2-15.6-7c-3.9-2.2-7.6-4.8-11-7.8c-4-3.6-7.6-7.5-10.3-12.2c-1.9-3.2-3.4-6.7-4.1-10.4
		C-70.6,270.6-70.7,270.5-70.8,270.2z M-68.9,263.9c0,0.9-0.1,1.7,0,2.6c0.5,3.3,1.3,6.5,3.1,9.3c1.4,2.2,2.8,4.4,4.5,6.4
		c2.4,2.8,5.2,5.2,8.2,7.3c4.7,3.3,9.6,6,14.9,8c3.7,1.4,7.5,2.8,11.3,3.9c4.3,1.2,8.7,2.1,13.1,2.9c2.5,0.5,5,0.7,7.5,1
		c3.2,0.3,6.4,0.6,9.5,0.7c2.7,0.1,5.5,0.1,8.2,0c3.2-0.1,6.4-0.1,9.6-0.4c3.7-0.4,7.5-0.8,11.1-1.5c4.5-0.8,8.9-1.8,13.3-3
		c6.8-1.9,13.3-4.6,19.5-8.1c4.3-2.4,8.3-5.3,11.8-8.7c3.3-3.2,6.1-6.9,7.9-11.3c1.6-3.9,2.2-7.9,1.7-12.1c-0.4-3.3-1.5-6.5-3.2-9.4
		c-2.3-4-5.4-7.4-8.9-10.4c-2.9-2.5-6.1-4.6-9.4-6.5c-3.8-2.2-7.7-3.9-11.8-5.5c-5.5-2.1-11.1-3.7-16.8-4.8
		c-3.7-0.7-7.4-1.3-11.1-1.7c-3.4-0.4-6.9-0.9-10.3-0.9c-7-0.1-14-0.3-20.9,0.7c-3.7,0.5-7.5,0.9-11.1,1.6
		c-6.3,1.2-12.5,2.9-18.6,5.2c-5.5,2.1-10.7,4.6-15.6,7.9c-5.1,3.4-9.6,7.3-13,12.4C-67.2,253.9-69.1,258.5-68.9,263.9z"/>
</g>
<path class="st1" d="M-13.9,253.2c0-0.5,0-0.8,0-1.3c0.4,0,0.7,0,1.1,0c9.4,0,18.9-0.1,28.3,0c4.5,0.1,9.1,0.5,13.4,2.2
	c2.4,1,4.6,2.4,6.1,4.6c2.2,3,1.7,7.4-0.8,10c-3.1,3.2-7,4.5-11.2,5.2c-4.5,0.7-9.1,0.8-13.6,0.8c-0.9,0-1.1,0.3-1.1,1.1
	c0,4.1,0,8.1,0,12.2c0,3.1,1,3.9,4.3,4.4c1.3,0.2,2.6,0.2,3.9,0.3c0,0.4,0,0.7,0,1.1c-10.2,0-20.3,0-30.5,0c0-0.4,0-0.7,0-1.1
	c1.3-0.1,2.6-0.1,3.9-0.3c1.3-0.2,2.6-0.3,3.5-1.4c0.4-0.5,0.7-1,0.8-1.6c0.2-1,0.2-2.1,0.2-3.1c0-9.2,0-18.5,0-27.7
	c0-0.8,0-1.7-0.3-2.5c-0.5-1.8-2-2.5-4.1-2.7c-0.7-0.1-1.3-0.1-2-0.2C-12.5,253.2-13.2,253.2-13.9,253.2z M8.4,263.3
	C8.4,263.3,8.4,263.3,8.4,263.3c0,2.7,0,5.5,0,8.2c0,0.4,0,0.8,0.6,0.8c2.4,0,4.7,0.1,7-0.7c1.7-0.6,3.2-1.5,4.3-3.1
	c1.3-1.9,1.6-4.1,1.4-6.3c-0.3-3-1.6-5.4-4.5-6.7c-2.5-1.1-5.1-1.3-7.8-1.3c-0.7,0-1,0.2-1,1C8.4,258,8.4,260.7,8.4,263.3z"/>
<path class="st1" d="M-11.8,275.9c-9.3,0-18.6,0-28,0c0-0.4,0-0.7,0-1.1c1.2-0.1,2.5-0.1,3.7-0.3c3.2-0.5,3.7-1.8,3.7-4.3
	c0.1-8.8,0-17.7,0-26.5c0-1.7,0-3.3-0.2-5c-0.3-2.1-1.2-2.9-3.4-3.3c-1-0.2-2-0.2-3-0.2c-1,0-1.1-0.1-0.9-1.2c0.3,0,0.6-0.1,0.9-0.1
	c8.7,0,17.5,0,26.2,0c0.4,0,0.9-0.1,0.9,0.6c0,0.7-0.4,0.7-0.9,0.7c-1,0-2.1,0-3.1,0.2c-3,0.6-3.6,1.7-3.6,4.3
	c-0.1,9.8,0,19.7,0,29.5c0,0.7,0.1,1.4,0.2,2.1c0,1.5,0.9,2.3,2.2,2.6c1.3,0.4,2.8,0.5,4.2,0.6C-11.9,274.7-11.5,274.8-11.8,275.9z"
	/>
<path class="st1" d="M61.6,254c0.8,0.4,1.6,0.8,2.3,1.2c1.9,1.1,3.5,2.5,3.9,4.8c0.5,2.7-0.1,5.1-1.9,7.2c-2.6,3.1-6.1,4.5-10.1,4.9
	c-2.7,0.2-5.3,0.3-7.9-0.4c-0.7-0.2-1.4-0.6-2-1c-1.6-1.2-1.2-3,0.5-3.9c1.2-0.6,2.4-0.5,3.5,0.1c1.1,0.6,2.2,1.4,3.3,2
	c1.5,0.9,3.1,1.5,4.8,1.2c3.7-0.7,4.9-4.1,3.2-7.2c-1.4-2.4-3.5-3.8-6-4.7c-0.9-0.3-1.9-0.5-2.8-0.8c-0.2-0.1-0.4-0.3-0.6-0.4
	c0.2-0.2,0.4-0.5,0.6-0.6c0.9-0.3,1.8-0.5,2.6-0.8c2-0.7,3.2-2.1,3.7-4.2c0.3-1.5-0.6-3-2.1-3.9c-3.2-1.9-7.2-0.5-9,1.4
	c-0.2,0.2-0.4,0.4-0.6,0.5c-0.2,0.1-0.5,0-0.7-0.1c-0.1-0.1-0.1-0.5,0-0.6c2-3.4,5-5.6,9-6.2c2.2-0.3,4.4-0.2,6.5,0.6
	c2.4,1,4.4,2.9,4.3,5.4c-0.1,2.4-1.6,3.8-3.5,4.9c-0.3,0.2-0.6,0.3-0.8,0.4C61.7,253.8,61.7,253.8,61.6,254z"/>
</svg>
