<?xml version="1.0" encoding="utf-8"?>
<!-- Generator: Adobe Illustrator 15.0.2, SVG Export Plug-In  -->
<!DOCTYPE svg PUBLIC "-//W3C//DTD SVG 1.1//EN" "http://www.w3.org/Graphics/SVG/1.1/DTD/svg11.dtd" [
	<!ENTITY ns_flows "http://ns.adobe.com/Flows/1.0/">
]>
<svg version="1.1"
	 xmlns="http://www.w3.org/2000/svg" xmlns:xlink="http://www.w3.org/1999/xlink" xmlns:a="http://ns.adobe.com/AdobeSVGViewerExtensions/3.0/"
	 x="0px" y="0px" width="428px" height="200px" viewBox="-14.033 -14.504 428 200"
	 overflow="visible" enable-background="new -14.033 -14.504 428 200" xml:space="preserve">
<defs>
</defs>
<path id="path158_1_" fill="#955BA5" d="M49.113,40.635c0-0.885,0-0.207-0.012-1.094C49.002,24.259,47.983,9.813,46.787,0
	C32.236,0.119,18.496,1.548,8.314,3.838C4.294,4.74,2.795,7.663,2.361,9.993c-1.116,5.972-2.525,17.188-2.346,29.191
	c0.011,1.294,0.006,1.052,0.059,2.357c2.477-2.367,25.335-24.578,25.335-24.578L49.113,40.635"/>
<path id="path160_1_" fill="#955BA5" d="M47.559,47.525c-0.734,0.068-1.361,0.668-1.446,1.422c-0.088,0.808-0.189,1.637-0.189,1.637
	H45.9c-0.021,0,0.037,0,0.006,0c-12.263-0.012-27.832-0.183-45.629-2.626l24.983-24.196l23.642,23.626L47.559,47.525"/>
<path id="path162_1_" fill="#955BA5" d="M60.716,50.572c3.062-0.02,28.434-0.296,45.28-2.614c0.976-9.271,0.23-27.144-1.79-37.965
	c-0.437-2.331-1.94-5.22-5.968-6.155C87.955,1.441,74.357,0.106,59.852,0c-1.253,10.379-2.316,24.76-2.316,41.023l0.01,6.213v0.112
	l1.544,0.143c0.741,0.067,1.322,0.703,1.43,1.447c0.101,0.734,0.193,1.646,0.193,1.646L60.716,50.572"/>
<path id="path164_1_" fill="#955BA5" d="M49.084,62.385l-1.541-0.154c-0.75-0.07-1.312-0.703-1.393-1.453
	c-0.066-0.695-0.197-1.646-0.197-1.646l0.002-0.008c-0.103,0,0.057,0-0.062,0c-12.227,0-26.015,0.087-43.81,2.525
	c2.426,13.866,18.271,45.21,43.781,58.626c1.262-10.38,3.248-35.69,3.248-51.938l-0.025-5.864v-0.086l-0.001-0.018L49.084,62.385"/>
<path id="path166_1_" fill="#955BA5" d="M60.648,59.124C60.716,59.124,60.57,59.124,60.648,59.124
	c12.244,0,26.174,0.078,44.008,2.525c-2.42,13.866-18.267,45.21-43.771,58.626c-1.264-10.38-3.367-35.69-3.367-51.938l0.094-5.968
	l0.008-0.003l1.461-0.144c0.743-0.073,1.27-0.7,1.363-1.445c0.075-0.678,0.197-1.646,0.197-1.646L60.648,59.124"/>
<path id="path168_1_" fill="#FFFFFF" d="M23.039,32.328c0.795-0.006,1.786-0.81,1.912-0.862l-0.061-0.14
	c-0.171,0.076-0.921,0.445-1.358,0.445c-0.562,0-0.565-0.513-0.456-0.916c-0.318,0.397-0.639,0.536-0.639,0.949
	C22.438,32.062,22.587,32.334,23.039,32.328L23.039,32.328z M26.061,30.181c-0.137,0.088-0.391,0.156-0.507,0.176
	c-0.063-0.108-0.109-0.329-0.042-0.448c0.025-0.045,0.756-0.045,0.932-0.028C26.266,30.004,26.229,30.074,26.061,30.181z
	 M30.293,36.273c0.387-0.548,1.075-0.398,1.075-1.185c0-0.85-1.207-1.067-1.366-1.92c-0.031,0.055-0.029,0.049-0.055,0.144
	c-0.135,0.762,0.419,1.201,0.419,1.597c0,0.262-0.181,0.791-0.574,1.13c0.056-0.108,0.221-0.39,0.191-0.647
	c-0.024-0.181-0.11-0.366-0.47-0.385c-0.4-0.028-0.668,0.477-1.119,0.562c0.351,0.24,0.824-0.086,0.811,0.429
	c-0.027,0.596-0.732,1.053-0.732,1.98c0,1.397,0.973,1.909,0.973,2.705c0,0.446-0.332,0.807-0.721,0.807
	c-0.41,0-0.715-0.278-0.836-0.71c-0.047-0.226-0.131-0.767-0.477-1.406c-0.223-0.424-0.736-1.48-0.736-2.587
	c0-0.806,0.131-1.014,0.356-1.334c0.107,0.1,0.359,0.218,0.514,0.376c-0.075-0.579,0.129-1.027,0.22-1.254
	c0.076,0.148,0.316,0.271,0.492,0.383c-0.05-0.307,0.31-0.862,0.068-1.433c0.235,0.088,0.549,0.268,0.713,0.352
	c-0.17-0.256-0.385-1.296-0.975-1.982c0.289,0.048,0.481-0.123,0.805,0.013c-0.194-0.528-0.466-0.762-0.905-0.905
	c0.178-0.081,0.452-0.643,0.536-0.905c-0.131,0.103-0.563,0.142-0.808,0.115c0.189-0.106,0.472-0.53,0.472-0.878
	c-0.125,0.101-0.618,0.202-0.772,0.202c0.082-0.208-0.049-0.718-0.359-0.784c0.165,0.408-0.354,0.784-0.81,0.784
	c-0.162,0-0.504-0.013-0.594-0.013c-0.312,0-0.352,0.072-0.429,0.255c-0.075,0.177-0.169,0.295-0.509,0.402
	c-0.16,0.045-0.431,0.113-0.596,0.148c-0.2,0.032-0.356,0.231-0.257,0.473c0.031,0.052,0.031,0.052,0.038,0.102
	c0.058,0.143,0.081,0.179,0.11,0.242c0.023,0.052,0.087,0.265,0.116,0.339c0.023-0.159,0.072-0.292,0.224-0.348
	c0.204-0.071,0.241-0.071,0.386-0.115c0.188-0.052,0.36,0.082,0.431,0.304c0.133,0.467-0.159,0.694-0.372,0.694
	c-0.106,0-0.252,0.029-0.301,0.029c-0.102,0-0.329,0.055-0.329,0.346c0,0.142,0.058,0.293,0.006,0.467
	c0.518-0.35,1.057-0.419,1.39-0.443c-0.185,0.595-0.197,1.067-1.146,0.967c-0.152-0.019-0.408-0.023-0.592-0.049
	c0.222,0.202,0.136,0.212,0.188,0.532c-0.241-0.047-0.575-0.131-0.841-0.12c0.234,0.225,0.182,0.458,0.328,0.671
	c-0.189,0-0.646-0.164-1.011-0.271c-0.382-0.109-0.736-0.244-1.004-0.378c-0.832-0.437-0.394-0.711-0.405-1.12
	c-0.002-0.151-0.159-0.376-0.403-0.41c-0.146-0.158-0.325-0.26-0.757-0.267c0.215,0.048,0.316,0.116,0.324,0.35
	c-0.091,0.089-0.125,0.292-0.064,0.502c-0.018,0.031-0.039,0.041-0.08,0.082c-0.08-0.092-0.315-0.208-0.607,0.013
	c-0.124-0.054-0.258-0.101-0.652,0.195c0.314-0.089,0.402-0.058,0.541,0.069c-0.001,0.332,0.251,0.404,0.447,0.431
	c0,0.112,0,0.028-0.018,0.116c-0.08-0.013-0.237,0.052-0.318,0.221c-0.124,0.019-0.524,0.283-0.562,0.493
	c0.207-0.151,0.342-0.205,0.539-0.162c0,0.307,0.39,0.345,0.529,0.345c0.121,0,0.266-0.052,0.327-0.071
	c0.589,0,0.589,0.273,0.589,0.402c0,0.141-0.129,0.514-0.312,0.625c0.543,0.057,0.84-0.131,1.121-0.126
	c-0.143,0.226,0.016,0.521-0.246,0.815c0.527-0.021,1.177-0.668,1.706-0.668c0.183,0,0.206-0.008,0.438,0.054
	c0.12,0.724-1.449,1.634-2.427,1.634c-0.452,0-0.895-0.028-0.942-0.31c-0.042-0.244-0.19-0.445-0.626-0.299
	c-0.203-0.121-0.5-0.015-0.75,0.243c0.147-0.052,0.314-0.167,0.472,0.014c-0.021,0.189,0.087,0.349,0.217,0.42
	c-0.003,0.05-0.024,0.05-0.047,0.096c-0.19,0-0.444,0.066-0.513,0.254c-0.197,0.076-0.363,0.326-0.397,0.625
	c0.181-0.267,0.235-0.291,0.446-0.284c0.084,0.162,0.362,0.181,0.549,0.121l0.03,0.081c-0.056,0.074-0.195,0.189-0.122,0.511
	c-0.073,0.116-0.184,0.204-0.073,0.687c0.094-0.39,0.206-0.417,0.335-0.507c0.342,0.09,0.562-0.137,0.625-0.298
	c0.07-0.147,0.334-0.242,0.566-0.242c0.416,0,0.631,0.329,0.719,0.701c0.131-0.318,0.341-0.694,0.621-0.694
	c0.154,0,0.276,0.098,0.351,0.234c0.18-0.295,0.519-0.765,0.878-0.85c0.045,0.308,0.192,0.639,0.486,0.85
	c0.576,0.394,0.964,0.384,1.566,1.12c-0.061,0.077-0.107,0.154-0.521,0.154c-0.284,0-0.581-0.543-1.868-0.543
	c-0.419,0-1.055,0.674-1.055,1.023c0,0.36,0.451,1.127,0.451,1.395c0,0.255-0.197,0.438-0.437,0.438
	c-0.44,0-0.914-0.131-1.116-0.492c-0.036-0.126-0.17-0.225-0.379-0.225c-0.106,0-0.322,0.021-0.396,0.137
	c-0.185,0.032-0.436,0.125-0.549,0.421c0.113-0.101,0.273-0.184,0.441-0.125c-0.01,0.361,0.258,0.373,0.347,0.407
	c0,0,0.045-0.015,0.015,0.029c-0.033,0.04-0.01,0.06-0.029,0.099c-0.291-0.066-0.576,0.123-0.576,0.331
	c-0.134,0.086-0.321,0.397-0.285,0.67c0.133-0.273,0.254-0.352,0.383-0.376c0.144,0.201,0.479,0.182,0.695,0
	c0.045,0.07,0.028,0.033,0.07,0.084c-0.143,0.074-0.16,0.362-0.129,0.493c-0.086,0.106-0.186,0.345-0.109,0.606
	c0.041-0.175,0.158-0.314,0.297-0.431c0.1,0.03,0.071,0.082,0.283,0.082c0.346,0,0.382-0.252,0.433-0.381
	c0.501-0.454,1.062-0.03,1.071,0.238c0.212-0.15,0.279-0.281,0.392-0.603c0.288-0.256,0.651-0.132,0.908,0.093
	c0.039-0.258-0.004-0.39-0.142-0.64c-0.103-0.182-0.159-0.243-0.159-0.529c0-0.273,0.193-0.606,0.526-0.606
	c0.435,0,0.481,0.277,0.914,0.277c0.165,0,0.133,0,0.242,0c-0.312,0.274-0.623,0.665-0.607,1.35c0.01,0.404,0.607,0.992,0.842,1.284
	c0.304,0.381,0.178,0.55,0.117,0.698c-0.039,0.085-0.047,0.1-0.117,0.19c-0.068,0.09-0.334,0.341-0.631,0.341
	c-0.292,0-0.579-0.128-0.703-0.254c-0.213-0.212-0.583-0.148-0.766,0.227c-0.165,0.068-0.387,0.358-0.387,0.638
	c0.037-0.119,0.26-0.312,0.42-0.271c0.058,0.099,0.203,0.171,0.376,0.171c0.007,0.018,0.018,0.044,0.018,0.099
	c-0.204,0.083-0.272,0.333-0.23,0.439c-0.081,0.067-0.235,0.25-0.163,0.744c0.029-0.208,0.176-0.382,0.294-0.426
	c0.301,0.132,0.429-0.014,0.545-0.122l0.085,0.06c-0.063,0.161-0.092,0.35,0.135,0.449c-0.08,0.327-0.047,0.448,0.15,0.634
	c-0.007-0.224-0.065-0.351,0.162-0.595c0.299-0.034,0.461-0.16,0.468-0.494c0.014-0.124,0.449-0.511,0.66-0.511
	c0.214,0,0.335,0.168,0.41,0.361c0.173-0.238,0.107-0.457,0.257-0.615c0.129-0.129,0.348-0.268,0.837-0.023
	c-0.062-0.379-0.044-0.67-0.548-0.909c0.18-0.205,0.504-0.314,0.809-0.334c-0.209-0.269-0.767-0.477-0.916-0.629
	c-0.158-0.146-0.309-0.412-0.309-0.625c0-0.804,1.391-0.711,1.391-1.93c0.25,0.154,0.535,0.219,0.92,0.219
	c0.619,0,1.086-0.444,1.218-1.39c0.018-0.226,0.083-0.337,0.128-0.468c0.057-0.117,0.248-0.361,0.248-0.787
	c0-0.376-0.121-0.582-0.311-0.806c0.029,0.134,0.025,0.237-0.004,0.346c-0.027,0.104-0.246,0.367-0.282,0.514
	c-0.032,0.139-0.062,0.308-0.062,0.515c-0.06-0.15-0.106-0.249-0.141-0.363c-0.198-0.425,0.222-0.551,0.222-1.117
	c0-0.262-0.037-0.405-0.221-0.746c0.02,0.138-0.051,0.317-0.132,0.397c-0.085,0.095-0.257,0.411-0.224,0.884
	c-0.56-1.341,0.375-2.169,0.713-2.169c0.229,0,0.393,0.103,0.393,0.328c0,0.197-0.154,0.424-0.072,0.707
	c0.03-0.097,0.08-0.166,0.146-0.265c0.137-0.188,0.785-0.442,0.785-0.866C31.199,36.188,30.716,36.102,30.293,36.273"/>
<path id="path170_1_" fill="#FFFFFF" d="M34.721,7.604c0.85-0.015,1.9-0.851,2.036-0.912l-0.073-0.149
	c-0.172,0.085-0.979,0.478-1.436,0.478c-0.599,0-0.601-0.544-0.483-0.973c-0.349,0.423-0.678,0.568-0.678,0.999
	C34.087,7.325,34.25,7.604,34.721,7.604L34.721,7.604z M37.927,5.332c-0.148,0.095-0.418,0.172-0.536,0.181
	c-0.07-0.105-0.118-0.333-0.048-0.476C37.371,5,38.155,5.003,38.334,5.015C38.146,5.147,38.104,5.224,37.927,5.332L37.927,5.332z
	 M42.414,11.796c0.416-0.577,1.139-0.424,1.139-1.27c0-0.885-1.275-1.124-1.452-2.031c-0.023,0.072-0.019,0.064-0.042,0.163
	c-0.156,0.807,0.43,1.272,0.43,1.684c0,0.288-0.185,0.842-0.606,1.198c0.058-0.107,0.231-0.415,0.202-0.676
	c-0.02-0.202-0.109-0.4-0.482-0.426c-0.431-0.025-0.723,0.516-1.201,0.609c0.375,0.249,0.88-0.093,0.865,0.458
	c-0.018,0.625-0.781,1.106-0.781,2.092c0,1.485,1.036,2.027,1.036,2.876c0,0.467-0.35,0.854-0.774,0.854
	c-0.436,0-0.754-0.301-0.868-0.758c-0.059-0.229-0.147-0.816-0.517-1.496c-0.236-0.437-0.781-1.567-0.781-2.736
	c0-0.857,0.131-1.075,0.369-1.407c0.122,0.096,0.391,0.229,0.552,0.394c-0.079-0.612,0.133-1.09,0.235-1.335
	c0.083,0.164,0.336,0.295,0.527,0.415c-0.057-0.321,0.317-0.915,0.062-1.52c0.253,0.084,0.595,0.284,0.758,0.372
	c-0.176-0.281-0.413-1.379-1.031-2.109c0.301,0.047,0.505-0.125,0.855,0.018c-0.209-0.558-0.508-0.808-0.961-0.97
	c0.189-0.083,0.488-0.675,0.568-0.946c-0.137,0.114-0.594,0.155-0.85,0.117c0.199-0.097,0.489-0.557,0.489-0.922
	C40.032,4.546,39.5,4.64,39.34,4.64c0.088-0.208-0.053-0.753-0.391-0.818c0.179,0.429-0.363,0.818-0.854,0.818
	c-0.169,0-0.53-0.01-0.631-0.01c-0.327,0-0.374,0.082-0.453,0.274c-0.068,0.183-0.178,0.32-0.533,0.427
	c-0.171,0.051-0.459,0.117-0.633,0.162c-0.213,0.039-0.385,0.247-0.272,0.491c0.021,0.064,0.021,0.064,0.04,0.11
	c0.057,0.151,0.088,0.195,0.117,0.26c0.027,0.069,0.092,0.284,0.126,0.359c0.012-0.172,0.064-0.296,0.238-0.369
	c0.213-0.081,0.257-0.077,0.403-0.121c0.205-0.056,0.388,0.092,0.452,0.32c0.141,0.492-0.16,0.742-0.388,0.742
	c-0.113,0-0.264,0.027-0.316,0.027c-0.111,0-0.349,0.055-0.349,0.365c0,0.163,0.052,0.304,0,0.498
	c0.552-0.37,1.136-0.444,1.474-0.478c-0.189,0.637-0.205,1.138-1.213,1.034c-0.154-0.021-0.434-0.021-0.627-0.055
	c0.228,0.213,0.139,0.213,0.199,0.571c-0.262-0.049-0.604-0.154-0.885-0.137c0.243,0.245,0.179,0.479,0.328,0.722
	c-0.188,0-0.671-0.188-1.061-0.293c-0.397-0.12-0.791-0.252-1.055-0.408c-0.894-0.455-0.424-0.74-0.436-1.181
	c-0.008-0.166-0.17-0.402-0.442-0.439c-0.146-0.162-0.319-0.271-0.791-0.28c0.229,0.051,0.335,0.123,0.347,0.363
	c-0.103,0.099-0.135,0.317-0.071,0.542c-0.018,0.03-0.046,0.04-0.087,0.09c-0.094-0.102-0.338-0.229-0.642,0
	c-0.129-0.05-0.278-0.098-0.69,0.211c0.33-0.087,0.421-0.055,0.575,0.082c-0.011,0.347,0.271,0.426,0.467,0.446
	c0,0.115,0,0.029-0.016,0.124c-0.088-0.014-0.259,0.068-0.345,0.238c-0.119,0.022-0.553,0.308-0.588,0.52
	c0.213-0.156,0.363-0.208,0.572-0.173c0,0.331,0.412,0.364,0.559,0.364c0.121,0,0.29-0.052,0.35-0.068
	c0.623,0,0.623,0.286,0.623,0.431c0,0.132-0.139,0.551-0.329,0.659c0.581,0.054,0.884-0.138,1.188-0.131
	c-0.154,0.234,0.016,0.55-0.257,0.858c0.546-0.006,1.248-0.71,1.804-0.71c0.195,0,0.225-0.009,0.478,0.057
	c0.115,0.769-1.547,1.743-2.591,1.743c-0.484,0-0.942-0.037-1-0.336c-0.033-0.256-0.196-0.468-0.653-0.315
	c-0.22-0.125-0.532-0.022-0.804,0.258c0.152-0.058,0.338-0.172,0.508,0.02c-0.034,0.197,0.084,0.372,0.224,0.444
	c-0.003,0.039-0.025,0.039-0.046,0.098c-0.212,0-0.469,0.078-0.551,0.264c-0.199,0.082-0.384,0.35-0.422,0.671
	c0.191-0.279,0.258-0.309,0.473-0.296c0.088,0.165,0.384,0.191,0.586,0.115l0.042,0.096c-0.069,0.079-0.21,0.202-0.136,0.535
	c-0.074,0.124-0.204,0.22-0.074,0.727c0.093-0.406,0.213-0.439,0.343-0.534c0.366,0.095,0.601-0.153,0.679-0.306
	c0.064-0.156,0.346-0.269,0.594-0.269c0.445,0,0.676,0.364,0.753,0.744c0.146-0.339,0.364-0.731,0.666-0.731
	c0.171,0,0.298,0.102,0.377,0.255c0.179-0.321,0.552-0.829,0.931-0.919c0.045,0.34,0.2,0.69,0.509,0.905
	c0.618,0.422,1.03,0.408,1.671,1.196c-0.07,0.063-0.131,0.16-0.558,0.16c-0.31,0-0.625-0.576-1.991-0.576
	c-0.447,0-1.105,0.721-1.105,1.088c0,0.382,0.469,1.193,0.469,1.474c0,0.282-0.191,0.466-0.447,0.466
	c-0.484,0-0.975-0.134-1.198-0.517c-0.033-0.142-0.175-0.24-0.396-0.24c-0.115,0-0.344,0.014-0.413,0.151
	c-0.198,0.021-0.465,0.12-0.589,0.44c0.124-0.107,0.295-0.197,0.467-0.126c-0.014,0.366,0.279,0.385,0.368,0.427
	c0,0,0.052-0.021,0.014,0.028c-0.04,0.039-0.003,0.076-0.028,0.104c-0.306-0.07-0.613,0.128-0.613,0.347
	c-0.143,0.093-0.332,0.417-0.297,0.718c0.137-0.293,0.264-0.381,0.39-0.411c0.158,0.231,0.528,0.203,0.749,0.001
	c0.048,0.076,0.025,0.045,0.08,0.094c-0.154,0.087-0.168,0.397-0.14,0.521c-0.097,0.117-0.196,0.364-0.124,0.65
	c0.053-0.19,0.171-0.333,0.324-0.47c0.092,0.043,0.076,0.087,0.293,0.087c0.365,0,0.412-0.268,0.465-0.389
	c0.521-0.493,1.108-0.023,1.135,0.258c0.215-0.168,0.295-0.301,0.41-0.655c0.312-0.27,0.701-0.143,0.965,0.105
	c0.037-0.277,0-0.417-0.16-0.683c-0.098-0.195-0.146-0.253-0.146-0.562c0-0.294,0.196-0.638,0.542-0.638
	c0.47,0,0.511,0.291,0.973,0.291c0.172,0,0.142,0,0.249,0c-0.313,0.288-0.655,0.711-0.642,1.429c0.008,0.44,0.642,1.056,0.894,1.37
	c0.32,0.404,0.183,0.582,0.122,0.736c-0.037,0.085-0.043,0.095-0.122,0.203c-0.077,0.104-0.353,0.356-0.659,0.356
	c-0.318,0-0.625-0.137-0.756-0.262c-0.223-0.227-0.601-0.159-0.806,0.243c-0.185,0.067-0.418,0.366-0.418,0.679
	c0.052-0.133,0.282-0.337,0.449-0.299c0.071,0.112,0.216,0.185,0.391,0.185c0.015,0.035,0.029,0.049,0.029,0.107
	c-0.208,0.096-0.289,0.344-0.245,0.463c-0.09,0.083-0.254,0.267-0.175,0.801c0.03-0.231,0.192-0.417,0.315-0.468
	c0.312,0.151,0.447-0.007,0.575-0.129l0.097,0.066c-0.082,0.177-0.107,0.376,0.126,0.471c-0.071,0.355-0.045,0.485,0.169,0.677
	c-0.007-0.238-0.066-0.364,0.173-0.616c0.323-0.043,0.482-0.18,0.511-0.535c0.003-0.131,0.461-0.538,0.689-0.538
	c0.221,0,0.36,0.174,0.444,0.377c0.183-0.252,0.106-0.473,0.259-0.642c0.135-0.145,0.369-0.298,0.895-0.035
	c-0.066-0.403-0.051-0.703-0.582-0.961c0.175-0.215,0.531-0.33,0.852-0.359c-0.221-0.277-0.814-0.504-0.979-0.656
	c-0.159-0.16-0.315-0.446-0.315-0.678c0-0.85,1.468-0.746,1.468-2.037c0.264,0.167,0.578,0.23,0.982,0.23
	c0.653,0,1.158-0.474,1.275-1.479c0.026-0.222,0.096-0.353,0.148-0.481c0.062-0.132,0.269-0.393,0.269-0.856
	c0-0.388-0.134-0.594-0.337-0.843c0.027,0.14,0.018,0.25-0.006,0.356c-0.019,0.122-0.264,0.398-0.293,0.541
	c-0.037,0.159-0.076,0.344-0.076,0.558c-0.062-0.158-0.109-0.26-0.148-0.383c-0.201-0.46,0.238-0.579,0.238-1.193
	c0-0.269-0.035-0.429-0.235-0.787c0.023,0.153-0.06,0.342-0.142,0.435c-0.084,0.09-0.262,0.425-0.233,0.928
	c-0.593-1.421,0.391-2.305,0.759-2.305c0.242,0,0.412,0.112,0.412,0.35c0,0.211-0.159,0.459-0.072,0.749
	c0.029-0.104,0.091-0.171,0.156-0.272c0.137-0.21,0.836-0.477,0.836-0.93C43.383,11.705,42.879,11.61,42.414,11.796"/>
<path id="path172_1_" fill="#FFFFFF" d="M11.42,9.148c0.818-0.016,1.818-0.822,1.949-0.865l-0.066-0.147
	c-0.152,0.076-0.934,0.451-1.377,0.451c-0.568,0-0.57-0.525-0.462-0.937c-0.341,0.403-0.657,0.55-0.657,0.964
	C10.807,8.878,10.965,9.165,11.42,9.148z M14.497,6.965c-0.147,0.085-0.4,0.161-0.506,0.18c-0.073-0.109-0.123-0.33-0.051-0.455
	c0.02-0.051,0.785-0.045,0.948-0.029C14.712,6.787,14.664,6.862,14.497,6.965L14.497,6.965z M18.805,13.17
	c0.397-0.56,1.092-0.405,1.092-1.223c0-0.851-1.218-1.071-1.388-1.94c-0.032,0.063-0.023,0.049-0.048,0.156
	c-0.146,0.764,0.408,1.209,0.408,1.616c0,0.269-0.172,0.806-0.578,1.145c0.058-0.101,0.227-0.399,0.195-0.656
	c-0.014-0.183-0.102-0.377-0.465-0.4c-0.414-0.019-0.687,0.495-1.147,0.586c0.351,0.227,0.839-0.092,0.821,0.436
	c-0.019,0.598-0.738,1.064-0.738,2.014c0,1.427,0.987,1.941,0.987,2.752c0,0.452-0.334,0.814-0.739,0.814
	c-0.411,0-0.734-0.285-0.843-0.728c-0.056-0.22-0.136-0.77-0.489-1.428c-0.231-0.424-0.755-1.503-0.755-2.62
	c0-0.829,0.141-1.029,0.361-1.357c0.11,0.089,0.377,0.223,0.526,0.374c-0.079-0.587,0.129-1.038,0.226-1.277
	c0.085,0.155,0.323,0.282,0.506,0.396c-0.048-0.303,0.315-0.875,0.07-1.46c0.235,0.09,0.562,0.277,0.72,0.362
	c-0.17-0.268-0.392-1.329-0.986-2.02c0.286,0.04,0.479-0.125,0.811,0.015c-0.193-0.542-0.478-0.775-0.918-0.931
	c0.184-0.086,0.471-0.65,0.553-0.919c-0.136,0.109-0.58,0.152-0.829,0.128c0.196-0.109,0.472-0.545,0.474-0.894
	c-0.109,0.094-0.625,0.199-0.774,0.199c0.081-0.213-0.051-0.734-0.377-0.792c0.172,0.404-0.354,0.792-0.821,0.792
	c-0.161,0-0.513-0.011-0.611-0.011c-0.302,0-0.351,0.076-0.43,0.258c-0.064,0.174-0.166,0.305-0.508,0.407
	c-0.17,0.052-0.445,0.118-0.609,0.152c-0.21,0.041-0.37,0.241-0.262,0.473c0.021,0.061,0.014,0.061,0.035,0.109
	c0.062,0.148,0.074,0.183,0.115,0.252c0.027,0.055,0.084,0.275,0.117,0.345C12.521,8.125,12.577,8,12.733,7.943
	c0.218-0.085,0.244-0.085,0.397-0.115c0.192-0.065,0.361,0.083,0.433,0.308c0.133,0.467-0.159,0.712-0.376,0.712
	c-0.107,0-0.251,0.019-0.299,0.019c-0.109,0-0.34,0.053-0.34,0.343c0,0.159,0.052,0.298,0.012,0.485
	c0.518-0.349,1.071-0.43,1.399-0.447c-0.182,0.6-0.192,1.086-1.161,0.98c-0.145-0.019-0.41-0.022-0.602-0.048
	c0.223,0.203,0.139,0.209,0.191,0.539c-0.252-0.055-0.584-0.145-0.85-0.122c0.242,0.225,0.178,0.459,0.318,0.682
	c-0.186,0-0.65-0.17-1.026-0.278c-0.374-0.104-0.743-0.248-1.014-0.377C8.967,10.181,9.42,9.897,9.404,9.484
	c0-0.157-0.166-0.383-0.42-0.424C8.844,8.902,8.666,8.804,8.232,8.793c0.205,0.044,0.314,0.113,0.32,0.342
	C8.46,9.229,8.427,9.445,8.498,9.653C8.48,9.692,8.447,9.696,8.409,9.739c-0.082-0.094-0.318-0.209-0.62,0.01
	C7.662,9.696,7.512,9.646,7.125,9.941c0.32-0.083,0.401-0.049,0.555,0.076c-0.008,0.342,0.257,0.416,0.455,0.443
	c-0.005,0.104-0.005,0.026-0.022,0.115c-0.078-0.011-0.25,0.063-0.325,0.229c-0.124,0.02-0.531,0.285-0.572,0.503
	c0.211-0.154,0.353-0.209,0.55-0.164c0,0.311,0.387,0.343,0.538,0.343c0.124,0,0.279-0.053,0.336-0.066
	c0.592,0,0.592,0.275,0.592,0.41s-0.125,0.526-0.307,0.637c0.556,0.05,0.842-0.136,1.127-0.129
	c-0.137,0.236,0.024,0.525-0.235,0.826c0.521-0.013,1.2-0.675,1.733-0.675c0.18,0,0.205-0.01,0.448,0.045
	c0.112,0.743-1.481,1.673-2.479,1.673c-0.463,0-0.903-0.033-0.954-0.324c-0.035-0.241-0.193-0.445-0.639-0.302
	c-0.209-0.121-0.503-0.015-0.764,0.249c0.146-0.055,0.318-0.171,0.487,0.015c-0.034,0.194,0.077,0.363,0.205,0.432
	c-0.004,0.041-0.019,0.042-0.039,0.099c-0.2,0-0.452,0.073-0.526,0.252c-0.193,0.074-0.366,0.331-0.402,0.637
	c0.18-0.265,0.242-0.295,0.455-0.284c0.084,0.164,0.371,0.179,0.551,0.12l0.044,0.088c-0.068,0.076-0.198,0.19-0.133,0.517
	c-0.062,0.112-0.188,0.207-0.065,0.694c0.084-0.387,0.201-0.426,0.326-0.518c0.354,0.092,0.581-0.141,0.646-0.291
	c0.071-0.151,0.331-0.261,0.575-0.261c0.425,0,0.647,0.35,0.726,0.719c0.14-0.325,0.347-0.701,0.633-0.701
	c0.163,0,0.286,0.092,0.372,0.237c0.172-0.301,0.523-0.79,0.881-0.874c0.044,0.315,0.193,0.664,0.501,0.861
	c0.58,0.413,0.979,0.395,1.597,1.149c-0.062,0.069-0.118,0.148-0.537,0.148c-0.293,0-0.592-0.539-1.901-0.539
	c-0.435,0-1.076,0.677-1.076,1.043c0,0.358,0.46,1.141,0.46,1.401c0,0.266-0.198,0.452-0.437,0.452
	c-0.462,0-0.933-0.127-1.142-0.492c-0.044-0.131-0.18-0.23-0.383-0.23c-0.109,0-0.33,0.01-0.396,0.15
	c-0.191,0.01-0.447,0.109-0.57,0.409c0.123-0.1,0.287-0.185,0.463-0.117c-0.023,0.353,0.263,0.362,0.348,0.409
	c0,0,0.041-0.015,0.007,0.029c-0.034,0.041,0,0.064-0.034,0.106c-0.291-0.068-0.581,0.11-0.581,0.331
	c-0.132,0.084-0.321,0.402-0.288,0.681c0.135-0.271,0.264-0.359,0.385-0.384c0.154,0.212,0.492,0.19,0.719,0
	c0.034,0.068,0.017,0.04,0.074,0.091c-0.158,0.083-0.166,0.378-0.137,0.498c-0.098,0.112-0.186,0.341-0.116,0.626
	c0.04-0.188,0.167-0.327,0.306-0.449c0.092,0.03,0.063,0.076,0.281,0.076c0.353,0,0.398-0.252,0.451-0.372
	c0.499-0.47,1.071-0.035,1.085,0.246c0.214-0.16,0.29-0.288,0.392-0.619c0.293-0.274,0.668-0.14,0.925,0.094
	c0.046-0.255-0.005-0.403-0.145-0.656c-0.103-0.182-0.148-0.241-0.148-0.537c0-0.28,0.187-0.608,0.524-0.608
	c0.443,0,0.489,0.268,0.93,0.268c0.166,0,0.139,0,0.245,0c-0.3,0.279-0.638,0.683-0.616,1.376c0.018,0.419,0.616,1.011,0.859,1.309
	c0.301,0.39,0.18,0.561,0.113,0.706c-0.037,0.089-0.045,0.109-0.113,0.207c-0.074,0.096-0.346,0.341-0.641,0.341
	c-0.297,0-0.592-0.132-0.709-0.254c-0.233-0.222-0.593-0.151-0.787,0.233c-0.17,0.062-0.393,0.351-0.393,0.648
	c0.037-0.124,0.262-0.318,0.431-0.287c0.052,0.104,0.202,0.176,0.37,0.176c0.008,0.025,0.027,0.052,0.027,0.099
	c-0.209,0.097-0.285,0.336-0.23,0.457c-0.091,0.076-0.247,0.25-0.165,0.764c0.022-0.218,0.171-0.394,0.292-0.445
	c0.307,0.145,0.436-0.013,0.552-0.126l0.093,0.063c-0.062,0.164-0.096,0.361,0.131,0.451c-0.074,0.344-0.045,0.47,0.148,0.657
	c-0.002-0.236-0.057-0.355,0.169-0.6c0.307-0.043,0.469-0.169,0.485-0.513c0.004-0.126,0.458-0.51,0.676-0.51
	c0.198,0,0.339,0.161,0.412,0.353c0.18-0.246,0.104-0.452,0.259-0.612c0.133-0.142,0.354-0.281,0.852-0.036
	c-0.061-0.386-0.048-0.668-0.554-0.922c0.182-0.208,0.508-0.32,0.818-0.337c-0.219-0.276-0.788-0.488-0.943-0.634
	c-0.156-0.157-0.301-0.422-0.301-0.643c0-0.818,1.412-0.719,1.412-1.958c0.247,0.153,0.547,0.212,0.938,0.212
	c0.627,0,1.109-0.449,1.232-1.419c0.016-0.202,0.09-0.334,0.148-0.459c0.043-0.128,0.242-0.373,0.242-0.813
	c0-0.381-0.131-0.577-0.314-0.817c0.027,0.132,0.018,0.244-0.009,0.349c-0.026,0.109-0.255,0.378-0.288,0.519
	c-0.033,0.146-0.066,0.318-0.066,0.531c-0.061-0.148-0.098-0.245-0.14-0.369c-0.198-0.429,0.228-0.553,0.228-1.139
	c0-0.269-0.035-0.413-0.222-0.759c0.016,0.148-0.06,0.325-0.142,0.418c-0.076,0.085-0.264,0.402-0.23,0.886
	c-0.562-1.359,0.388-2.215,0.729-2.215c0.235,0,0.399,0.114,0.399,0.341c0,0.207-0.152,0.439-0.076,0.725
	c0.031-0.106,0.084-0.17,0.152-0.26c0.134-0.205,0.809-0.465,0.809-0.899C19.734,13.087,19.242,12.987,18.805,13.17"/>
<path id="path174_1_" fill="#FFFFFF" d="M147.824,123.351c1.746,0,3.697,0,5.812-0.151v1.265c0,0-0.316-0.057-0.897-0.057
	c-3.917,0-3.917,2.327-3.917,5.761v15.424c0,1.603-0.039,3.135-0.309,4.409c-1.525,7.499-7.254,9.48-13.243,9.48
	c-7.892,0-12.728-3.996-14.057-9.624c-0.217-0.911-0.383-2.7-0.383-4.861v-15.726c0-3.64-0.685-4.702-5.073-4.807v-1.21
	c2.491,0.159,5.073,0.209,7.819,0.209c2.751,0,5.336-0.051,7.822-0.209v1.21c-0.262,0-0.532,0-0.79,0
	c-3.7,0-4.281,1.794-4.281,4.807v16.586c0,1.937,0.101,3.605,0.512,5.018c1.238,4.254,4.458,6.763,9.424,6.763
	c6.027,0,9.715-2.379,10.812-7.811c0.242-1.196,0.278-2.527,0.278-4.019v-15.64c0-4.438-0.272-5.704-4.755-5.704V123.2
	C144.068,123.297,145.812,123.351,147.824,123.351"/>
<path id="path176_1_" fill="#FFFFFF" d="M171.101,134.873c4.667,0,7.761,2.375,7.761,6.916c0,0.153,0,0.638,0,1.33v10.981
	c0,0.367,0,0.63,0,0.739c0,2.105,1.05,2.683,3.801,2.749v1.11c-2.377-0.164-4.378-0.271-6.072-0.271
	c-1.578,0-3.641,0.055-6.125,0.271v-1.11c2.699-0.066,3.801-0.693,3.801-2.646c0-0.057,0-0.369,0-0.842v-11.994
	c0-3.751-1.637-5.595-4.957-5.595c-3.596,0-6.66,3.168-6.66,7.609v9.98c0,0.367,0,0.63,0,0.739c0,2.105,1.062,2.683,3.805,2.749
	v1.11c-2.383-0.164-4.372-0.271-6.068-0.271c-1.578,0-3.643,0.055-6.125,0.271v-1.11c2.686-0.066,3.748-0.693,3.748-2.646
	c0-0.057,0.054-0.369,0.054-0.842v-12.677c0-3.068-0.465-4.068-3.326-4.068c-0.147,0-0.318,0-0.476,0v-1.063
	c2.064,0,4.428-0.731,7.391-1.998c0.385,0.933,0.689,2.287,0.729,5.475C162.861,138.905,165.2,134.873,171.101,134.873"/>
<path id="path178_1_" fill="#FFFFFF" d="M194.211,154.099c0,0.367,0,0.63,0,0.739c0,2,1.01,2.636,3.597,2.749v1.11
	c-2.014-0.164-4.017-0.271-5.904-0.271c-1.913,0-3.806,0.107-5.763,0.271v-1.11c2.48-0.113,3.484-0.749,3.484-2.646
	c0-0.057,0-0.369,0-0.842v-11.885c0-0.474,0-0.902,0-1.32c0-2.598-0.146-3.541-2.908-3.541c-0.158,0-0.258,0-0.414,0v-1.063
	c2.318-0.204,4.902-0.892,7.908-1.998V154.099L194.211,154.099z M194.1,123.722c0,1.481-1.209,2.7-2.734,2.7
	c-1.537,0-2.694-1.219-2.694-2.7c0-1.528,1.157-2.745,2.694-2.745C192.846,120.977,194.1,122.194,194.1,123.722"/>
<path id="path180_1_" fill="#FFFFFF" d="M204.457,135.56c1.744,0,4.036-0.059,5.722-0.216v1.167c-1.937,0-2.794,0.254-2.794,1.473
	c0,0.634,0.317,2.011,1.214,4.067l4.911,11.354l2.325-6.019c1.804-4.751,3.005-7.707,3.005-9.089c0-1.209-0.894-1.786-2.742-1.786
	v-1.167c1.273,0.112,2.928,0.216,4.135,0.216c1.115,0,3.077-0.104,4.4-0.216v1.167c-0.045,0-0.316,0-0.316,0
	c-2.77,0-3.516,1.843-5.043,5.643l-6.816,17.006h-1.17l-8.553-20.226c-0.686-1.58-1.492-2.423-4.175-2.423v-1.167
	C200.564,135.501,202.758,135.56,204.457,135.56"/>
<path id="path182_1_" fill="#FFFFFF" d="M230.568,144.164c-0.109,1.113-0.158,1.953-0.158,2.638c0,6.345,3.533,10.569,8.443,10.569
	c2.802,0,4.653-1,6.818-3.488l0.953,1.001c-2.174,3.062-5.233,4.549-9.252,4.549c-7.287,0-12.03-5.226-12.03-11.886
	c0-6.71,4.958-12.787,12.193-12.787c5.76,0,9.823,3.701,9.823,8.928c0,0.151,0,0.319,0,0.475H230.568L230.568,144.164z
	 M242.608,141.422c0-3.541-2.221-5.549-5.175-5.549c-3.378,0-6.021,2.533-6.559,6.761h11.574
	C242.553,141.941,242.608,141.525,242.608,141.422"/>
<path id="path184_1_" fill="#FFFFFF" d="M266.219,135.127c2.683,0,4.275,1.163,4.275,2.809c0,1.313-0.795,2.109-1.851,2.109
	c-2.382,0-1.166-3.058-4.116-3.058c-2.912,0-5.338,2.824-5.338,7.131v9.98c0,0.367,0,0.63,0,0.739c0,2.105,1.055,2.683,3.803,2.749
	v1.11c-2.385-0.164-4.442-0.271-6.131-0.271c-1.583,0-3.572,0.055-6.045,0.271v-1.11c2.68-0.066,3.783-0.693,3.783-2.646
	c0-0.057,0-0.369,0-0.842v-12.158c0-3.479-0.84-4.641-3.732-4.641c-0.148,0-0.369,0-0.572,0v-1.062
	c2.414-0.308,4.928-0.942,7.628-1.791c0.662,1.767,0.891,4.981,0.834,5.793C259.824,137.568,262.455,135.127,266.219,135.127"/>
<path id="path186_1_" fill="#FFFFFF" d="M288.121,137.854l0.057,3.418h-1.042c-0.572-3.064-2.677-5.342-6.421-5.342
	c-2.324,0-3.951,1.489-3.951,3.23c0,2.598,1.859,3.093,5.172,4.74c1.615,0.826,3.04,1.44,4.209,2.168
	c2.146,1.329,3.422,3.021,3.422,5.688c0,4.551-3.301,7.677-8.77,7.677c-2.383,0-4.658-0.795-6.396-2.165l-0.713,1.48h-0.912
	c0.06-1.958,0.06-3.118,0.06-3.538c0-0.843-0.06-2.065-0.06-3.704h0.933c0.806,4.174,3.377,6.651,7.157,6.651
	c3.277,0,5.043-2.074,5.043-4.289c0-2.761-1.886-3.567-5.595-5.303c-4.423-2.143-7.095-3.485-7.095-7.414
	c0-3.604,3.483-6.394,7.32-6.394c2.828,0,3.98,0.476,5.781,1.434l1.104-1.322h0.77L288.121,137.854"/>
<path id="path188_1_" fill="#FFFFFF" d="M302.351,154.099c0,0.367,0,0.63,0,0.739c0,2,1.004,2.636,3.595,2.749v1.11
	c-2.003-0.164-3.908-0.271-5.807-0.271c-1.905,0-3.811,0.107-5.763,0.271v-1.11c2.495-0.113,3.497-0.749,3.497-2.646
	c0-0.057,0-0.369,0-0.842v-11.885c0-0.474,0-0.902,0-1.32c0-2.598-0.158-3.541-2.899-3.541c-0.172,0-0.272,0-0.435,0v-1.063
	c2.332-0.204,4.799-0.892,7.812-1.998V154.099z M302.351,123.722c0,1.481-1.216,2.7-2.738,2.7c-1.533,0-2.704-1.219-2.704-2.7
	c0-1.528,1.171-2.745,2.704-2.745C301.085,120.977,302.351,122.194,302.351,123.722"/>
<path id="path190_1_" fill="#FFFFFF" d="M316.788,129.583v5.815h5.901v1.589h-5.852v15.884c0,3.173,0.89,4.766,3.319,4.766
	c1.429,0,2.798-0.792,3.857-2.426l0.849,0.777c-1.273,2.273-3.455,3.23-6.121,3.23c-4.309,0-6.395-2.216-6.395-6.603v-15.628h-2.48
	v-0.851c2.322-1.377,4.387-3.599,6.014-6.554H316.788"/>
<path id="path192_1_" fill="#FFFFFF" d="M329.88,135.56c0.782,0,2.861-0.059,6.078-0.216v1.167
	c-2.115,0.041-3.058,0.371-3.058,1.732c0,0.328,0.148,0.854,0.369,1.436l5.275,13.625l5.015-12.15
	c0.372-0.893,0.523-1.851,0.523-2.636c0-1.431-0.782-1.967-2.741-2.008v-1.167c1.592,0.112,2.859,0.216,3.698,0.216
	c1.052,0,2.812-0.104,4.194-0.216v1.167c-0.054,0-0.111,0-0.158,0c-2.33,0-2.664,1.156-3.711,3.751l-6.82,16.42
	c-4.854,11.775-6.922,16.797-9.346,16.797c-0.85,0-1.648-0.575-1.648-1.54c0-1.721,1.775-2.125,3.072-2.897
	c1.312-0.788,2.444-3.145,4.703-8.234l0.979-2.252l-7.584-18.184c-0.956-2.284-1.119-3.86-3.803-3.86v-1.167
	C326.932,135.501,328.505,135.56,329.88,135.56"/>
<path id="path194_1_" fill="#FFFFFF" d="M113.373,108.309c6.814-0.164,7.883-1.809,7.883-7.468V64.381
	c0-5.683-1.068-7.324-7.883-7.486v-1.891c3.118,0.083,5.918,0.172,8.459,0.172c6.323,0,9.994-0.333,15.524-0.333
	c11.577,0,19.677,3.003,24.71,8.809c3.79,4.379,5.913,10.228,5.913,18.111c0,8.865-2.741,15.831-7.501,20.661
	c-4.986,5.062-12.226,7.781-22.475,7.781c-5.002,0-10.26-0.246-15.59-0.246c-2.963,0-5.923,0-9.041,0.166V108.309L113.373,108.309z
	 M129.713,96.896c0,7.555,1.725,11.249,9.857,11.249c13.221,0,18.559-10.02,18.559-26.288c0-18.969-7.179-25.208-21.922-25.208
	c-4.928,0-6.494,0-6.494,4.516V96.896"/>
<path id="path196_1_" fill="#FFFFFF" d="M178.664,73.994c1.732,0,3.942-0.093,6.408-0.177v25.872c0,0.08,0,0.08,0,0.25
	c0,5.579,2.631,8.451,7.715,8.451c5.583,0,10.352-4.92,10.352-11.819V80.966c0-0.82,0-1.303,0-1.474
	c0-2.546-1.728-3.859-5.261-3.859c-0.244,0-0.401,0-0.655,0v-1.816c2.544,0.084,4.854,0.178,6.812,0.178
	c1.725,0,3.867-0.093,6.33-0.178v26.942c0,0.083,0,0.083,0,0.253c0,4.428,0.631,7.343,4.744,7.343c0.322,0,0.442,0.023,0.766,0.023
	v1.723c-4.004-0.361-7.032-0.327-12.297-0.08l-0.197-6.468c-3.207,5.089-7.559,7.38-13.385,7.38
	c-9.438,0-12.148-4.505-12.148-12.807V80.966c0-0.82-0.082-1.302-0.082-1.474c0-2.546-1.725-3.859-5.175-3.859
	c-0.245,0-0.415,0-0.659,0v-1.816C174.478,73.901,176.691,73.994,178.664,73.994"/>
<path id="path198_1_" fill="#FFFFFF" d="M243.959,73.497c4.201,0,6.574,2.306,6.574,4.556c0,2.05-1.279,3.084-2.678,3.084
	c-4.188,0-2.135-4.767-6.527-4.767c-4.151,0-8.296,3.936-8.296,11.086v15.517c0,0.578,0,0.985,0,1.155
	c0,3.283,1.661,4.18,5.919,4.261v1.734c-3.701-0.251-6.895-0.408-9.518-0.408c-2.475,0-5.676,0.079-9.533,0.408v-1.734
	c4.188-0.081,5.91-1.068,5.91-4.103c0-0.078,0-0.576,0-1.313V84.089c0-5.419-1.307-7.225-5.828-7.225c-0.24,0-0.569,0-0.897,0
	v-1.639c3.771-0.492,7.656-1.006,11.835-2.327c1.07,2.398,1.388,7.048,1.388,8.58C233.781,78.053,237.713,73.497,243.959,73.497"/>
<path id="path200_1_" fill="#FFFFFF" d="M262.63,80.348c2.485-4.688,7.557-7.263,13.221-7.263c7.715,0,12.157,3.985,12.157,10.759
	c0,0.244,0,0.977,0,2.047v17.082c0,0.578,0,0.985,0,1.155c0,3.283,1.636,4.18,5.911,4.261v1.734c-3.7-0.251-6.896-0.408-9.521-0.408
	c-2.474,0-5.675,0.079-9.532,0.408v-1.734c4.193-0.081,5.918-1.068,5.918-4.103c0-0.078,0-0.576,0-1.313V84.335
	c0-5.826-2.545-8.702-7.723-8.702c-5.586,0-10.431,4.923-10.431,11.824v15.517c0,0.578,0,0.985,0,1.155
	c0,3.283,1.646,4.18,5.914,4.261v1.734c-3.694-0.251-6.896-0.408-9.528-0.408c-2.456,0-5.659,0.079-9.507,0.408v-1.734
	c4.177-0.081,5.903-1.068,5.903-4.103c0-0.078,0-0.576,0-1.313V59.765c0-3.612-1.646-4.922-5.903-5.015v-1.467
	c2.532-0.167,6.88-0.904,13.121-2.377V80.348"/>
<path id="path202_1_" fill="#FFFFFF" d="M319.175,105.504c-1.788,1.911-4.685,5.28-12.291,5.28c-6.194,0-10.285-3.277-10.285-8.245
	c0-5.417,4.431-8.747,13.472-12.276l4.347-1.642c3.776-1.477,5.009-1.397,5.009-4.266v-1.784c0-5.175-1.969-7.935-8.127-7.935
	c-6.371,0-6.562,2.759-6.841,5.076c-0.17,1.454-0.546,3.145-3.233,3.145c-1.555,0-2.658-1.317-2.658-3.036
	c0-3.538,4.562-6.818,13.553-6.818c9.606,0,14.118,3.039,14.118,9.441v20.861c0,3.194,1.036,4.537,2.761,4.537
	c1.148,0,2.067-0.522,2.99-1.748l1.072,1.154c-1.729,2.709-4.032,3.523-7.23,3.523C322.028,110.772,319.731,108.609,319.175,105.504
	z M304.234,101.094c0,3.847,2.045,6.749,5.748,6.749c5.481,0,9.275-3.596,9.275-7.67V88.465
	C309.083,92.484,304.234,95.995,304.234,101.094"/>
<path id="path204_1_" fill="#FFFFFF" d="M384.111,73.004c8.293,0,11.857,4.465,11.857,11.903v18.067c0,0.413,0,0.738,0,1.155
	c0,3.283,1.631,4.18,5.906,4.261v1.734c-3.695-0.251-6.899-0.408-9.531-0.408c-2.449,0-5.663,0.079-9.518,0.408v-1.734
	c4.195-0.081,5.826-1.068,5.826-4.103c0-0.078,0.084-0.576,0.084-1.313V83.678c0-5.251-2.463-8.045-7.145-8.045
	c-5.762,0-9.686,4.127-9.686,11.523v15.817c0,0.578,0,0.985,0,1.155c0,3.192,1.634,4.18,5.752,4.261v1.734
	c-3.545-0.251-6.66-0.408-9.356-0.408c-2.965,0-5.917,0.157-9.127,0.408v-1.734c3.858-0.159,5.499-1.141,5.499-4.103
	c0-0.078,0-0.576,0-1.313V83.678c0-5.169-2.459-8.045-7.145-8.045c-5.678,0-9.686,4.513-9.686,11.908v15.433
	c0,0.578,0,0.985,0,1.155c0,3.283,1.645,4.18,5.916,4.261v1.734c-3.699-0.251-6.904-0.408-9.528-0.408
	c-2.468,0-5.327,0.079-9.178,0.408v-1.734c4.171-0.081,5.559-1.068,5.559-4.103c0-0.078,0-0.576,0-1.313V83.262
	c0-4.753-0.733-6.316-5.163-6.316c-0.249,0-0.498,0-0.75,0v-1.634c3.207,0,6.982-1.153,11.584-3.129
	c0.661,2.454,0.969,5.113,0.969,7.569c0,0.365,0.031,0.685,0,0.743c2.197-4.505,7.328-7.574,12.991-7.574
	c8.206,0,10.888,5.312,10.927,7.736C372.371,77.485,376.671,73.004,384.111,73.004"/>
</svg>
