<?xml version="1.0" encoding="utf-8"?>
<!-- Generator: Adobe Illustrator 15.0.2, SVG Export Plug-In  -->
<!DOCTYPE svg PUBLIC "-//W3C//DTD SVG 1.1//EN" "http://www.w3.org/Graphics/SVG/1.1/DTD/svg11.dtd" [
	<!ENTITY ns_flows "http://ns.adobe.com/Flows/1.0/">
]>
<svg version="1.1"
	 xmlns="http://www.w3.org/2000/svg" xmlns:xlink="http://www.w3.org/1999/xlink" xmlns:a="http://ns.adobe.com/AdobeSVGViewerExtensions/3.0/"
	 x="0px" y="0px" width="131px" height="39px" viewBox="-5.962 -5.403 131 39"
	 overflow="visible" enable-background="new -5.962 -5.403 131 39" xml:space="preserve">
<defs>
</defs>
<path fill="#2C3E50" d="M49.048,21.235v-6.119h-5.833v6.119H40.14V6.761h3.075v5.832h5.833V6.761h3.075v14.475H49.048z"/>
<path fill="#2C3E50" d="M64.553,21.235h-9.449V6.761h9.449v2.48h-6.405v3.521h6.023v2.312h-6.023v3.681h6.405V21.235z"/>
<path fill="#2C3E50" d="M73.008,6.761c3.182,0,4.952,2.163,4.952,4.889c0,2.757-1.792,4.836-4.984,4.836h-2.799v4.75h-3.065V6.761
	H73.008z M70.167,14.13h1.622c1.898,0,3.055-0.604,3.055-2.48c0-1.592-0.934-2.482-2.472-2.482h-2.205V14.13z"/>
<path fill="#FFFFFF" d="M87.19,11.724h0.042V5.997h1.559v15.238h-1.474v-1.729h-0.043c-0.243,0.881-1.432,1.898-3.361,1.898
	c-2.842,0-4.369-2.047-4.369-4.963v-1.527c0-2.895,1.538-4.973,4.369-4.973C85.758,9.942,86.839,10.812,87.19,11.724z
	 M81.102,15.212v0.923c0,2.312,1.008,3.903,3.065,3.903c1.951,0,3.064-1.485,3.064-3.871v-1.029c0-2.291-1.146-3.807-3.118-3.807
	C82.099,11.331,81.102,12.922,81.102,15.212z"/>
<path fill="#FFFFFF" d="M95.156,21.416c-2.152,0-3.627-1.315-3.627-3.351c0-1.92,1.337-3.203,3.871-3.203h3.022v-1.379
	c0-1.506-0.901-2.131-2.471-2.131c-1.634,0-2.333,0.752-2.472,1.845h-1.516c0.105-1.919,1.41-3.245,4.072-3.245
	c2.428,0,3.966,1.061,3.966,3.51v7.773h-1.517v-1.537h-0.042C97.914,20.589,96.853,21.416,95.156,21.416z M98.422,17.439v-1.272
	h-2.97c-1.622,0-2.312,0.785-2.312,1.866c0,1.378,1.135,2.025,2.386,2.025C97.181,20.059,98.422,18.935,98.422,17.439z"/>
<path fill="#FFFFFF" d="M103.781,7.343h1.56v2.789h2.301v1.326h-2.301v6.83c0,1.367,0.456,1.707,1.866,1.707
	c0.19,0,0.371,0,0.53-0.021v1.283c-0.159,0.032-0.541,0.074-0.901,0.074c-2.556,0-3.055-0.986-3.055-3.139v-6.734h-1.559v-1.326
	h1.559V7.343z"/>
<path fill="#FFFFFF" d="M113.109,21.416c-2.152,0-3.627-1.315-3.627-3.351c0-1.92,1.337-3.203,3.871-3.203h3.022v-1.379
	c0-1.506-0.901-2.131-2.471-2.131c-1.634,0-2.333,0.752-2.472,1.845h-1.516c0.105-1.919,1.41-3.245,4.072-3.245
	c2.428,0,3.966,1.061,3.966,3.51v7.773h-1.517v-1.537h-0.042C115.867,20.589,114.806,21.416,113.109,21.416z M116.375,17.439v-1.272
	h-2.97c-1.622,0-2.312,0.785-2.312,1.866c0,1.378,1.135,2.025,2.386,2.025C115.134,20.059,116.375,18.935,116.375,17.439z"/>
<path fill="#2C3E50" d="M18.546,26.297c6.459,0,11.696-5.236,11.696-11.697S25.005,2.902,18.546,2.902
	c-6.46,0-11.698,5.236-11.698,11.697S12.086,26.297,18.546,26.297z M18.546,4.783c5.422,0,9.816,4.394,9.816,9.816
	c0,5.422-4.395,9.818-9.816,9.818c-5.424,0-9.818-4.396-9.818-9.818C8.728,9.177,13.123,4.783,18.546,4.783z"/>
<g>
	<g>
		<path fill="#2C3E50" d="M26.512,6.306v0.653c-4.188,0-7.598,3.409-7.598,7.599H18.26C18.26,10.009,21.962,6.306,26.512,6.306z"/>
	</g>
</g>
<g>
	<g>
		<path fill="#2C3E50" d="M18.291,14.017h0.654c0,0.553,3.684,1.631,10.438,1.631v0.655C25.546,16.303,18.291,15.825,18.291,14.017z
			"/>
	</g>
</g>
<path fill="#FFFFFF" d="M18.26,14.558h0.654c0,7.238,5.89,13.13,13.13,13.13v0.655C24.443,28.343,18.26,22.159,18.26,14.558z"/>
<g>
	<g>
		<path fill="#2C3E50" d="M18.26,14.558h0.654c0,4.415-3.59,8.005-8.005,8.005v-0.653C14.962,21.909,18.26,18.61,18.26,14.558z"/>
	</g>
</g>
<g>
	<g>
		<path fill="#2C3E50" d="M0,10.96c9.399,0,18.914,1.236,18.914,3.598H18.26c0-1.229-6.947-2.943-18.26-2.943V10.96z"/>
	</g>
</g>
<path fill="#FFFFFF" d="M5.523,0C12.586,0,18.33,5.743,18.33,12.806h-0.655c0-6.7-5.45-12.15-12.151-12.15V0z"/>
<path fill="#FFFFFF" d="M18.546,12.084c1.386,0,2.514,1.129,2.514,2.516s-1.128,2.516-2.514,2.516c-1.387,0-2.516-1.129-2.516-2.516
	S17.16,12.084,18.546,12.084z M18.546,16.229c0.896,0,1.627-0.73,1.627-1.629c0-0.897-0.73-1.629-1.627-1.629
	c-0.898,0-1.628,0.731-1.628,1.629C16.918,15.498,17.648,16.229,18.546,16.229z"/>
</svg>
